<svg xmlns="http://www.w3.org/2000/svg" xmlns:xlink="http://www.w3.org/1999/xlink" version="1.1" width="256" height="256" viewBox="0 0 256 256" xml:space="preserve">

<defs>
</defs>
<g style="stroke: none; stroke-width: 0; stroke-dasharray: none; stroke-linecap: butt; stroke-linejoin: miter; stroke-miterlimit: 10; fill: none; fill-rule: nonzero; opacity: 1;" transform="translate(1.4065934065934016 1.4065934065934016) scale(2.81 2.81)" >
	<path d="M 73.026 61.632 c -4.626 0 -8.389 -3.763 -8.389 -8.388 s 3.763 -8.388 8.389 -8.388 c 4.625 0 8.388 3.763 8.388 8.388 S 77.651 61.632 73.026 61.632 z M 73.026 47.856 c -2.972 0 -5.389 2.417 -5.389 5.388 c 0 2.971 2.417 5.388 5.389 5.388 c 2.971 0 5.388 -2.417 5.388 -5.388 C 78.414 50.273 75.997 47.856 73.026 47.856 z" style="stroke: none; stroke-width: 1; stroke-dasharray: none; stroke-linecap: butt; stroke-linejoin: miter; stroke-miterlimit: 10; fill: rgb(0,0,0); fill-rule: nonzero; opacity: 1;" transform=" matrix(1 0 0 1 0 0) " stroke-linecap="round" />
	<path d="M 17.561 61.632 c -4.625 0 -8.388 -3.763 -8.388 -8.388 s 3.763 -8.388 8.388 -8.388 s 8.388 3.763 8.388 8.388 S 22.186 61.632 17.561 61.632 z M 17.561 47.856 c -2.971 0 -5.388 2.417 -5.388 5.388 c 0 2.971 2.417 5.388 5.388 5.388 s 5.388 -2.417 5.388 -5.388 C 22.948 50.273 20.531 47.856 17.561 47.856 z" style="stroke: none; stroke-width: 1; stroke-dasharray: none; stroke-linecap: butt; stroke-linejoin: miter; stroke-miterlimit: 10; fill: rgb(0,0,0); fill-rule: nonzero; opacity: 1;" transform=" matrix(1 0 0 1 0 0) " stroke-linecap="round" />
	<path d="M 73.03 56.24 c -0.2 0 -0.4 -0.021 -0.591 -0.051 c -0.189 -0.04 -0.38 -0.1 -0.56 -0.18 c -0.18 -0.07 -0.36 -0.16 -0.521 -0.27 c -0.159 -0.11 -0.319 -0.24 -0.46 -0.381 c -0.13 -0.13 -0.26 -0.29 -0.369 -0.449 c -0.11 -0.16 -0.2 -0.341 -0.271 -0.521 c -0.08 -0.18 -0.14 -0.37 -0.18 -0.56 c -0.03 -0.19 -0.061 -0.391 -0.061 -0.59 c 0 -0.19 0.03 -0.391 0.061 -0.58 c 0.04 -0.19 0.1 -0.38 0.18 -0.561 c 0.07 -0.18 0.16 -0.359 0.271 -0.52 c 0.109 -0.17 0.239 -0.32 0.369 -0.46 c 0.7 -0.69 1.74 -1.011 2.71 -0.82 c 0.19 0.04 0.381 0.1 0.561 0.17 c 0.18 0.08 0.36 0.17 0.52 0.28 c 0.17 0.109 0.32 0.229 0.46 0.37 c 0.141 0.14 0.261 0.29 0.37 0.46 c 0.11 0.16 0.2 0.34 0.28 0.52 c 0.07 0.181 0.13 0.37 0.17 0.561 c 0.04 0.189 0.061 0.39 0.061 0.58 c 0 0.79 -0.32 1.569 -0.881 2.119 c -0.14 0.141 -0.29 0.271 -0.46 0.381 c -0.159 0.109 -0.34 0.199 -0.52 0.27 c -0.18 0.08 -0.37 0.14 -0.561 0.18 C 73.42 56.22 73.219 56.24 73.03 56.24 z" style="stroke: none; stroke-width: 1; stroke-dasharray: none; stroke-linecap: butt; stroke-linejoin: miter; stroke-miterlimit: 10; fill: rgb(0,0,0); fill-rule: nonzero; opacity: 1;" transform=" matrix(1 0 0 1 0 0) " stroke-linecap="round" />
	<path d="M 17.56 56.24 c -0.19 0 -0.39 -0.021 -0.59 -0.051 c -0.19 -0.04 -0.38 -0.1 -0.56 -0.18 c -0.18 -0.07 -0.35 -0.16 -0.51 -0.27 c -0.17 -0.11 -0.32 -0.24 -0.46 -0.381 c -0.56 -0.55 -0.88 -1.319 -0.88 -2.119 c 0 -0.19 0.02 -0.391 0.06 -0.58 c 0.04 -0.19 0.1 -0.38 0.17 -0.561 c 0.08 -0.18 0.17 -0.359 0.28 -0.52 c 0.11 -0.17 0.23 -0.32 0.37 -0.46 c 0.14 -0.141 0.29 -0.261 0.46 -0.37 c 0.16 -0.11 0.33 -0.2 0.51 -0.28 c 0.18 -0.07 0.37 -0.13 0.56 -0.17 c 0.39 -0.07 0.79 -0.07 1.18 0 c 0.19 0.04 0.38 0.1 0.56 0.17 c 0.18 0.08 0.35 0.17 0.52 0.28 c 0.16 0.109 0.31 0.229 0.45 0.37 c 0.56 0.56 0.88 1.34 0.88 2.12 c 0 0.199 -0.02 0.399 -0.06 0.59 c -0.04 0.189 -0.09 0.38 -0.17 0.56 c -0.07 0.18 -0.17 0.36 -0.28 0.521 c -0.1 0.159 -0.23 0.319 -0.37 0.449 c -0.14 0.141 -0.29 0.271 -0.45 0.381 c -0.17 0.109 -0.34 0.199 -0.52 0.27 c -0.18 0.08 -0.37 0.14 -0.56 0.18 C 17.95 56.22 17.76 56.24 17.56 56.24 z" style="stroke: none; stroke-width: 1; stroke-dasharray: none; stroke-linecap: butt; stroke-linejoin: miter; stroke-miterlimit: 10; fill: rgb(0,0,0); fill-rule: nonzero; opacity: 1;" transform=" matrix(1 0 0 1 0 0) " stroke-linecap="round" />
	<path d="M 89.693 51.274 c -2.589 -6.317 -8.405 -10.768 -15.179 -11.615 L 54.25 37.125 c -3.872 -3.347 -8.927 -6.259 -15.056 -8.654 c -0.771 -0.302 -1.641 0.08 -1.943 0.851 c -0.302 0.771 0.08 1.642 0.851 1.943 c 4.992 1.951 9.207 4.247 12.589 6.834 c -2.125 0.696 -4.374 1.029 -6.585 0.972 l -14.129 -0.689 l -0.963 -3.386 c -0.227 -0.797 -1.058 -1.26 -1.853 -1.033 c -0.797 0.227 -1.259 1.056 -1.033 1.853 l 0.677 2.379 c -1.125 -0.104 -2.247 -0.259 -3.353 -0.477 l -8.809 -1.74 c -0.028 -0.005 -0.056 -0.004 -0.084 -0.008 c -0.062 -0.009 -0.125 -0.016 -0.189 -0.017 c -0.043 0 -0.085 0.004 -0.127 0.008 c -0.042 0.003 -0.084 0.001 -0.127 0.007 L 6 37.257 c -1.986 0.316 -3.603 1.85 -4.022 3.816 L 0.09 49.937 c -0.42 1.97 0.69 3.972 2.582 4.658 l 4.999 1.816 c -0.321 -0.999 -0.498 -2.063 -0.498 -3.167 c 0 -5.727 4.66 -10.388 10.388 -10.388 s 10.388 4.66 10.388 10.388 c 0 1.571 -0.361 3.056 -0.988 4.393 h 36.665 c -0.627 -1.336 -0.988 -2.821 -0.988 -4.393 c 0 -5.727 4.66 -10.388 10.389 -10.388 c 5.727 0 10.388 4.66 10.388 10.388 c 0 1.432 -0.292 2.798 -0.818 4.041 l 3.763 -0.409 c 1.286 -0.139 2.403 -0.856 3.065 -1.967 C 90.086 53.797 90.184 52.473 89.693 51.274 z" style="stroke: none; stroke-width: 1; stroke-dasharray: none; stroke-linecap: butt; stroke-linejoin: miter; stroke-miterlimit: 10; fill: rgb(0,0,0); fill-rule: nonzero; opacity: 1;" transform=" matrix(1 0 0 1 0 0) " stroke-linecap="round" />
</g>
</svg>