<?xml version="1.0" encoding="UTF-8"?>
<!DOCTYPE svg PUBLIC "-//W3C//DTD SVG 1.1//EN" "http://www.w3.org/Graphics/SVG/1.1/DTD/svg11.dtd">
<!-- Creator: CorelDRAW 2020 (64-Bit) -->
<svg xmlns="http://www.w3.org/2000/svg" xml:space="preserve" width="155.015mm" height="181.546mm" version="1.1" style="shape-rendering:geometricPrecision; text-rendering:geometricPrecision; image-rendering:optimizeQuality; fill-rule:evenodd; clip-rule:evenodd"
viewBox="0 0 3452.2 4043.06"
 xmlns:xlink="http://www.w3.org/1999/xlink"
 xmlns:xodm="http://www.corel.com/coreldraw/odm/2003">
 <defs>
  <style type="text/css">
   <![CDATA[
    .str0 {stroke:#373435;stroke-width:4.45;stroke-miterlimit:22.9256}
    .fil0 {fill:none;fill-rule:nonzero}
   ]]>
  </style>
 </defs>
 <g id="Layer_x0020_1">
  <metadata id="CorelCorpID_0Corel-Layer"/>
  <g id="_2452115764192">
   <g>
    <path class="fil0 str0" d="M1543.94 2.26c17.83,-0.08 35.75,0 53.66,0.24 -10.45,34.41 -18.46,69.22 -26.79,104.18 30.33,-11 44.78,-45.25 76.44,-52.56 24.83,-6.36 42.03,-30.8 68.98,-29.07 -15.71,19.56 -37.79,34.41 -47.45,58.29 -17.68,36.53 -34.88,73.46 -59.08,106.3 -37.55,83.28 -63.87,171.19 -97.1,256.2 -23.02,87.83 -49.18,174.96 -65.76,264.37 -1.41,16.89 -1.1,33.86 0,50.75 20.19,-42.35 32.76,-88.15 54.6,-129.63 48.32,-48.32 110.78,-79.27 168.44,-115.02 46.04,-17.28 93.8,-29.46 138.9,-49.26 43.68,-18.07 90.9,-23.8 137.33,-27.58 39.75,-20.43 84.46,-9.19 126.88,-14.38 24.43,-8.48 50.36,-7.07 75.81,-5.89 -8.56,8.09 -15.95,18.7 -27.89,22.23 -36.3,13.83 -58.92,48.48 -92,67.25 -0.71,-12.57 -1.26,-25.06 -1.65,-37.55 -23.25,22.08 -45.8,44.86 -68.51,67.49 -19.4,18.93 -29.85,44.94 -48.63,64.42 -5.66,-32.06 11,-61.83 7.38,-93.73 -14.46,23.49 -24.9,49.42 -43.6,70.16 -10.69,35.28 -32.6,65.29 -56.64,92.55 -24.98,15.71 -52.48,27.11 -78.96,40.07 -0.63,-12.73 -1.26,-25.38 -2.12,-38.02 -10.76,16.97 -17.36,36.37 -28.75,52.95 -92.86,54.92 -185.65,110.15 -277.33,166.87 9.11,20.5 6.28,53.5 33.08,59.47 48.16,-11.47 99.3,-12.41 147.46,0.16 42.11,10.53 86.5,12.57 126.41,30.72 27.66,10.61 54.05,26.48 84.69,25.06 59.94,24.59 119.03,51.77 178.34,78.25 -24.28,-25.3 -58.29,-38.58 -84.69,-61.59 -41.56,-34.18 -91.37,-54.84 -136.62,-83.2 -69.37,-35.98 -136.23,-78.33 -210.16,-104.96 44.94,-11.55 90.51,-22.47 136.7,-26.4 27.73,4.95 55.39,10.92 83.99,8.33 26.4,31.9 63.95,55.07 81.47,93.65 4.16,6.99 9.19,13.43 15.01,19.33 6.76,-40.93 -12.1,-78.96 -31.74,-113.45 54.21,-6.28 103.63,22.23 156.42,24.35 10.53,12.1 19.01,25.53 27.02,39.36 26.32,-12.73 55.94,-7.46 84.22,-8.88 13.67,29.85 16.66,63.4 37.24,90.03 -0.24,38.18 25.38,68.04 38.42,102.21 3.46,16.81 7.78,33.7 18.07,47.92 1.33,-27.34 1.49,-54.68 0.31,-82.02 -7.15,-44.07 -26.87,-85.16 -32.13,-129.63 16.73,11.78 28.05,28.99 35.04,47.92 13.59,40.15 37.79,75.81 47.77,117.37 23.57,57.12 26.16,119.18 38.26,179.21 33.08,-56.1 53.42,-118.63 61.75,-183.13 4.79,-36.92 16.42,-73.14 15.08,-110.7 -1.1,-88.86 0.63,-177.87 -0.79,-266.73 -10.92,-49.1 -17.36,-99.39 -33.78,-147.07 -9.19,-28.6 -23.49,-55.31 -30.41,-84.69 44,38.65 83.36,82.42 125.62,123.03 19.56,18.07 36.85,38.81 49.81,62.22 1.73,17.13 -9.9,31.19 -16.42,46.04 -14.06,25.61 -25.85,52.48 -33.63,80.68 21.45,-13.75 41.09,-29.78 60.34,-46.43 15.71,-5.34 31.11,-11.71 45.41,-20.35 8.33,8.17 16.74,16.34 25.06,24.59 -27.66,29.07 -47.61,64.42 -75.03,93.65 -22.71,49.42 -45.41,99.94 -74.01,146.6 -5.42,23.88 -15.16,46.67 -20.11,70.63 25.61,-45.64 64.5,-82.41 87.52,-129.63 15.32,-37.16 51.62,-58.61 76.44,-88.7 43.68,-53.89 106.22,-86.03 162,-125.47 -5.11,16.89 -16.42,31.9 -17.75,49.89 -2.59,37.71 -17.99,73.69 -16.74,111.8 19.48,-7.46 46.9,-16.26 48,-41.25 7.23,-60.65 46.28,-109.52 73.54,-162.16 10.14,-14.93 20.51,-30.48 22.08,-49.02 10.21,-3.93 20.35,-8.01 30.72,-11.71 -6.52,18.54 -10.06,37.71 -8.96,57.35 1.02,22.63 -9.5,43.68 -8.33,66.31 22.7,-13.59 18.62,-44.15 37.63,-60.34 37.79,-37.24 72.59,-79.11 121.7,-101.9 -15.24,39.28 -3.93,81.87 -15.87,121.62 -2.2,11.39 -1.73,23.1 -2.04,34.65 -26.16,5.03 -45.65,24.9 -70.24,34.18 -21.53,12.02 -49.73,10.76 -66.54,30.56 40.93,-1.49 85.79,10.05 121.85,-15.09 21.05,3.69 16.18,29.7 13.98,45.18 -7.7,26.24 -4.01,55.47 -21.29,78.41 8.17,7.78 16.34,15.64 24.43,23.65 -24.2,25.69 -62.3,21.05 -90.82,38.81 -39.83,20.9 -89.09,16.18 -127.12,41.25 35.51,1.34 71.02,0.47 106.53,0.86 28.44,1.96 53.27,-15.24 81.23,-17.52 -12.1,28.83 -31.19,55.94 -59.24,71.1 -39.28,28.44 -88.38,34.41 -133.87,47.06 -20.27,2.67 -40.85,1.26 -61.2,1.41l-0.24 7.78c67.25,1.57 135.76,-1.57 199.24,-25.61 -14.93,16.97 -29.54,34.41 -36.92,56.09 15.87,0.71 31.82,1.02 47.77,1.1 10.61,11.79 22.39,22.94 28.99,37.71 16.26,3.93 32.53,7.86 48.87,11.63 22.08,18.62 41.95,39.99 61.04,61.75 -13.12,-2.2 -25.85,-11.47 -39.36,-6.28 -47.53,11.23 -97.81,15.48 -141.34,39.2 -26.16,22.7 -59.39,35.28 -81.63,62.77 -0.16,10.14 -0.16,20.43 -0.08,30.64 38.65,-40.46 98.13,-45.09 149.98,-56.49 53.9,-1.41 107.79,0 161.76,-0.47 6.99,9.35 12.65,20.27 22.94,26.63 28.83,20.9 47.45,52.17 75.58,73.77 27.26,25.85 53.03,53.19 80.21,79.11 -41.32,-9.59 -83.36,-16.58 -125.15,-22.86 47.37,19.48 91.06,46.12 132.85,75.74 35.28,15.01 58.22,46.43 85.09,72.2 19.25,22 47.69,33.63 64.42,58.14 -85.79,-45.57 -177.32,-78.72 -267.59,-114.23 -80.13,-16.81 -160.66,-31.9 -240.41,-50.6 -30.09,-1.81 -60.81,-0.24 -88.39,-14.69 33.55,-10.45 68.35,-19.25 103.71,-18.78 2.91,-3.3 8.72,-9.9 11.63,-13.2 -54.92,-20.19 -112.66,-5.34 -167.58,5.81 -34.65,0 -67.57,-14.61 -102.13,-17.28 -0.32,-19.4 4.24,-38.1 10.37,-56.33 -17.83,15.95 -39.52,28.28 -51.07,50.05 -44.94,-3.46 -90.11,5.11 -131.12,23.73 -22.63,12.26 -50.28,16.18 -66.23,38.42 34.1,-2.59 66.47,8.09 100.09,10.37 -31.43,26 -58.14,56.17 -81.32,89.8 28.13,10.69 51.62,30.01 78.64,42.97 25.45,-14.61 53.97,-24.51 74.48,-46.51 25.45,-7.3 50.67,6.52 76.05,8.33 -0.79,14.69 -1.57,29.62 -6.84,43.6 26.64,10.29 50.99,25.45 77.54,36.14 -21.84,19.4 -39.05,45.18 -66.55,57.12 -15.71,6.91 -26.24,21.05 -39.67,31.27 -31.98,21.76 -76.13,18.62 -102.76,49.42 27.89,3.61 55.07,-2.91 82.34,-7.31 23.25,0.55 42.34,-13.83 61.44,-25.14 37.32,-22.78 85.79,-23.65 117.92,-54.99 10.69,-8.33 23.33,-13.51 34.96,-20.35 35.59,7.23 61.59,33.47 93.1,49.18 -1.1,11.63 -3.06,23.1 -6.83,34.18 13.28,12.65 26.24,25.61 39.12,38.81 -15.71,5.58 -31.82,10.05 -48.63,9.98 -21.06,-0.86 -35.2,16.89 -51.07,27.73 -17.05,6.28 -35.12,11.79 -47.3,26.16 61.12,8.95 119.26,-12.26 175.98,-31.9 14.85,8.41 26.55,22.08 36.77,35.67 7.46,26.48 21.92,49.97 36.85,72.83 -20.19,7.38 -40.7,13.83 -60.81,21.53 25.3,13.12 53.89,17.68 79.43,30.33 15.32,8.8 7.94,28.68 12.18,42.97 6.05,20.66 5.5,42.11 7.46,63.32 10.37,45.57 26.4,91.21 21.76,138.59 -20.98,-16.97 -29.62,-46.04 -54.76,-58.22 -27.42,-13.12 -49.26,-34.65 -73.85,-52.09 -30.48,-18.15 -65.21,-29.23 -92.55,-52.56 15.24,28.05 29.23,58.53 25.14,91.29 -91.21,-82.49 -167.5,-182.66 -273.4,-247.64 -36.77,-28.36 -81.78,-42.42 -119.65,-68.9 -24.12,-15.24 -52.8,-19.8 -78.41,-31.5 -35.35,-13.36 -69.45,-33.39 -108.34,-32.84 -26.08,-9.27 -51.3,-22.86 -79.74,-23.96 2.04,102.68 29.7,203.4 32.6,306.24 10.84,34.1 1.81,70.63 13.59,104.65 1.34,146.44 -0.08,293.04 0.71,439.57 1.18,16.34 -5.19,31.58 -7.54,47.53 -2.12,36.14 1.02,72.44 -1.02,108.58 -23.8,139.22 -29.46,281.89 -68.66,418.59 -26,119.18 -55.86,237.74 -94.98,353.38 -2.2,153.83 0.24,307.89 -1.18,461.88 -116.04,0.71 -232,0.78 -347.96,-0.16 20.74,-41.09 36.93,-84.14 57.43,-125.31 30.09,-76.29 72.44,-147.62 95.3,-226.81 9.43,-32.05 23.65,-63.01 30.33,-95.61 0.23,-75.58 0.78,-151.24 -0.24,-226.74 -6.21,-23.33 -8.64,-47.22 -7.78,-71.34 -8.88,-61.75 -18.3,-123.58 -26.32,-185.49 -45.8,-201.12 -84.69,-404.13 -144.56,-601.8 -25.22,-105.75 -67.72,-205.68 -106.45,-306.79 -43.6,12.33 -81.71,38.5 -122.72,57.12 -12.41,8.09 -27.18,8.17 -41.4,8.56 3.77,-20.82 9.35,-41.95 22.08,-59.16 24.83,-38.89 36.85,-83.91 59.32,-123.98 -40.3,0 -63.79,35.98 -79.19,68.27 1.41,-36.85 -7.31,-74.16 2.28,-110.46 17.21,-35.27 30.72,-72.2 48.87,-107.08 -36.93,-95.14 -87.76,-186.28 -132.54,-278.67 -19.4,-43.99 -54.21,-78.96 -73.46,-123.03 -20.43,-47.53 -61.12,-82.02 -84.38,-127.74 -8.17,-12.89 -16.58,-25.77 -25.69,-37.95 -7.54,55.23 -23.41,108.89 -44.23,160.51 -14.14,3.93 -17.52,-12.02 -24.35,-20.5 -12.49,-20.35 -35.04,-30.33 -53.5,-44.23 6.83,32.29 21.84,62.22 27.26,95.06 -12.18,12.49 -18.54,27.89 -20.11,45.1 -17.44,21.6 -38.97,39.36 -57.9,59.63 -5.03,-34.96 -31.35,-60.97 -44.94,-92.63 -30.01,-33.7 -47.45,-83.99 -92.79,-100.17 13.59,60.42 52.25,112.82 56.65,175.51 -0.16,38.89 0.86,77.86 -0.47,116.67 -11.24,35.12 -36.53,65.44 -68.82,83.2 -0.31,-32.92 -2.59,-70.55 -30.64,-92.63 -6.52,53.19 -25.92,104.57 -26.32,158.39 -42.34,16.73 -56.8,61.28 -75.18,98.6 -16.19,-34.41 -21.68,-71.34 -19.41,-109.13 -24.12,40.07 -23.18,89.64 -22.94,135.05 -23.49,19.48 -41.09,46.19 -68.27,61.12 -1.65,-43.76 -21.21,-85.16 -18.23,-129.24 -1.02,-21.45 9.35,-41.32 8.01,-62.77 -1.73,-24.12 7.93,-46.82 8.02,-70.71 -0.32,-27.5 19.56,-49.42 27.02,-74.95 29.7,-51.22 70.39,-94.51 109.99,-138.04 -15.48,6.68 -30.88,13.51 -46.43,20.11 -33.15,43.92 -83.67,73.38 -106.06,125.7 -0.47,-16.5 -1.26,-33 0.16,-49.42 12.02,-33.15 32.92,-61.83 49.73,-92.55 13.99,-18.46 32.45,-32.92 46.9,-50.99 -36.69,4.09 -67.96,28.6 -97.5,49.42 -0.31,-37.32 12.89,-72.91 17.44,-109.75 6.52,-33.63 36.85,-54.29 48.47,-85.56 11.24,-27.03 37,-43.37 55.15,-65.37 -28.05,-1.49 -57.19,1.89 -82.49,14.14 -19.33,15.01 -43.6,19.64 -65.84,28.52 -14.06,9.04 -28.52,17.76 -44.54,22.94 10.37,-38.26 9.27,-78.09 17.99,-116.67 -14.69,22.47 -30.33,46.59 -32.6,74.01 -3.61,20.19 -9.04,41.09 -21.06,57.9 -64.89,27.42 -131.36,53.27 -190.83,91.84 -35.59,17.83 -76.52,17.05 -115.41,15.63 -0.79,41.95 -42.66,57.9 -69.69,82.02 -33.86,29.78 -65.68,62.77 -104.33,86.5 -1.1,-30.56 -4.24,-61.99 4.79,-91.68 11,-67.72 30.56,-134.58 65.13,-194.29 28.91,-44.62 56.96,-89.8 84.53,-135.21 26.4,-29.7 57.12,-55.31 82.89,-85.64 -24.67,-5.5 -35.43,20.19 -56.57,25.45 -42.9,11.24 -64.42,67.8 -112.66,62.14 38.18,-45.88 68.19,-103.31 126.1,-127.27 21.92,-8.33 43.13,-18.78 62.46,-31.98 37,-25.53 82.96,-30.96 123.03,-50.28 75.97,-14.93 151.86,-30.56 226.11,-52.72 -25.69,-27.73 -56.09,-51.85 -92.31,-64.03 -19.41,-14.46 -41.48,-23.8 -66.15,-19.88 7.23,-17.28 12.49,-35.28 16.58,-53.5 14.3,-44.86 44.86,-81.94 64.03,-124.6 9.98,-20.35 20.82,-40.3 30.33,-60.96 -30.01,26.47 -59.47,54.37 -82.41,87.36 -33.94,45.72 -56.17,98.36 -83.04,148.25 -12.96,-12.65 -25.77,-25.53 -39.36,-37.63 8.56,-21.84 17.05,-43.76 25.77,-65.52 17.52,-20.03 31.35,-43.21 38.65,-68.98 -28.44,9.66 -53.58,28.91 -66.94,56.25 -15.56,34.33 -62.22,47.38 -63.79,89.01 -32.37,-2.99 -65.6,-7.38 -95.22,-21.53 -12.1,-4.4 -25.3,-3.06 -37.87,-4.71 -0.31,-23.65 22.31,-35.28 33.55,-53.35 11.71,-17.05 28.36,-30.48 36.53,-49.89 13.12,-27.97 43.13,-42.82 58.92,-68.67 -4.95,-10.69 -5.42,-37.08 -22.7,-29.7 -45.88,53.58 -79.19,117.69 -129.08,167.73 10.53,-35.43 16.34,-71.89 25.53,-107.55 -18.31,-1.1 -30.33,11.55 -43.6,21.76 -42.35,18.31 -72.99,53.97 -100.72,89.72 -42.19,-0.16 -84.38,0.47 -126.57,0 38.26,-36.53 78.56,-71.81 124.52,-98.68 38.18,-15.16 75.34,-33.47 110.23,-55.23 26.08,-6.76 52.25,-13.67 77.07,-24.35 44.07,-23.73 95.14,-28.28 140.87,-48 59.63,-6.76 118.55,-20.82 178.89,-17.05 49.18,6.91 98.2,15.48 148.09,16.42 25.14,9.98 48.4,24.98 76.44,25.77 41.48,2.75 76.99,26.55 117.77,31.66 17.44,4.95 34.65,11.31 52.64,14.22 -6.28,-27.42 -35.9,-40.54 -52.09,-62.22 -21.21,-0.78 -37.08,-14.22 -55.31,-23.1 -27.58,-5.19 -53.35,-18.23 -81.63,-19.8 -30.17,-116.35 -82.96,-227.52 -157.52,-322.04 -42.42,-43.13 -68.43,-99.46 -113.6,-140.24 34.25,-0.39 68.59,0.08 102.92,-0.16 20.27,37.87 52.72,71.02 59.47,114.62 8.4,26.71 28.68,46.43 44.23,68.9 4.4,-24.28 -5.89,-45.65 -14.46,-67.33 0.71,-30.48 -14.61,-57.66 -18.46,-87.36 31.19,27.89 66.15,51.3 93.8,83.12 49.58,45.33 89.56,99.15 132.38,150.53 20.74,29.07 37,61.91 64.19,85.87 0.79,-10.37 2.2,-20.58 4.32,-30.72 25.22,-55.62 57.74,-107.95 79.03,-165.22 11.16,-15.56 26.32,-27.74 38.97,-42.03 11.24,-0.16 22.47,-0.24 33.7,-0.31 10.29,-35.75 42.03,-57.27 66.54,-82.81 24.28,24.83 28.68,62.38 53.82,86.42 0.78,-20.66 1.96,-41.87 -4.4,-61.83 -6.76,-24.51 1.41,-51.15 -9.27,-74.87 11.71,-3.53 23.41,-7.31 35.28,-10.21 8.56,25.14 9.66,51.46 13.2,77.39 11.94,35.82 12.57,74.79 27.57,109.6 4.01,-36.45 -4.32,-73.93 5.66,-109.68 5.11,-19.25 1.89,-39.36 3.61,-59 4.56,-31.35 15.87,-61.75 15.79,-93.65 34.02,-16.18 72.28,-6.68 108.42,-9.59 0.71,6.91 1.96,20.66 2.59,27.57 12.41,-16.03 24.2,-32.68 33.15,-50.91zm-41.24 57.59l0 0c-6.52,10.21 -4.87,16.42 5.03,18.78 6.44,-10.21 4.79,-16.5 -5.03,-18.78zm-309.39 346.7l0 0c13.2,12.49 26.32,25.3 42.27,34.41 15.79,11.63 37.87,11.94 51.54,26.79 22.16,22.47 45.57,43.76 66.23,67.64 10.84,16.66 23.41,32.37 39.91,43.84 -9.67,-35.35 -36.06,-63.24 -49.18,-97.5 -27.66,-32.29 -49.03,-74.48 -91.68,-89.56 -20.11,-13.67 -39.68,9.51 -59.08,14.38zm-350.79 508.78l0 0c1.89,32.29 -11.23,61.59 -18.93,92.23 34.1,-0.24 68.43,2.67 102.37,-1.02 23.88,-8.41 49.26,-6.68 74.17,-6.28 -24.12,-27.66 -42.58,-60.49 -43.21,-98.05 -14.93,30.8 -27.11,63.8 -30.72,97.97 -19.72,-3.3 -47.06,8.95 -60.18,-10.45 -2.67,-27.97 -0.94,-56.1 -1.41,-84.14 -0.94,-28.44 12.57,-54.52 16.97,-82.18 -21.29,26.4 -29.15,60.26 -39.05,91.92zm1555.89 125.62l0 0c5.26,5.26 5.26,5.26 0,0zm-672.43 59.87l0 0c26.87,23.1 37.32,55.86 43.13,89.64 -34.18,-10.21 -71.26,-14.61 -106.06,-4.87 -16.89,4.64 -34.57,2.91 -51.85,3.46l0 7.7c23.41,0 46.83,-1.02 70.24,0.24 26.71,3.22 51.62,17.13 79.03,15.24 28.36,-2.43 55.62,5.74 83.04,11.31 27.34,8.09 56.72,0.47 83.75,10.53 34.65,6.99 67.64,20.35 102.37,26.95 -20.66,-19.8 -36.3,-44.7 -59.94,-61.36 -18.31,-12.26 -36.69,-24.28 -54.92,-36.53 6.44,22.47 27.26,36.61 36.22,58.06 -23.41,-0.86 -45.65,-9.66 -69.14,-9.82 -12.96,-31.27 -45.88,-45.02 -68.59,-67.64 -24.12,-24.12 -61.28,-22.08 -87.29,-42.89zm1021.41 53.27l0 0c-60.41,22.63 -126.25,33.63 -179.28,72.36 -23.1,17.21 -48.32,30.95 -74.01,43.76 -35.75,30.64 -68.51,64.27 -99.78,99.54 26.55,1.18 52.01,-6.99 78.09,-10.37 38.89,-34.65 72.75,-74.64 111.8,-109.13 16.11,-10.69 31.03,-23.02 43.6,-37.87 34.57,1.34 73.38,3.3 100.17,-22.63 12.65,-21.21 38.5,-26.48 57.43,-40.3 -12.81,-0.16 -26.08,-0.71 -38.03,4.64zm-1157.88 43.29l0 0c1.81,25.38 24.43,-11.94 0,0zm-16.03 8.56l0 0c5.34,5.26 5.34,5.26 0,0zm459.76 15.01l0 0c20.19,17.99 34.18,41.17 51.78,61.44 17.52,1.89 33.7,-11.08 51.62,-7.15 22.55,4.87 45.18,9.11 67.72,13.99 -16.89,-25.77 -33.15,-52.09 -52.4,-76.29 -39.75,-2.44 -81,-9.59 -118.71,8.01zm-557.81 90.82l0 0c11.24,23.02 29.54,42.35 36.53,67.49 -26.47,-6.76 -50.83,-19.17 -76.6,-27.81 13.43,17.13 29.78,31.98 40.85,50.83 25.61,41.87 58.53,78.72 82.57,121.62 21.29,39.05 36.92,81.39 63.56,117.37 30.48,43.13 45.33,96.87 75.89,138.9 26.24,-21.84 40.07,-54.76 64.19,-78.8 58.84,-59.16 115.02,-125.15 191.3,-162.24 24.35,-22.94 56.1,-34.25 85.09,-49.73 -53.82,-5.73 -102.61,-31.43 -152.02,-51.62 -1.41,17.76 2.67,36.61 -3.3,53.58 -8.01,12.02 -13.83,25.14 -19.01,38.58 -20.11,-63.8 -77.54,-103.55 -130.65,-138.9 11.16,16.42 27.57,28.28 39.6,43.99 13.51,25.3 26.79,50.83 37.24,77.54 -10.92,-6.52 -20.82,-15.24 -33.47,-18.38 -34.18,-11 -66.86,-28.52 -103.31,-30.4 -20.43,-0.39 -40.22,-5.73 -60.1,-9.9 -24.43,-23.25 -38.73,-55.31 -63.24,-78.72 -21.92,-24.75 -49.42,-42.97 -75.11,-63.4zm-499.04 145.58l0 0c5.34,5.26 5.34,5.26 0,0zm1135.72 334.53l0 0c-18.85,38.57 -30.8,80.21 -39.83,122.17 -8.8,-4.09 -17.52,-8.09 -25.77,-13.04 -12.57,-29.31 -37.4,-50.13 -60.18,-71.42 23.41,55.62 67.41,109.44 63.95,172.92 -17.68,17.36 -34.41,35.59 -48.4,56.09 -28.28,22 -56.88,43.76 -84.22,67.02 -2.99,-35.67 9.35,-75.5 -13.2,-106.77 -16.26,-21.68 -22.55,-48 -33.23,-72.44 -7.93,76.99 13.59,152.02 14.77,228.31 -28.36,-38.97 -37.79,-86.58 -40.7,-133.79 -8.25,19.48 -13.43,40.15 -21.92,59.63 17.05,29.7 23.72,63.87 38.18,94.83 41.32,123.82 83.04,247.48 123.58,371.53 30.41,121.38 76.52,239.23 91.21,364.15 20.66,71.57 44.86,143.22 46.9,218.33 12.73,-28.36 19.56,-59.08 23.18,-89.88 13.04,-71.89 21.45,-144.48 35.12,-216.29 5.97,-43.13 13.91,-85.79 11.55,-129.63 13.67,-41.4 1.02,-85.71 14.69,-127.12 0.86,-153.98 0.94,-308.13 0,-462.19 -11.08,-36.06 -6.6,-73.77 -7.23,-110.93 -8.72,-84.46 -28.28,-168.05 -32.45,-253.06 -22,2.51 -40.3,16.97 -56.02,31.58z"/>
   </g>
  </g>
 </g>
</svg>
