<svg id="Layer_1" data-name="Layer 1" xmlns="http://www.w3.org/2000/svg" viewBox="0 0 1450.96 1332.24"><defs><style>.cls-1{fill:#02443c;}</style></defs><path class="cls-1" d="M233.15,605.14a18.14,18.14,0,0,1,1.49,5c.83,6,1.58,12,2.11,18.09.17,2,.32,3.94.54,5.9.12,1-.27,1.41-1.27,1.33-.3,0-.61,0-.92,0l-47.75,1.08c-4.49.09-5.72,1.12-6.36,5.45-.05.3-.05.61-.08.91a76.4,76.4,0,0,0,.62,20,182.83,182.83,0,0,0,6.65,29.29,176.26,176.26,0,0,0,13.22,32c1.82,3.34,4.17,4.77,8.1,4.67,24.57-.58,49.14-1,73.71-1.44a5.45,5.45,0,0,0,5.13-3.15,140.78,140.78,0,0,0,11-26.29c4.77-15.28,8.1-30.83,9-46.84a70.9,70.9,0,0,0-.42-13.19c-.42-3.17-2.39-4.63-5.61-4.23-.84.1-1.69.16-2.54.19q-13.32.36-26.65.7l-20.39.48c-2.4.06-2.42,0-2.43-2.19a46.28,46.28,0,0,1,1.28-11,135.72,135.72,0,0,1,4.25-13.94A90.73,90.73,0,0,1,272,579.22c9.53-11.19,20.83-20,34.59-25.7A84,84,0,0,1,325,548.3c2.16-.36,2.27-.29,2.59,1.72a57.71,57.71,0,0,0,2,8.17c7,22.39,17.08,43.43,28.91,63.67,6.29,10.77,13.86,20.65,23.64,28.73,1.12.92,2.17,1.94,3.21,2.95,2.5,2.42,5.62,1.88,7.17-1.21a34.79,34.79,0,0,0,2.68-8,168.31,168.31,0,0,0,3.81-25,93.19,93.19,0,0,0-1-22,81.67,81.67,0,0,0-12.27-30.74c-10.91-16.92-26.66-26.18-47.12-27.24a78.6,78.6,0,0,0-31.33,4.94,97.38,97.38,0,0,0-40.74,28.38c-1.43,1.66-2.84,3.34-4.31,5.07-.34-.71.07-1.17.26-1.62,1.39-3.21,2.79-6.42,4.27-9.59a227.81,227.81,0,0,1,15.62-27.91,3.3,3.3,0,0,1,3.13-1.82,17.3,17.3,0,0,0,3.91-.39,51.51,51.51,0,0,0,13.43-4.81,126.08,126.08,0,0,0,46.41-41,48.92,48.92,0,0,0,7-14.31,21.13,21.13,0,0,0,1-6.73,5.07,5.07,0,0,0-7.39-4.49c-1.41.61-2.77,1.33-4.12,2.06-18.78,10.12-34.84,23.54-49,39.24a231.47,231.47,0,0,0-47.75,81.78,5,5,0,0,1-1,2.23,1.94,1.94,0,0,1-.27-1.37q-1.59-52.38-3.15-104.76c-.54-18.52-1-37-1.47-55.58a10,10,0,0,0-.49-3.59,4,4,0,0,0-3.22-2.63,3.76,3.76,0,0,0-4,1.72c-1.65,2.75-3.81,5.14-5.58,7.82-13,19.58-17.33,40.8-12.53,63.73,3,14.55,9.72,27.44,19.1,39a6.09,6.09,0,0,1,1.43,3.92c.4,15.26.86,30.52,1.29,45.78,0,.2.22.59-.24.64-.09-.09-.18-.14-.19-.2-.28-1.18-.56-2.36-.83-3.54a267.52,267.52,0,0,0-18.45-55c-6.46-13.69-14.25-26.59-24.33-38-7.8-8.86-16.66-16.47-27.32-21.87-15.1-7.64-30.82-9.34-47.11-4.34-11.55,3.55-21.46,9.89-30.4,17.79-1.32,1.16-2.6,2.38-3.84,3.62a3.82,3.82,0,0,0-.87,4.43,4.21,4.21,0,0,0,3.61,2.49,8.05,8.05,0,0,0,1.39,0c3.4,0,6.79-.06,10.19.08A161.09,161.09,0,0,1,121,492.7a211.52,211.52,0,0,1,53.7,16.52c13.42,6.18,26,13.61,37.23,23.24a9.79,9.79,0,0,1,2.69,3.62A260,260,0,0,1,225.57,567a143.43,143.43,0,0,1,3.63,15.05,119,119,0,0,0-11.15-11,87.71,87.71,0,0,0-52.35-20.54,77.25,77.25,0,0,0-24.73,2.7c-17.15,4.66-31.22,13.8-41.25,28.34C87.13,599.86,84.36,619.8,90.24,641a71,71,0,0,0,5.06,12.94,4.62,4.62,0,0,0,3.14,2.79c3.42.77,6.61.71,8.9-2.48a13.28,13.28,0,0,1,1.29-1.31,168.54,168.54,0,0,0,25.47-33.48c10.78-18.34,19-37.62,22.41-58.69.3-1.88.35-1.93,2.35-2A77.72,77.72,0,0,1,182,561.44C205.84,568.3,223.13,582.62,233.15,605.14Zm135.63-45.6a50.09,50.09,0,0,1,11,13.36c4.59,8.2,8.44,16.7,9.95,26a87.84,87.84,0,0,1,.54,23.58c-.14,1.21-.28,2.41-.44,3.61a3.58,3.58,0,0,1-.4.81c-5.39-25-12.69-49.1-26.25-71.43A31.36,31.36,0,0,1,368.78,559.54Zm-32.17-12,6.9.66c.44,0,1,0,1.24.44.84,1.5,2.45,2,3.75,2.94a22.67,22.67,0,0,1,4.41,4.34c5,6.23,8.69,13.24,11.95,20.46a235.89,235.89,0,0,1,14,41.84c1.62,6.71,2.93,13.49,4,20.31.06.36.06.73.1,1.31a10,10,0,0,1-2.95-2.7,126.33,126.33,0,0,1-16.22-22.66,359.79,359.79,0,0,1-18.54-37.64,204.44,204.44,0,0,1-9-25.8,18.58,18.58,0,0,1-.5-3.09A.74.74,0,0,1,336.61,547.55Zm10.56-71.66a3.72,3.72,0,0,1-.58,2.56,59,59,0,0,1-7.39,12.06,122.21,122.21,0,0,1-36.65,32,57.88,57.88,0,0,1-10.72,4.79,1.53,1.53,0,0,1-1.41,0C306,506.69,324.28,489,347.17,475.89Zm-123.23,0a69.63,69.63,0,0,1,10.84-35.38c1.12,26.83,1.58,53.63,2.35,80.49C228,507.25,223.43,492.24,223.94,475.86Zm20.7,167.61v-.05L297,642.26c2.85-.06,2.87-.06,2.9,2.82.1,11.22-1.59,22.23-4,33.16A177.16,177.16,0,0,1,285.05,712c-.83,1.88-1.85,3.67-2.66,5.56a2.67,2.67,0,0,1-2.84,1.72q-16.35.15-32.68.44c-11.67.19-23.33.37-35,.72-2.3.07-3.37-.71-4.37-2.64a175,175,0,0,1-13.11-34.46,153.89,153.89,0,0,1-5.28-28.85,57.14,57.14,0,0,1-.12-7.74c.12-2,.13-2,2.12-2.07,5.48-.16,11-.29,16.45-.42ZM101.2,482.19c.22-.42.25-.59.36-.67,8.77-6.72,18.47-11.51,29.53-13.28,11.35-1.81,22.09.27,32.3,5.29,9,4.44,16.6,10.74,23.38,18a132.93,132.93,0,0,1,17.16,23.39c.16.26.27.54.64,1.31A216.52,216.52,0,0,0,101.2,482.19Zm-3,154.9c-6.46-21.81.57-47.13,18.89-62C107,594.64,100.35,615.18,98.18,637.09Zm49.58-75a139.6,139.6,0,0,1-9.2,30,183.55,183.55,0,0,1-29.84,48.49c-.45.52-.93,1-1.41,1.51-.08.08-.26.07-.55.13a12.94,12.94,0,0,1,0-3.78,151.21,151.21,0,0,1,22.32-66.83c1.24-2,2.72-3.87,4-5.83a5.84,5.84,0,0,1,3-2.33,88.21,88.21,0,0,1,10-3C147.9,560.05,148.09,560.26,147.76,562.1Z" transform="translate(-19.63 -123.74)"/><path class="cls-1" d="M548.81,437.73c-1.45.89-2.79,1.92-4.16,2.92-4.38,3.23-8.7,6.52-13.12,9.7q-10.17,7.31-20.43,14.5c-2.21,1.55-4.51,3-7.1,4.73,0-1.78.87-2.64,1.43-3.6,5-8.58,9.9-17.22,14.07-26.18,1.11-2.39.59-4.06-1.35-5.07s-3.46-.61-5.23,1.25c-1.22,1.29-2.31,2.7-3.5,4-5,5.55-10.47,10.78-15.87,16s-10.89,10.42-16.37,15.6c-.62.58-1.17,1.44-2.58,1.41,1.31-4.62,2.56-9,3.84-13.45A98.81,98.81,0,0,0,481.8,442c.31-3-.77-4.68-3.12-5.05-2.09-.33-3.73.94-4.7,3.55-.77,2.06-1.5,4.13-2.43,6.13-7,15-15,29.45-23.2,43.87a20.86,20.86,0,0,1-3,3.91c-1.75,1.84-1.82,1.79-4.1.19-7.86-5.5-17.07-5.12-24.54,1a62.37,62.37,0,0,0-7.86,7.81c-9.33,10.84-14.67,23-15.37,36.92a13.66,13.66,0,0,0,4.76,11.38c8.76,8.12,17.52,16.25,25.94,24.66a16.48,16.48,0,0,0,13.61,4.94A98.14,98.14,0,0,0,453.63,579c9.2-2.14,18.19-4.87,26.34-9.5,10.84-6.16,14.36-16.31,9.23-27-.86-1.78.23-2.22,1.27-3a147.87,147.87,0,0,1,21.65-12.82c12-6,25-9.73,38-13.42a14.15,14.15,0,0,0,3.83-1.33,3.59,3.59,0,0,0,2-3.79,3.42,3.42,0,0,0-2.79-2.9,30,30,0,0,0-3.28-.59,117.29,117.29,0,0,0-23.47-.86c.74-1,1-1.55,1.41-2,6.73-7.25,13.67-14.28,22.09-20,3.52-2.38,7.19-4.55,10.78-6.82,2-1.27,2.56-2.82,2-4.42s-2.18-2.41-4.51-2.33c-.49,0-1,.1-1.48.16a98.2,98.2,0,0,0-24.54,5.8c-1,.37-2,.65-3.43,1.12a39.8,39.8,0,0,1,5.21-8.41c5.66-7.71,12.42-14.63,18.71-21.89a24.73,24.73,0,0,0,1.83-2.17c1.41-2.05,1.33-3.61-.14-5S551,436.42,548.81,437.73Zm-23.34,26c.3-.2.61-.38.92-.57l.31.33c-2.57,4.16-5.4,8.2-7.62,12.5a14.9,14.9,0,0,1-8,7.11,121.8,121.8,0,0,0-23.76,13.48,2.3,2.3,0,0,1-2.33.69c1.64-2.31,3.35-4.46,4.76-6.76a26.88,26.88,0,0,1,10.93-10.3C509.58,475.62,517.3,469.37,525.47,463.76ZM471.38,487c8.95-7.82,17.53-16,26-24.26a1.44,1.44,0,0,1,1-.35c-10.27,17.13-20.25,34.44-36.63,47.75q1.16-2.62,2.33-5.25c2.11-4.79,3.55-9.77,5.27-14.68A6.87,6.87,0,0,1,471.38,487ZM451,499.37a44.71,44.71,0,0,0,6.54-9.53c2.39-4.2,4.74-8.43,7.21-12.83a2.2,2.2,0,0,1,0,2c-2,7.18-4.43,14.26-7,21.29-.6,1.62-1.33,3.2-2.09,4.76-1.59,3.26-1.77,3.28-4.41.87C447.75,502.76,447.73,502.75,451,499.37Zm5.36,71.54a104.73,104.73,0,0,1-19.08,3.28,8.89,8.89,0,0,1-7.35-2.58q-13.64-13.17-27.31-26.33a4,4,0,0,1-1.41-3,48.39,48.39,0,0,1,4.9-21,5.21,5.21,0,0,1,.83-.86c2.69,4.37,7.07,6.73,11.62,8.87,1.66.78,3.35,1.51,5.09,2.13a6.66,6.66,0,0,1,4.79,5.19c1.33,6.4,5.14,11,11.95,13.36a43.66,43.66,0,0,1,4,1.8c3.06,1.4,5.13,3.47,5.81,6.68a15.13,15.13,0,0,0,5.37,8.44c1.1.92,2.16,1.87,3.27,2.84C458.28,570.65,457.23,570.67,456.35,570.91ZM467,565.15c-4.92-1.87-8.5-4.55-9.63-9.56-1-4.29-3.77-7.37-7.9-9.44-2.29-1.15-4.63-2.21-7-3.22-3.26-1.39-5.64-3.62-6.15-6.85-1-6.46-5.2-10.05-11.57-12.12-2-.63-3.73-1.78-5.64-2.6a9.88,9.88,0,0,1-3.49-2.53c-3.29-3.75-5.58-7.55.58-11.8,2.44,5.81,7,9.3,12.74,11.7,1.24.51,2.4,1.18,3.61,1.76a12.05,12.05,0,0,1,6.76,7.36c1.91,6,6.23,10.15,12.37,12.45a17.4,17.4,0,0,1,10.45,9.57c2.38,5.28,6.5,9.39,11.64,12.62a13.11,13.11,0,0,1,1.22,1.06C472.57,565.6,470.28,566.4,467,565.15Zm15.25-7.77c-.74.94-1.48.45-2.27.11a22,22,0,0,1-10.44-9.88c-.69-1.21-1.33-2.45-1.94-3.69a17.86,17.86,0,0,0-9.54-8.73L455,533.92c-4.16-1.73-7.15-4.38-8.45-8.55-1.59-5.13-5.32-8.64-10.3-11.18-2.71-1.38-5.53-2.56-8.15-4.13-3.32-2-4.47-5-5.49-8.24a1.74,1.74,0,0,1,.87-2.06,8.8,8.8,0,0,1,11.59.73q11.21,11,22.47,22c8,7.37,15.53,15.12,23.63,22.39C484,547.43,484.58,554.45,482.26,557.38Zm47.32-46.55c.48,0,1,0,1.46,0-6.5,2.71-13.07,5.07-19.37,8-9.21,4.33-18.11,9.11-26.13,15.17-2.74,2.06-2.79,2-5.34-.45-1.55-1.48-3-3-4.62-4.47-1.21-1.09-.93-1.82.28-2.72a50.49,50.49,0,0,1,10.51-5.85A121.62,121.62,0,0,1,529.58,510.83Zm9.86-31.15c-.17,1-1,1.29-1.57,1.78a159.23,159.23,0,0,0-20.65,21.24,7.18,7.18,0,0,1-4.83,2.79,133.66,133.66,0,0,0-30.15,8.91,12.4,12.4,0,0,0-4.13,2.3,3.56,3.56,0,0,1-3,.91C484.05,504.73,519.5,483.89,539.44,479.68Z" transform="translate(-19.63 -123.74)"/><path class="cls-1" d="M499.16,952.84c1.35-2.14.87-3.88-1.5-5.22a21.84,21.84,0,0,0-5.72-2c-12.57-3.06-25.08-2.46-37.55.65-8.88,2.22-16.6,6.07-22.53,12.22-5.09,5.29-10,10.69-12.17,17.5-1.11,3.51-3.84,6-7.2,8.16-1.67-4.26.58-7.31,3.25-10.31,8.41-9.44,12-20.3,12.14-31.93.19-14.82-5.35-28.27-14.25-40.77a12.17,12.17,0,0,1-2.33-4.81c-1-5.07-5.23-6.2-9.88-2.78a22.1,22.1,0,0,0-5.87,7.08c-6.08,10.43-10.17,21.36-10.62,33.05-.59,15.3,3.55,29.3,16.14,40.77.81.74,1.7,1.43,1.69,2.56,0,2.34,0,4.67,0,7.24-3.49-1.63-3.51-1.63-4.39-3.85a36.79,36.79,0,0,0-5.42-9.48,71.11,71.11,0,0,0-26.72-20.48,66.33,66.33,0,0,0-35-5.81c-5,.53-9.92,1.39-14.38,3.55-4.64,2.26-5.53,4.9-2.93,8.84a26.2,26.2,0,0,0,3.19,3.6c10.19,10.43,23.24,17.3,37.9,22.14,10.85,3.58,22,5.64,33.76,4.16a4,4,0,0,1,2.88.53,61.18,61.18,0,0,1,9.71,7.32c-6.14.34-11.44.61-16.73.93a27.42,27.42,0,0,0-5.24.72c-4.07,1-6.15,3.47-6.6,6.88a23.1,23.1,0,0,0,.22,6,7.48,7.48,0,0,0,3.77,5.35c2.84,1.79,2.91,2.3,1.2,4.84a22.35,22.35,0,0,1-3.9,4.13c-1.55,1.37-3.17,2.68-4.61,4.13-3.28,3.3-6.33,6.88-7.56,11a68.37,68.37,0,0,0-2.53,24.45c.54,7.71,1.67,15.31,4.78,22.63,1.81,4.27,5.36,6.4,10.39,7.2a72.28,72.28,0,0,0,15.9.28c13.14-.84,26.29-.79,39.43-.59a126.32,126.32,0,0,0,15.46-.6c8-.85,12.33-5.11,12.41-12,0-2.52.15-5,.36-7.57a184,184,0,0,0,.75-24.62c-.55-11.09-5.18-20.36-16-27a28.57,28.57,0,0,1-3-2.19,7.2,7.2,0,0,1-2.28-3.18,1.67,1.67,0,0,1,.61-2.34c4.33-3,4.62-7.18,4-11.43-.6-3.88-3.35-5.94-7.86-6.54-5-.66-10-.29-15.05-.28-1.06,0-2.35.48-3.27-.7a35.64,35.64,0,0,1,4.91-5.78,3.64,3.64,0,0,1,3.87-1.05c3.78.85,7.64.45,11.44-.1a132.78,132.78,0,0,0,31-8.82,55.37,55.37,0,0,0,17.11-10.72c4.61-4.3,9-8.79,13.42-13.21A11.21,11.21,0,0,0,499.16,952.84Zm-97,9.15c-9.74-10.58-11.39-34.85-.59-53.12C402.5,911,403,957.88,402.15,962Zm-69.79.28c15.4,3.68,30,8.8,43.2,16.68C359.08,977.32,345,971.26,332.36,962.27Zm-.86-8.95c12.68-4.49,39.81,4.76,50.68,19.35C366,963.79,349.27,957.83,331.5,953.32Zm80.55-36.09c8.38,12,8.74,34.28.82,45.13C411.84,960.13,411.14,921.77,412.05,917.23ZM448.76,1044c1.24,5,1,10,.78,15-.35,7.19-1,14.38-1.52,21.56-.21,2.91-.45,3.19-3.69,3.84a44.9,44.9,0,0,1-8.82.58c-6.8,0-13.59-.22-20.38-.23-9.16,0-18.31.25-27.45,1a97.44,97.44,0,0,1-11.06-.25,4.45,4.45,0,0,1-4.12-2.94,37.61,37.61,0,0,1-2.64-9.17,73.13,73.13,0,0,1-.72-24.91c.11-.75.32-1.49.42-2.24.2-1.5,1.16-1.85,2.77-1.54,3.45.68,6.88,1.44,10.37,1.89,21.82,2.79,43.51,2.6,65-2.58A6.86,6.86,0,0,1,448.76,1044Zm-11.21-16.4a27.33,27.33,0,0,1,8.8,8.61c-24.51,5.69-48.53,5.47-72.92.75,1.12-2.51,2.93-4,4.65-5.57a60.93,60.93,0,0,0,6.52-6.21,18.29,18.29,0,0,0,3.21-5.39c1.29-3.59,1.28-3.51,5.43-3.73,10.78-.57,21.56.38,32.33-.08,1.61-.07,2.46.43,2.91,1.71C430,1022,433.39,1025,437.55,1027.57Zm-7.8-24.55c1.35,0,3.13-.39,3.22,1.63.09,1.84-.56,2.65-3.1,2.92-5.14.56-10.33.43-15.49.52l-7.53.17c-7.25-.3-14.48-.1-21.71.22-2.65.11-3.13-.38-3.26-2.5-.07-1.19.27-1.93,1.86-2,1.77-.09,3.52-.36,5.29-.45C402.6,1002.78,416.18,1003.28,429.75,1003Zm37.17-50.6c-9.95,3.92-19.69,8.16-29.16,13C444.72,956.64,455.17,953.45,466.92,952.42Zm-34,26.69a142.33,142.33,0,0,1,49.21-22.26C477,967.21,449.4,979.7,432.91,979.11Z" transform="translate(-19.63 -123.74)"/><path class="cls-1" d="M332.89,878.14a81.61,81.61,0,0,0-1.69-9.72,3.55,3.55,0,0,1,.25-2.57A72.62,72.62,0,0,0,337,850.94a6.81,6.81,0,0,1,1-2.28,3.46,3.46,0,0,0-.26-4.41,15.86,15.86,0,0,0-2-2.13c-2.65-2.36-5.35-4.68-8-7-.56-.5-1.07-1.06-1.68-1.68a4.69,4.69,0,0,1,2.31-.07c1.82.17,3.65.37,5.47.42,3.18.1,5.64-1.84,5.69-4.8a97.19,97.19,0,0,0-.47-14.37c-.18-1.37-.74-2.71-.61-4.25,2.19,1,4.18,2,6.24,2.87,6.44,2.67,13.09,4.29,20.25,3.56a25.8,25.8,0,0,0,14.24-5.86,27.71,27.71,0,0,0,8.56-13.2A45.29,45.29,0,0,0,389.57,781a26.55,26.55,0,0,0-.47-5.11,3.89,3.89,0,0,0-3.91-3.25,9,9,0,0,1-1.72-.29L370.71,769c3.38-1,6.06-2.38,9.11-2.84,2.4-.36,3.76-1.84,3.68-4.11a11.32,11.32,0,0,0-.24-1.83,65.24,65.24,0,0,0-6.46-17.82,40.1,40.1,0,0,0-5.53-8.13,28.23,28.23,0,0,0-15-9.13,16.34,16.34,0,0,0-14.54,3.27,22.42,22.42,0,0,0-5.86,6.87,49.19,49.19,0,0,0-3.34,8.06,5,5,0,0,1-1.74-1,28.65,28.65,0,0,0-9.5-4.14c-10.45-2.29-20.22-.44-29.34,4.61a48.61,48.61,0,0,0-13.75,11.43c-1.15,1.36-1.14,1.29-2.41.07a39.69,39.69,0,0,0-6.74-5.25c-8-4.84-16.27-5.82-24.93-1.53a3.24,3.24,0,0,1-1.84.64,27.71,27.71,0,0,0-.68-3c-2.22-6.65-6.32-11.65-13.88-13.56a25.46,25.46,0,0,0-15.26,1.1c-13.19,4.78-23.13,13.27-31.37,23.75a7.27,7.27,0,0,0-.59.86c-1.65,2.7-.72,5,2.36,6,2.88,1,5.73,2.06,8.58,3.13.41.16,1.08.14,1,.83-3.57.42-7.13.83-10.68,1.27a50.52,50.52,0,0,1-7.84.84,5.11,5.11,0,0,0-4.5,2.06,32.23,32.23,0,0,0-5.57,10,21.06,21.06,0,0,0-1.11,8.51c.58,6.41,3.91,11.39,9.25,15.24s11.67,5.88,18.27,7.12c1.48.28,3.06.18,4.43.82.06.54-.3.83-.54,1.16A48,48,0,0,0,188,825.9a66.71,66.71,0,0,0-4.07,19.28,57.6,57.6,0,0,0,1.4,17.36c.77,3.23,3.26,4.32,6.43,2.93,2.79-1.22,5.55-2.5,8.33-3.74a2.35,2.35,0,0,1,1.68-.43c-.52.74-1,1.37-1.4,2-3.13,4.31-6.31,8.6-9.18,13.07a8.21,8.21,0,0,0-1.16,6.49,23.07,23.07,0,0,0,4.88,9.34,15.19,15.19,0,0,0,9.19,5.56,16.86,16.86,0,0,0,8-.52c2.29-.7,4.5-1.57,6.84-2.53.25,1.19.5,2.18.65,3.19a91.67,91.67,0,0,0,6.32,23c5.5,12.88,12.31,25,23,34.86,3.51,3.25,2.65,3.46,8.29,3.28,13.2-.43,26.4-.63,39.6-.92a6.66,6.66,0,0,1,2.18.12,4.52,4.52,0,0,0,5.15-1.83c.89-1.09,1.73-2.21,2.61-3.31,11-13.64,19.34-28.43,23.38-45.19C332.5,898.09,333.81,888.21,332.89,878.14Zm-5.5-123.8c1.4.4,2.74,1,4.11,1.45a5.58,5.58,0,0,0,7.61-4.49,32.89,32.89,0,0,1,4.65-13.82,10,10,0,0,1,1-1.34c3.82-4.24,7.21-5,12.65-2.75a21.18,21.18,0,0,1,8.35,6.51c3.39,4.12,5.45,8.87,7.33,13.71.63,1.6,1.07,3.26,1.54,4.92.25.88-.06,1.27-.87,1.53-1.86.61-3.72,1.24-5.6,1.83l-10.43,3.19c-.35.1-.69.23-1,.34-2.58.87-3.74,2.14-3.66,4.05s1.3,3.15,3.93,3.84c7.32,1.92,14.66,3.79,22,5.69,2.57.67,2.59.7,2.65,3.15a37.84,37.84,0,0,1-2.14,14.78,21.42,21.42,0,0,1-3.22,5.82A17.45,17.45,0,0,1,362,809.44a34.25,34.25,0,0,1-13.55-2.8A61.56,61.56,0,0,1,336.4,800,10.57,10.57,0,0,0,334,798.5a2.12,2.12,0,0,1-1.2-1.13c-2.19-4.25-5.86-7.08-10.12-9.41a40.84,40.84,0,0,1-13.31-11.75,25.8,25.8,0,0,1-4.51-9.29,13.93,13.93,0,0,1-.2-5.92c.78-4,4-6.8,8.66-7.76C318.17,752.24,322.81,753,327.39,754.34Zm-44.3,6.4c6.64-8.44,14.87-14.48,26.42-15.75a31.82,31.82,0,0,1,7.62.18c-1.85.33-3.71.38-5.55.75-10.07,2-16.26,10.19-15,19.73,1,7.59,4.87,13.8,10.09,19.43.57.61,1.17,1.21,1.79,1.86a3.72,3.72,0,0,1-.78.53,24,24,0,0,0-11.88,9.39c-1.53,2.17-.93,2.26-3.48.56a2.22,2.22,0,0,1-1.1-2.23A54.89,54.89,0,0,0,283,763.53,2.15,2.15,0,0,1,283.09,760.74Zm-5.18,11.2c0-.11.17-.18.37-.38a46.23,46.23,0,0,1,4.91,21.38c-2.32-.12-4.43-.88-6.61-1.18a1,1,0,0,1-.85-1.06C275.32,784.33,275.25,778,277.91,771.94Zm-35.15-14.36a18.62,18.62,0,0,1,13.64-5.16,17.68,17.68,0,0,1,8.11,2.88,33.08,33.08,0,0,1,7.49,6.28,1.64,1.64,0,0,1,.53,2c-2.26,5.57-4.47,11.16-4.94,17.35-1.27-.6-2.22-1-2.27-2.49-.15-5.17-2.69-9.28-6.73-12.66A31.81,31.81,0,0,0,244.05,759a5.13,5.13,0,0,1-1.86-.54A1.33,1.33,0,0,1,242.76,757.58Zm9.6,40.88a29.06,29.06,0,0,0,10.72-10.68,19.22,19.22,0,0,1,3.24,3.85c.52.74.45,1.14-.5,1.53a19.64,19.64,0,0,0-7,5.18c-3,3.27-4.15,7.17-4.68,11.32-.12,1,0,2.08-.49,2.79s-1.91.38-2.88.47a45,45,0,0,0-14.8,4.31,2.41,2.41,0,0,1-1.36.38,29,29,0,0,1,.79-6.42c.37-1.88,1-3.71,1.37-5.59.26-1.38,1.05-1.9,2.44-2.17A41.67,41.67,0,0,0,252.36,798.46ZM241.49,795c2.2-4,4.43-7.34,8.29-9.43a11.2,11.2,0,0,1,4.51-1.5c.48,0,1.06-.36,1.39.18s-.16.77-.37,1.11a18.61,18.61,0,0,1-4.72,5.1A27.24,27.24,0,0,1,241.49,795Zm-58.19,7.71a25.34,25.34,0,0,1-8.12-4.79,12.51,12.51,0,0,1-4-12.78,22.32,22.32,0,0,1,3-6.8,2.49,2.49,0,0,1,1.7-1.1,100.18,100.18,0,0,1,12.57-1.83c5-.59,10-1,14.91-2.43a13.46,13.46,0,0,0,3.26-1.21c2.89-1.67,3-5,.14-6.77a14.53,14.53,0,0,0-1.94-1c-4.51-1.95-9-4-13.62-5.68a10.06,10.06,0,0,1-1.07-.52c3.77-4.28,7.61-8.32,12.36-11.49,5-3.32,10.24-6.28,16.25-7.56,7.71-1.64,13.34,1.93,15.19,8.9a11.37,11.37,0,0,1-.25,5.09,23.25,23.25,0,0,1-2.63,7.16c-1.37,2.44-.47,4.76,2,5.85a2.93,2.93,0,0,0,2.13.28c2.59-1,5.09-.16,7.54.35a21.5,21.5,0,0,1,12.38,6.92,5.18,5.18,0,0,1,1.5,2.93c-1.43.26-2.83.12-4.2.4a22.71,22.71,0,0,0-13.87,8.44,56.39,56.39,0,0,0-10.5,22,9.6,9.6,0,0,1-.94,3c-.83-.83-1.48-1.54-2.21-2.18a18.89,18.89,0,0,0-8.8-4.38,17.72,17.72,0,0,0-11.49,1.67,6.33,6.33,0,0,1-3.13.7C195.28,805.68,189.14,804.94,183.3,802.69Zm33,84.71a33.46,33.46,0,0,1-7.48,2.91,6.52,6.52,0,0,1-6.12-1.34,16.4,16.4,0,0,1-4.77-7.49c-.29-.81.21-1.31.57-1.88,3.06-4.77,6.51-9.3,9.83-13.9,2.46-3.42,4.9-6.84,7.35-10.26a9,9,0,0,0,1.41-2.55,3.61,3.61,0,0,0-1-4,4.07,4.07,0,0,0-4.45-.85c-.67.27-1.34.54-2,.87-5.22,2.66-10.65,4.9-15.94,7.42a1.56,1.56,0,0,1-1.34.2c-.17-1.81-.48-3.65-.51-5.48a58.3,58.3,0,0,1,5.09-25.87,30.48,30.48,0,0,1,8.43-11.41,14,14,0,0,1,3.31-2,9.56,9.56,0,0,1,10.09,1.11,14.34,14.34,0,0,1,2.62,2.48,24.44,24.44,0,0,1,5,9.92,4,4,0,0,0,5.72,2.72,31.4,31.4,0,0,0,3.58-2,42,42,0,0,1,13.5-5.3,22.29,22.29,0,0,1,4.16-.31,1,1,0,0,1,1.14.93,90.67,90.67,0,0,0,5.58,17.05,2.65,2.65,0,0,1-.32,2.34,61.79,61.79,0,0,1-9.34,14.84,247.11,247.11,0,0,1-23.2,23.94A59.4,59.4,0,0,1,216.28,887.4ZM323.8,899.34c-3.2,18.66-11.81,35-24,49.92a3.65,3.65,0,0,1-3.11,1.46q-19.47.36-38.93.88a4.41,4.41,0,0,1-3.43-1.35c-7.74-7.21-13.2-15.82-17.76-25a92.43,92.43,0,0,1-9.16-29c-.22-1.63-.64-3.23-.94-4.85a1.79,1.79,0,0,1,.71-2c8.08-6.11,15-13.33,21.79-20.61,5.88-6.24,11.57-12.6,15.61-20.08a3.37,3.37,0,0,1,.42-.5c.79.42,1,1.19,1.4,1.81a43.57,43.57,0,0,0,7.13,8.82,15.84,15.84,0,0,0,4.05,2.78,5.11,5.11,0,0,0,5.19-.27c2.19-1.38,4.41-2.72,6.62-4.08a4.74,4.74,0,0,1,1.75-.94c.28.85-.2,1.6-.4,2.35q-1.56,5.66-3.26,11.28a3.35,3.35,0,0,0,1,3.61c5.56,5.32,11.88,9.41,20.21,9.56a20,20,0,0,0,12.87-4.58c.9-.69,1.75-1.43,2.73-2.24a2.41,2.41,0,0,1,.54,1.74A89.9,89.9,0,0,1,323.8,899.34Zm5.59-50.68a63.38,63.38,0,0,1-4.55,12.64c-1.56,2.91-3,5.94-5.25,8.49a21,21,0,0,1-4.65,4,11.92,11.92,0,0,1-9.24,1.44,23.32,23.32,0,0,1-8.93-4.67,1.38,1.38,0,0,1-.59-1.43,19.6,19.6,0,0,1,.57-2.61c1.42-4.54,2.76-9.09,3.83-13.71.24-1,.4-2,.57-3a4.89,4.89,0,0,0-.06-2.05,4.45,4.45,0,0,0-6.9-2.79c-2.42,1.43-4.69,3.07-7,4.62-1.74,1.14-3.46,2.32-5.24,3.4-2.06,1.25-1.68,1.56-3.7-.48a32.83,32.83,0,0,1-4.63-6c-1.22-1.95-2.35-3.94-3.51-5.92a6.86,6.86,0,0,1-1.15-2.86,2.13,2.13,0,0,0-.58-1.31,9.77,9.77,0,0,1-2.12-4c-1.4-4-3-7.87-3.72-12a28.55,28.55,0,0,1,.32-13.44,11.59,11.59,0,0,1,6.31-7,10.09,10.09,0,0,1,5.76-.76,27.54,27.54,0,0,1,13.73,5,21.49,21.49,0,0,1,4.17,4.19,4.61,4.61,0,0,0,3.57,2.1c2.52.12,4.46-1.65,4.11-4a4.4,4.4,0,0,1,.35-2.79c2.46-4.74,5.89-8.49,11.64-9.88a8.36,8.36,0,0,1,6.13.6,16.45,16.45,0,0,1,7.55,7.19c3.12,6.2,5.32,12.59,5.2,19.87,0,.9,0,2.13.09,3.36.05,1-.29,1.31-1.41,1.17-2.17-.28-4.38-.31-6.55-.6-2.48-.34-5-.17-7.46-.38a4.35,4.35,0,0,0-4.41,2.16c-.93,1.66-.49,3.17.68,4.58a31.27,31.27,0,0,0,3.56,3.34c4.24,3.68,8.46,7.39,12.74,11A2.13,2.13,0,0,1,329.39,848.66Z" transform="translate(-19.63 -123.74)"/><path class="cls-1" d="M648.7,768.69c-.36,3.82,2,6.11,5.64,5.65a5.83,5.83,0,0,0,4.78-3.75,109.29,109.29,0,0,0,6.51-17.81,141.25,141.25,0,0,0,3.81-52.33,117.46,117.46,0,0,0-7.61-31.3,75.41,75.41,0,0,0-13.13-21.92,4.39,4.39,0,0,0-4-1.79c-2,.2-4,.08-6,.22a3.27,3.27,0,0,1-2.95-1.3c-4-4.66-8.12-9.25-12.19-13.88-1.13-1.29-2.24-2.61-3.46-4,.95-.77,1.69-1.41,2.46-2A137,137,0,0,1,646.64,609c2.69-1.34,5.36-2.72,8-4.19a4.51,4.51,0,0,0,2.31-5.11,4.36,4.36,0,0,0-4-3.52c-3.2-.32-6.41-.7-9.63-.79a92.63,92.63,0,0,0-40.91,8.29c-1.26.57-2.08.59-3.09-.6-3.83-4.5-7.79-8.88-11.68-13.32-.64-.73-1.22-1.51-1.78-2.2a3.57,3.57,0,0,1,.38-.61c.23-.24.48-.45.73-.67a84.32,84.32,0,0,1,23.86-15.19,10.61,10.61,0,0,0,2.6-1.32,4.57,4.57,0,0,0,.82-6.52,6.44,6.44,0,0,0-4.39-2.43,65.85,65.85,0,0,0-15.43.49A85.85,85.85,0,0,0,571,568c-1.85.82-1.87.82-3.23-.72q-14.52-16.47-29-33a10.5,10.5,0,0,1-2.31-3.53,3.72,3.72,0,0,0-4.07-2.54,5.08,5.08,0,0,0-4.4,2.68,20,20,0,0,1-2,2.85L518,543.7Q503.29,562,488.62,580.29a2.4,2.4,0,0,1-2.67,1.15,39.67,39.67,0,0,0-7.42-1c-5.16-.31-10.29-.29-15.25,1.61-1.92.73-3.22,1.91-3.36,4.16a4.47,4.47,0,0,0,3.09,4.65,61.8,61.8,0,0,1,9.93,5.81c.51.34,1.18.55,1.37,1.42-2,2.51-4.05,5-6.05,7.57a1.21,1.21,0,0,1-1.66.44c-1.57-.66-3.17-1.25-4.78-1.8-13.41-4.55-27-7-41.15-5a44.77,44.77,0,0,0-8.88,2.3,4.34,4.34,0,0,0-3,4.2,4.55,4.55,0,0,0,2.82,4.36,16.45,16.45,0,0,0,1.83.63,110.46,110.46,0,0,1,33.16,17.53c.68.52,1.51.92,1.91,1.89-5.25,6.54-10.47,13-15.65,19.51a2.43,2.43,0,0,1-2.09,1c-2,0-4,.08-6,.14a4.94,4.94,0,0,0-4.13,2.24,98.93,98.93,0,0,0-11.25,20.74,134.19,134.19,0,0,0-8.4,61.73,104.94,104.94,0,0,0,5,23.35c2.25,6.76,6,12.58,9.58,18.56a3.86,3.86,0,0,0,4.49,1.71,4.37,4.37,0,0,0,3.17-3.77,9.38,9.38,0,0,0-.06-2.8c-.63-3.45-.62-7-.91-10.42a44.2,44.2,0,0,1,.19-10.67c.66,1,1,1.5,1.4,2a129.44,129.44,0,0,0,30.8,33.33c21.89,16.53,46.4,24.87,73.13,26a118.14,118.14,0,0,0,17.63-.65A128.33,128.33,0,0,0,564.15,809q53-13.89,84.44-61.13c.34-.51.52-1.23,1.4-1.51,0,.64.12,1.2.14,1.76a106.21,106.21,0,0,1-.51,12.49C649.38,763.3,649,766,648.7,768.69ZM622,642.33c.92,1,1.81,2.1,2.72,3.15-.08.18-.15.37-.23.55l-14.71.33c-2.17,0-4.35.13-6.52.12-1.28,0-1.47-.39-.68-1.51a90.5,90.5,0,0,1,10.09-11.64c.67-.67,1.07-.35,1.57.22C616.81,636.49,619.41,639.4,622,642.33Zm4.55,32c-1.44,0-2.77.08-4.1.08-2.57,0-5.15,0-7.72,0-1,0-1.6-.18-1.84-1.41a90.57,90.57,0,0,0-3.48-12.75C613.66,661.11,624.15,669.68,626.54,674.35Zm-33.59,13c-3.33-10.68-8.09-20.59-15.12-29.17a56.35,56.35,0,0,0-8.86-8.68c-.29-.23-.73-.4-.63-1,.51-.45,1.18-.25,1.78-.27,6.37-.19,12.74-.31,19.1-.54a3.85,3.85,0,0,1,3,1.27c6.87,6.37,9.56,15,11.62,23.9,2.7,11.68,3.08,23.57,2.42,35.52A135.22,135.22,0,0,1,601,738.87c-.19.65-.39,1.29-.61,1.93,0,.15-.2.25-.6.75,0-.84-.06-1.35,0-1.86C600.21,721.85,598.25,704.35,593,687.34ZM578.34,675l-6,.13c-3.55.07-7.09.12-10.63.23-.93,0-1.53-.16-1.68-1.26a136.37,136.37,0,0,0-5-21.52c0-.13.09-.31.2-.66C565.7,656.43,572.65,664.66,578.34,675Zm36.5-66.26a75.53,75.53,0,0,1,16.52-3.51,3.3,3.3,0,0,1,2.42.3c-4.47,2.78-8.63,5.5-12.63,8.49A122.7,122.7,0,0,0,596,638.8c-.78,1-1.43,1.5-2.55.51s-2.38-.9-3.69-.86c-5.63.14-11.27.25-17,.38-.08-1.15.74-1.68,1.27-2.32A87.12,87.12,0,0,1,614.84,608.77Zm-22.4.06a105.14,105.14,0,0,0-14.37,10.5,93.66,93.66,0,0,0-15.9,18.06A9.36,9.36,0,0,1,561,639a1.42,1.42,0,0,1-1.61.15c-.53-.25-.38-.89-.32-1.36.17-1.35.37-2.69.61-4A80.88,80.88,0,0,1,576,598.1a21.87,21.87,0,0,1,3.47-4Zm-3.15-37.22a1.08,1.08,0,0,1,1.25.27,99.36,99.36,0,0,0-27.27,28.78,90.59,90.59,0,0,0-13.43,37.93,32.26,32.26,0,0,1-3.55-6.94,5.77,5.77,0,0,0-.81-1.84c-3.13-3.91-5.3-8.54-8.45-12.43-.9-1.11-.47-2,0-3a66.86,66.86,0,0,1,15.24-22.69A75.92,75.92,0,0,1,589.29,571.61ZM487.56,667.69a169.24,169.24,0,0,0-10.66,37.75,251,251,0,0,0-3.53,45.13c-1-.5-.94-1.4-1.16-2.07a151.69,151.69,0,0,1-6.29-30.87,161.25,161.25,0,0,1-.74-21.41c.48-14.29,2.53-28.3,8.11-41.44,2.55-6,5.48-11.88,10.11-16.55a5.67,5.67,0,0,1,4-2c7-.17,14-.41,21-.62.23,0,.48,0,.62.24s-.13.46-.3.61C499.09,644.92,492.63,655.78,487.56,667.69Zm15.42,8.4-9.25.21a90.24,90.24,0,0,1,5.58-12.71l.54.12C500.88,667.76,501.9,671.82,503,676.09Zm3.89-24.54c5.22-6.54,11.19-11.95,19.13-14.5a14.31,14.31,0,0,1,7.14-.65,16.75,16.75,0,0,0,3.61.16,2.82,2.82,0,0,1,2.84,1.89,121.09,121.09,0,0,1,11,32.58,14.88,14.88,0,0,1,.52,4.58l-2.56,0-34.58.41c-1.91,0-1.93,0-2.43-2-1.69-6.66-3.33-13.33-5-20A2.61,2.61,0,0,1,506.87,651.55ZM498,582.88q16.47-20.52,33-41c1.12-1.39,1.15-1.4,2.32-.07Q546.68,556.93,560,572.1a2,2,0,0,1,.69,1.33,80.64,80.64,0,0,0-30.9,35C520.3,598,509.63,589.75,497,584.67A3.34,3.34,0,0,1,498,582.88Zm34.61,43.61c-.69.71-1.22.26-1.7.15a22.06,22.06,0,0,0-7-.49c-3.53.31-7.07-.68-10.6.07-.48.11-.73-.26-1-.62C504,611.42,492.63,600.34,480,590.49c-.11-.09-.15-.28-.42-.83C503,593.21,519.25,607.49,532.63,626.49Zm-51.05-23.11a132.69,132.69,0,0,1,20.85,22.85c-1.46.63-2.83.17-4.09.42-1.62.32-2.27-1-3.13-1.95a72.07,72.07,0,0,0-16.71-12.87,6.91,6.91,0,0,1-2.38-1.62Zm-50.29,4.73c13.91-1.55,43.63,9.11,53,19-2.76,0-4.32,1.89-6,3.57a57.57,57.57,0,0,0-7.17,8.88A119.74,119.74,0,0,0,431.29,608.11Zm13.5,41.14c3.21-4,6.44-8,9.64-12.06.64-.81,1.14-1.33,2.11-.35a89.18,89.18,0,0,1,9.14,10.52c1,1.35.5,2.5-1.09,2.55-6.59.18-13.19.29-19.78.42-.13,0-.25-.15-.38-.24C444.3,649.69,444.61,649.48,444.79,649.25Zm-29.73,82.17a158.84,158.84,0,0,0-1.69,20c-.82-.06-.72-.71-.84-1.15a97.06,97.06,0,0,1-3.34-22.62,124.27,124.27,0,0,1,9-51.94,80.53,80.53,0,0,1,7.41-14,3.35,3.35,0,0,1,2.94-1.81c7.32-.1,14.64-.3,22.36-.47a7.06,7.06,0,0,1-.75.89c-10,7.32-16.9,17.32-22.41,28.53A142.26,142.26,0,0,0,415.06,731.42Zm45.35-66.34c-.74,3.79-1.45,7.51-2.17,11.23a.86.86,0,0,1-.84.77c-3.75,0-7.5.08-11.46.12C448.59,672.72,456,666.61,460.41,665.08Zm187.43,66.41q-28.7,52.75-84.43,68.12a110.29,110.29,0,0,1-27.2,4c-35.05.68-65.65-11.14-91-37.23a119.54,119.54,0,0,1-20.84-29.67,5.67,5.67,0,0,1-.72-3.62c2.29-15.59,6.61-30.45,14-44.23a3.71,3.71,0,0,1,3.79-2.32c4.43.08,8.86-.1,13.3-.16,2.12,0,2.11,0,2,2.14-1.5,23.13.93,45.71,8.71,67.53a104.66,104.66,0,0,0,8.27,17.87,9.7,9.7,0,0,0,1.75,2.44,4.1,4.1,0,0,0,4.51.9,4.2,4.2,0,0,0,2.68-3.9,52.08,52.08,0,0,0,.06-5.86c-.44-8.42-.74-16.85-.53-25.28a222.06,222.06,0,0,1,7.44-53.6c.06-.24.16-.48.23-.72.65-2.18.65-2.22,2.79-2.21,14.6.09,29.18-.49,43.78-.44l42.55-1a17.74,17.74,0,0,0,1.93,0c1.29-.17,1.87.53,2.28,1.71a116.71,116.71,0,0,1,4.32,15.14A167.29,167.29,0,0,1,591,739.44c-.18,7.32-.61,14.61-1.49,21.87a22,22,0,0,0-.17,2.29c-.06,2.16.71,3.84,2.66,4.71a4.38,4.38,0,0,0,5.16-1,16.59,16.59,0,0,0,2.24-3,91.84,91.84,0,0,0,10.8-25.49,146.57,146.57,0,0,0,4.75-28.58,148.19,148.19,0,0,0-.14-23.46c0-.25,0-.51,0-.76-.1-2.22-.1-2.25,2-2.29,5-.1,10-.1,15-.3a2.8,2.8,0,0,1,2.85,1.76,113.5,113.5,0,0,1,11.81,30.64c.83,3.55,1.42,7.16,2.12,10.74A6.87,6.87,0,0,1,647.84,731.49Zm1.45-36c-4.47-11.34-10.41-21.71-18.56-30.57a67,67,0,0,0-8.38-7.7c-.51-.39-1.13-.65-1.43-1.33.38-.63,1-.4,1.51-.42,6.6-.24,13.21-.23,19.79-.76,1-.08,1.45.51,2,1.16a63.58,63.58,0,0,1,8.54,14.48,105.86,105.86,0,0,1,8,31.4,134.05,134.05,0,0,1-1.13,37.58c-.09.49-.2,1-.33,1.47,0,.14-.2.25-.47.57A144.06,144.06,0,0,0,649.29,695.47Z" transform="translate(-19.63 -123.74)"/><path class="cls-1" d="M258.57,271A261.52,261.52,0,0,0,284.41,279c3.18.74,7.06.34,9.89,3.78-10.36,2.78-20.2,3.23-30.21.57-10.62-2.83-12.48-1.25-11,9,2.11,15.05,6,29.67,13.17,43.4,7.58,14.45,5.38,17.63,29.31,15.78,1-.08,2.09-.27,3.13-.36a375.14,375.14,0,0,0,44.91-6.61c-16.09,11-33.91,17.62-53.88,18.67-6.4.33-7.53,1-6.11,6.57a37.3,37.3,0,0,0,2.43,6.34A171,171,0,0,0,309,412.72a94.85,94.85,0,0,0,18.9,17.89c4.76,3.36,8.54,3.41,14,.11,19.92-12.09,38.54-25.66,56.75-39.76,1.72-1.33,2.86-3.87,7-2.62a100.16,100.16,0,0,1-29.44,34.11,186.19,186.19,0,0,1-24.53,14.84c-5.3,2.77-5.27,5.41-.38,8.56a12.61,12.61,0,0,0,2.73,1.41c27.29,9.39,54.74,13.24,82.79,2.22,32-12.59,47.3-45.07,35-74.94-1-2.4-2.14-4.74-3.14-7.14-.85-2.07-2.48-4.62-.62-6.34,2.77-2.56,4.95.66,7.23,1.68a66.19,66.19,0,0,1,6.22,3.57q29.14,17.18,58.29,34.31c6.76,3.95,10.39,4.26,11.82,1,2.32-5.22-3-6.53-6.17-8.45-20.22-12.09-40.56-24-60.85-36-2.35-1.39-4.67-2.83-7-4.26-1.19-.75-2.23-1.71-1.69-3.13a3.58,3.58,0,0,1,3.19-2.17c5.23-.39,10.48-.59,15.71-1,31-2.76,56.31-28.72,56.73-57.35.29-20.27-7.95-37.52-20.22-53.58a87.35,87.35,0,0,0-16-16.45c-2.39-1.84-4.76-4.26-8.26-3.29-4.12,1.14-2.84,4.69-3.13,7.38-1.5,13.8-4.34,27.31-10.6,40a96.84,96.84,0,0,1-16.56,23.55c-1.58-5.28.71-8.44,1.73-11.67a480.5,480.5,0,0,0,15-60c1-5.74-.06-9.33-5.73-11.67-1.91-.79-3.81-1.6-5.74-2.33-21.77-8.28-44.64-10.25-67.93-9.75a40.35,40.35,0,0,0-7.27.89c-3.36.72-5.16,3.1-3.25,5.72,6,8.16,5.76,17.65,7.22,26.71a63.3,63.3,0,0,1-2.06,27.37c-2.67-7.64-4.19-15.4-6.55-22.94-2.89-9.24-6.27-18.36-9.87-27.39-2.6-6.54-7.46-10.64-15.82-10.24-9.08.44-18.23.16-27.28.92-11.55,1-22.78,3.71-33.76,7.12-5.78,1.79-6.73,5.17-3.23,9.49,1,1.27,2.59,2.17,3.69,3.4,5.95,6.63,10.06,17.39,9.52,25.32-3.34-3.78-6.37-7.25-9.45-10.68a113.36,113.36,0,0,0-17.61-16.4c-3-2.18-6.21-4.39-10.49-3.2a82.5,82.5,0,0,0-33.32,17.69c-1.4,1.25-2.15,3.3-2.74,5.11-3.07,9.33-3.78,18.9-3.29,28.58C248.84,265.14,252.24,268.86,258.57,271Zm-.7-17.27a7.69,7.69,0,0,0,0-1c.16-20.44,6.08-28.07,26.86-35.28,4.22-1.47,7-.81,10.25,2a164.81,164.81,0,0,1,31.21,36c2.27,3.51,3.85,8.74,9.48,7.32,6.61-1.68,4.22-7.33,3.68-11.51-2-15.39-5.45-30.41-15-43.53,1.93-2.91,5-2.65,7.47-3.3,14-3.68,28.27-4.35,42.7-4.21,4.78.05,7.87,1.45,9.58,5.76,9.51,24,17,48.23,14.54,74.21-.35,3.62-2.43,8.58,3.16,9.89s6.56-4,8.11-7.21c10.9-22.37,13.18-45.7,8.82-69.7-.73-4-2.42-8-1.92-13,21.46-.43,42,1.89,61.84,9,4.21,1.51,5.85,4,4.88,8.22-1.59,6.9-2.63,13.91-4.33,20.79a402.22,402.22,0,0,1-14.26,47.29c-3,7.79-5.33,16.06-13.07,21.55a3.7,3.7,0,0,0-1.15,5.19c1.43,2.57,3.88,2.61,6.29,1.76,4.29-1.52,7.82-4.19,11.29-6.92,22.89-18,37.76-40.25,42.89-67.71.49-2.66-.18-5.85,3.43-8.52,18,18.65,30.26,39.11,26.84,65-2.89,21.8-24,40.09-47.76,42.08-3.83.32-7.69.33-11.54.55s-8.33.15-10.89,2.83c-5.38,5.61-9.57,2.43-14.37-.43q-47.08-28-94.3-55.9a64.86,64.86,0,0,0-8.22-4.2,4.54,4.54,0,0,0-5.52,1.57,3.82,3.82,0,0,0,.35,5.32,34.49,34.49,0,0,0,6.55,4.7c31.77,18.74,63.51,37.53,95.44,56.06,5.41,3.14,9.54,5.86,6.73,12.6-.77,1.84.18,4.42.77,6.56a27.66,27.66,0,0,0,2.64,6.26c18.13,31.41-8.16,67-43.83,72.33a112.58,112.58,0,0,1-48.76-3.5c-.88-.26-1.56-1.11-2.74-2,2.44-3.08,6-4.52,9-6.45,25-16,40.18-38.09,48.41-64.55A47.35,47.35,0,0,0,425,360.2c.23-2.44-.85-4.62-3.66-5.15a4.52,4.52,0,0,0-5.54,3.34c-2.95,10-11.58,15.94-19.26,22.33A440.39,440.39,0,0,1,342.05,420c-7.8,4.7-7.88,4.85-14.78-1.39-14.15-12.79-23.83-28.26-32-44.74,3-3.39,7.17-3.08,10.71-3.87,25.48-5.71,47.58-16.88,65.93-34.12a64.7,64.7,0,0,0,7-8.39,3.23,3.23,0,0,0-.39-4.43,4.48,4.48,0,0,0-4.77-1.2,57.2,57.2,0,0,0-6.58,3c-24.78,12.9-52.06,16.66-79.84,18.57-3.61.24-6.73,0-8.69-3.72-7.66-14.47-13.92-29.28-15.51-46.92,17.56,2.62,33.24-.54,48.8-4.68,1.34-.36,2.71-.68,4-1.16,3.81-1.42,9-2.25,8-7.33-.84-4.06-5.33-4.45-9.32-4.72-16.9-1.1-33-5.28-48.91-10.39C259.89,262.56,257.14,259.43,257.87,253.77Z" transform="translate(-19.63 -123.74)"/><path class="cls-1" d="M586.3,496.68a116.18,116.18,0,0,0,33,36.26c17.39,12.24,35.62,22.55,51.62,38,4.71,4.54,7.91,11.06,13.07,14.92,2.29,1.71,4.31,4.43,7,2.1,2.33-2,1.82-5.25,1.38-8.18-2.52-16.67-.34-32.55,4.14-48.16,8.18-28.5,6.05-57.87,3.41-87.24-.27-3-.84-5.87-1.17-8.81a12.3,12.3,0,0,1,.5-2.81c7,5.92,10.9,14.6,14.37,23.47,7.89,20.14,10.32,41.88,11.24,64,.27,6.31.52,12.64.92,18.94.2,3,1.76,4.78,4.1,4.79,2.55,0,3.6-2.31,3.52-5.2-.84-31-2.1-61.85-14-90.26a103.85,103.85,0,0,0-13.78-23.18c-5.25-6.87-6.07-14.71-5.35-23.33.65-7.77,1.66-15.49,2.27-23.26a70.29,70.29,0,0,0-5.54-33.4,123.89,123.89,0,0,0-17.49-29.39c-11.08-13.92-29.38-16-43.75-4.79-14.88,11.61-23.68,28-22.44,51.48.09,1.74.71,3.69-.64,5.22-2.33-.68-2.87-3.39-3.83-5.52A80.89,80.89,0,0,0,599.56,346c-7.76-10-17.09-10.61-25.92-2.42-10.07,9.35-14.86,22.5-16.53,37.71a145.36,145.36,0,0,0,6,61.4C569.31,461.81,576.55,480.22,586.3,496.68Zm21.64,13.93c-4.13-2.43-7.66-10.05-7.21-16.14.55-7.49.53-15-2-21.88-4.72-12.75-1.22-22.44,6.54-30.2,6.56-6.56,13.57-12.36,21.26-19.28,4.4,10.79,9.48,19.87,7.93,32.09-1,7.92-2.9,15-6.48,21.45-6,10.71-14.65,19-17.28,32.7C610.35,511,609.21,511.36,607.94,510.61Zm21-119.42c9.29-9.3,25.66-9,35.13.25,10.59,10.35,16.35,25.23,23.64,38.75,3.52,6.53,4.35,13.54,4.64,21-2,.25-3.21-.84-4.29-2.05-11.52-12.94-24.7-21.67-39.84-24.24-12.68-2.15-17.46-13.16-20.54-26.79C627.1,395.52,626.84,393.29,628.93,391.19Zm-1.33-12.66a143.36,143.36,0,0,1,11-31.19c4.26-8.63,10.6-11.18,18.08-7.55,4.71,2.28,8.66,6.07,12.16,10.76,8.16,10.92,14.25,23.53,20.18,36.54,4.24,9.31,3.26,17.29,1.19,26.32-3.1-1.18-4.15-4.1-5.19-6.52-3.32-7.68-8.18-13.52-12.92-19.68-10.17-13.22-22-15.77-35.39-11.27C634,376.87,631.52,379.25,627.6,378.53ZM625,525.34c-6.68-4.79-8.19-10.7-4.85-19.4a37.1,37.1,0,0,1,3.87-7.34c7.18-10.59,14.49-21,18.09-36.21,5.47,8,7.33,16.63,9.52,25,2.39,9.12,1.81,13.23-4.48,17.91-7.55,5.61-12,13.53-14.09,25.21C629.7,528.32,627.31,527,625,525.34Zm21.21,14.33c-5-3.68-5.6-5.93-4-12.65,1.92-8.2,7.13-11.78,13.7-16.24a222.46,222.46,0,0,0,6.7,40.23C655.94,546.4,651,543.19,646.25,539.67Zm19-23.34c14.42,12.48,15.09,30.18,15.25,49.36C670.94,553.29,665.49,535.66,665.3,516.33Zm20.8,17.84c-3.41-10.22-8.15-19-14.7-25.06-8.6-8-11.41-18.87-13.33-32.11,11.41,2.11,19.45,9.12,26.24,18.76C694,509.53,694.36,516.52,686.1,534.17Zm7.17-42.6c-2.29-.85-3.29-3.25-4.74-4.91-6.34-7.22-12.56-15-21.21-17.12-15.61-3.84-21.32-19.24-27.17-36,17.28,1.95,31.66,10.18,43.9,24.29C691.71,466.69,696.63,477.28,693.27,491.57ZM636.88,322.19c10.52-9.57,27.15-13.33,39.76,3.83a104.16,104.16,0,0,1,17,35,26.55,26.55,0,0,1,.4,13.91c-2.95-2.81-4.21-6-5.66-9.08-5.33-11.36-12-21.34-20.24-29.36-14.85-14.4-29.81-10.29-38.63,10.48-2.17,5.1-4.14,10.34-6.2,15.52C620,344.24,626.5,331.65,636.88,322.19ZM616.46,397.7c6.39,3.59,7.75,14.08,2.4,19.38-4.79,4.74-10.06,8.69-14.88,13.4-14,13.64-19.45,27-12.61,45.61,1.39,3.77,2.78,8.26.4,13.32a278,278,0,0,1-15.23-33.05,11.48,11.48,0,0,1-.1-7.52c2.35-8.87,2.63-18.21,3.48-27.42.68-7.38,1.24-14.84,3.47-21.75,3.26-10.05,9.57-13.65,17.67-10C606.28,392.07,611.39,394.85,616.46,397.7Zm-46.09-35.1a29.93,29.93,0,0,1,6.74-10c6.46-6.54,11.95-6.09,17.53,1.8s9.5,16.77,14.13,27.65c-3-1.19-4.36-1.77-5.74-2.28-12.8-4.72-23.15,2-27.58,17.93-1.75,6.32-2.45,12.95-3.15,19.56-.6,5.7-1.09,11.42-1.63,17.13C562.92,410.18,561,386.21,570.37,362.6Z" transform="translate(-19.63 -123.74)"/><path class="cls-1" d="M118.64,382.44c4.73,1.57,9.42,3.19,14,5.16,9.53,4.13,19.35,6.86,31.11,3.86-.61,7.55-.54,13.92,2.5,19.78,4,7.67,7.94,15.35,12.25,22.84,2.72,4.74,7,4.95,10.31.3a39.75,39.75,0,0,1,10-9.37c7.45-5.21,12.88-11.42,12.9-21.11,7.77,1.86,14.81,1.31,21.26-2.16,7-3.75,13.56-8,21.22-10.6,4.13-1.39,4.76-4.59,1.29-6.82-4.66-3-7-7.24-9.54-11.6-3-5.22-7.79-8.9-13.51-11.45-2-.89-4.06-1.66-6.47-2.63a32.06,32.06,0,0,0,6.57-21.17,31.41,31.41,0,0,1,2-10.57c1.83-5.54-1.86-9.1-7.38-6.94a62.06,62.06,0,0,1-17.31,3.61c-6.31.58-11.24,4.4-17,7a32.62,32.62,0,0,0-21.65-18.91c-2.57-.76-4.47-2.5-6.39-4.26-5.17-4.73-7-4.16-9.51,2.54-1.17,3.14-2.1,6.43-3.81,9.31-5.43,9.18-9.83,18.45-5.06,29.37-10.37.48-16.29,5.77-20.86,12.65a57.25,57.25,0,0,1-9.45,11C111,377,111.72,380.14,118.64,382.44Zm16.06-20.11c4-5.24,9.27-6.66,15.62-5.79,1.75.24,3.46.75,5.21,1s3.65,0,4.8-1.51c1.46-2,.65-3.86-1-5.18-9.59-7.72-8-16.38-2.14-25.32,1.83-2.81,2.46-6.24,5.42-8.87,5.5,1.7,11.48,3.1,15.82,6.74,6,5,8.53,11.78,6.59,19.54-.57,2.3-.84,4.62,1.93,5.68s4.27-1.15,5.59-3a41.55,41.55,0,0,0,2.13-3.66c3.7-6.3,9.35-10,16.94-11,4.09-.55,8.19-1,12.73-1.56a53.13,53.13,0,0,1-.62,16c-1.5,7.07-6.72,11.53-13.16,15-2.1,1.14-4.16,2.57-3.21,5.27s3.42,2.45,5.89,2.07c15.61-2.42,20.65-.13,27.8,12.56,1.08,1.91,2.69,3.62,2.69,6.33-4.38,2.57-8.83,5.3-13.4,7.83-7.12,3.94-14.07,4.12-20.62-1a22.31,22.31,0,0,0-2.07-1.55c-1.52-.93-3.15-1.67-4.91-.53a4,4,0,0,0-1.66,5.14c.53,1.58,1.15,3.14,1.54,4.75,1.51,6.2.1,11.53-5.68,15.51-15.82,10.89-10.37,13.09-20.76-3.45-5.39-8.58-6.61-17.64-1.51-26.94,1.16-2.11,2.1-4.25-.16-6s-4.48-.54-6.54.7c-8.85,5.3-18,5.12-27.21,1.41-5.11-2.05-10.17-4.2-15.54-6.42A112.86,112.86,0,0,1,134.7,362.33Z" transform="translate(-19.63 -123.74)"/><path class="cls-1" d="M893.29,986.49c7.77-10.49,13.6-22.4,20.75-33.55,1.94,2.35,1.34,4.78,1.61,7,1.88,15.33,6.65,29.53,15,42.18a130.49,130.49,0,0,0,27.7,29.82c4.53,3.61,7.46,3.1,10.73-2.11s6.2-10.68,9.14-16.12c14.11-26.08,14.14-52.16-.5-78.14a97.89,97.89,0,0,0-7.64-12.12c-11.09-14.26-24.55-23.94-42.66-24.05-1.32,0-2.92.49-3.81-.73-4.81-6.55-11.72-9.43-18.84-11.65,2.63-7.54,2.63-7.57,8.34-6.94,14.16,1.55,28.3,3.3,42.48,4.59,3.66.34,5.37,1.7,5.74,5.48.23,2.27.72,4.52,1.15,6.76,1.82,9.55,4,10.48,11.93,5.16,1.59-1.07,3.15-2.16,4.75-3.21,8.76-5.75,15.92-14.49,27.23-15.44,3-.25,4.64-3.34,2.07-6.36-1.83-2.14-1.88-4.65-2.54-7.07-5.77-21.09-18.91-35-37.67-42.92-19.08-8.1-50.12-.87-60.83,26.69A162.64,162.64,0,0,0,901,874a52.86,52.86,0,0,1-6.83,15.41c-1.25,2-2.54,3.07-5.31,2.13-11.36-3.86-19.67-.82-26.45,9.38-2.26,3.4-4.18,7.07-6.44,10.95a18.43,18.43,0,0,1,.53-12.3A129.21,129.21,0,0,0,861,885.85c5-20.44.76-38-15-51.67a87.31,87.31,0,0,0-8.56-6.43c-20.86-14-43.1-18.63-67-10.93-11.19,3.6-12,5.82-5.15,15.77a118.68,118.68,0,0,0,33.62,33c6.63,4.26,12.15,9.63,15.73,16.87,6.28,12.75,15.08,22.22,28.26,26.46,3.48,1.11,4.62,3.2,3.36,7.08-2.72,8.37-4.93,16.93-7.76,25.25-2.53,7.41-4.77,15-9,22.52-.65-12.15-.61-12.2-10-21.35a4.75,4.75,0,0,1-1.45-4.54c.85-5.86-2.14-9.74-5.88-13.33-10.08-9.68-22.29-11.28-34.26-4.25a39.42,39.42,0,0,0-14.44,14.54c-3.55,6.14-6,12.76-8.35,19.44A120.71,120.71,0,0,1,745.69,975c-3.8,6.49-4.72,6.5-8.67.45-.15-.23-.26-.5-.42-.73-6-8.59-9.52-18.58-13.65-28.21-3.53-8.22-8.32-15.36-15.1-20.91-13.93-11.42-31.47-9.27-42.43,4.7-3.6,4.59-.89,10.52-3.34,14.32-2.58,4-7.46,6.21-9.05,11.54-.81,2.73.47,6-2,8.88-7.32-14.9-12.64-30.15-17.63-45.54-1.39-4.31,1.44-5.62,4.28-6.75,12-4.75,19.92-14,25.46-26,3.35-7.27,7.89-13.47,14.47-17.95a130.51,130.51,0,0,0,12.8-10.3A100.68,100.68,0,0,0,713,829.87c3.12-6,2.17-8.23-3.66-10.3-7.94-2.82-16-4.62-24.5-4.22a82,82,0,0,0-50.39,19.8c-18.29,15.4-23.88,34.27-16.25,57.72,1.5,4.59,3.41,9,5.11,13.55,1,2.64,2.09,5.31-.55,8.07-3.65-4.25-6.1-9.51-10.34-13.1-5.76-4.88-12-7.62-19.41-5.18-6.66,2.19-6.57,2.2-10.52-3.54-2.43-3.54-3.84-7.53-5.25-11.56-2.06-5.9-4-11.87-6.36-17.63-2.71-6.59-5.9-13.2-11.24-17.64-15-12.47-31.95-17-49.95-9.73-19.69,8-32.72,23.21-37.66,45.57-.48,2.17-.54,4.33-1.72,6.47-2.35,4.25-1.47,6.55,3.1,6.72,6.95.25,12.1,4.12,17.51,7.81,4.53,3.09,9.06,6.17,13.7,9.07,8.37,5.25,10.68,4.07,12.09-5.93.32-2.27.73-4.53.87-6.81.2-3.4,1.61-4.77,4.93-5.22,14.11-1.92,28.16-4.21,42.24-6.35,6.77-1,6.77-1,8.63,6.87-3.24,1.28-7.23,1.58-9.48,4.34-6.28,7.7-15.06,8.19-23.37,10.68-17,5.13-28.07,18-36.4,34.07-12.93,24.92-14.37,50-.8,75.17,3.87,7.2,8.19,14.14,12.58,21,3,4.62,6,5.24,10.25,1.88,3.64-2.87,6.81-6.42,10.09-9.78,17.89-18.32,28.88-40.21,30.15-67.1.06-1.29-.22-2.83,1.66-3.7,4.72,7.2,9.52,14.43,14.23,21.71S593,996.21,598.4,1003s12.87,10.65,18.25,17.29c-16.95,10.28-27.65,24.68-31.29,44.84-2.86-1.48-5.2-2.87-7.68-3.93-26.5-11.38-50.95-7.85-73.06,11.52-2.27,2-6.4,3.9-4.67,7.92,1.87,4.32,5.69,1.63,8.6.92a162.09,162.09,0,0,1,64.8-2.33c1.6.25,3.83-.37,4.49,2.37-19.83,3-33.27,14.87-41.75,33.61-1.21,2.67-3.24,5.87-.6,8.75,2.24,2.45,5.36,2.2,8.36,1.69,5.72-1,10.6-3.86,15.21-7.4,6.08-4.67,12.06-9.5,18.75-13.18,11.52-6.34,23.21-6.11,35-.89,3.74,1.65,7,4,8.05,9.13-5.54-1.06-10.77-2.25-16.05-3-10.83-1.61-21.5-1.09-31.44,4.29-17.24,9.34-30.82,22.4-38.2,42.09-1.94,5.17-1.67,10-.76,15.08.41,2.35,1.61,4.45,3.87,5.1,2.75.78,4.46-1.06,5.89-3.35,5.85-9.37,13.56-16.92,21.17-24.57,12.14-12.22,26.5-17.84,43.26-16.7,6.72.45,13.31,1.69,19.95,2.74s12.11,3.43,15.92,9.77c2.88,4.78,6.23,9.23,7.79,14.76-8.9-5.4-17.19-11.3-26.3-15.56-36.53-17.09-76.56,10.33-78.26,51.86-.31,7.56,1.8,14.75,3.54,22a5.92,5.92,0,0,0,6,4.82c3.28-.07,3.53-3,4-5.49,1.45-7.62,4.29-14.73,6.89-21.91,8.55-23.63,36.8-40,60.87-23.67,1.81,1.22,3.74,2.25,5.63,3.33,9.51,5.41,19.08,10.63,30,11.76,4.33.44,5.45,3.48,6,8a19.4,19.4,0,0,1-2.72-1.16c-18.12-12-37.35-10-56.76-5.28a9.64,9.64,0,0,0-2.91,1.44A79,79,0,0,0,583.69,1215c-8.49,14.24-8.09,30.55-9,46.48-.22,4,1.82,7.78,4.42,10.81,3.07,3.57,6.35,3,8.09-1.48a44.21,44.21,0,0,0,1.66-6.62,116.42,116.42,0,0,1,7.74-24.3c2.13-4.61,4.05-9.63,8.23-12.49,12.56-8.59,26.19-14.23,41.26-15.23,3.53-.23,6.92.86,10.24,2.08,8.12,3,16.21,6.09,24.39,8.89a7.72,7.72,0,0,1,5.47,5.59c.77,2.72,2.36,5.17,2.38,8.63-5-1.2-9.88-2.49-14.81-3.51-8.31-1.73-16.58-2-24.47,1.91a121.32,121.32,0,0,1-21.25,7.77,58,58,0,0,0-11.26,4.49c-11.94,6.29-16.08,17.7-16.91,30.94-.27,4.21,1.79,5.82,5.64,4.42,10.11-3.66,20.39-6.71,29.63-12.94,14.5-9.76,30.41-13.92,47.67-10.92a46.18,46.18,0,0,0,9.6,1.09c4.07-.14,5.58,2,6.58,5.77,4,14.89,8.6,29.57,11.32,44.81a27.2,27.2,0,0,0,1.2,5,3.52,3.52,0,0,0,3.82,2.52c2-.27,2.66-1.94,2.57-3.73a57.89,57.89,0,0,0-.93-7.65c-2.14-11.84-5.6-23.3-8.67-34.89-.52-2-2.11-4.09-.37-6.18,9.33,1.1,18.26,2.65,24.64,11,1.17,1.53,3,2.46,5,1.14a4.54,4.54,0,0,0,1.91-4.41c-.7-9.15-1.5-18.3-5.36-26.73-4.86-10.61-15.73-13.72-25-7.12-2.63,1.87-5.07,4-7.6,6.09-4.43-7.32-4.43-7.31,1.6-11.12,2.07-1.31,4.1-2.7,6.17-4,17.16-10.83,25.32-27.16,25.82-48.2,0-2.11-.05-4.11-2-5.19s-3.63-.06-5,1.5a49.67,49.67,0,0,0-4.74,5.81c-8.6,13.68-20,24.17-32.74,33.41-1.94-2.87-3.33-5.47-1.57-9.35,3.72-8.23,6.76-16.8,10.38-25.07a201.78,201.78,0,0,1,9.3-19c6.71-11.81,15.78-20,28.61-23.06,2.94-.71,6.63-.78,6.36-5.55a16.09,16.09,0,0,0,9.83,5.72c9.29,1.77,16.92,6.76,23.12,14.52a118.51,118.51,0,0,1,9.75,14.7c6.53,11.25,10.46,23.89,16.92,35.16,2,3.53,1.1,6.48-1.26,9.47-11.5-8.07-22.71-16.26-31.07-28.18a58.08,58.08,0,0,0-8.86-10c-2.93-2.61-6.6-.65-5.82,3.16,1.82,8.85,1.53,18.1,6.12,26.48,6.74,12.29,17.21,19.4,28.31,26,6.11,3.61,6.18,3.69,1.53,10.84-3.38-2.23-6.11-5.51-9.87-7.21-7.32-3.3-16-1.29-20.15,5.44-6,9.81-6.39,21.07-6.22,32.29,0,3.46,3.11,4.7,5.86,2.8a12.43,12.43,0,0,0,2.88-3c5.84-8.08,14.29-8.65,23.47-9.84-2.09,9.45-4,18-5.86,26.62a138.29,138.29,0,0,0-3.24,21.16c-.11,2,.17,4.19,2.58,4.68,2.76.57,3.84-1.34,4.38-3.79.19-.83.26-1.69.37-2.54,1.68-13.66,5.61-26.81,7.89-40.3,1.53-9.07,5.3-13.53,14-13.17a20.39,20.39,0,0,0,4.76-.82c15.09-3.09,29.56-.51,42.94,7.09a143.92,143.92,0,0,0,31.42,13c7.64,2.21,9.12.78,7.65-7.83-2.54-14.89-10-25.15-24.16-28.94-10.15-2.73-20.3-5.38-30.1-9.45-4.58-1.9-9.51-1.62-14.35-1a103.32,103.32,0,0,0-16.45,4c-1.6.49-3.24,2.41-4.91.44.56-9,5.08-13.85,13.08-16a76.12,76.12,0,0,0,14.19-5.93,36.57,36.57,0,0,1,29-2c3.59,1.19,7.13,2.63,10.78,3.5,14.47,3.44,23.32,13.24,28.43,27.66,2.48,7,4.76,14,6.64,21.19.68,2.61,1.61,5.1,4.52,5.28,2.75.17,4.49-1.87,5.57-4.25,1.75-3.85,3.27-7.83,2.61-12.33-1.2-8.21-1.82-16.56-3.59-24.62-4.67-21.21-18.43-34.33-35.84-43.79a19.12,19.12,0,0,0-8.53-2.27c-17.68-.29-35.71-2.1-51.18,12.09.65-6.12,2.53-9.08,7.88-9.81,8.63-1.19,16.24-5.6,23.71-10.16,5.8-3.54,11.4-7.43,17.52-10.41a29.86,29.86,0,0,1,19.6-2.43c17.7,3.51,29.34,14.64,35.9,32.14,2.28,6.1,4.83,12.09,6.47,18.5,1.33,5.18,5.17,5.68,8.29,1.5a10.9,10.9,0,0,0,1.73-3.79c6.74-27.24-1.82-51.14-25-66.57-17.63-11.73-36.62-12-55.21-1.41A138.84,138.84,0,0,0,844.14,1152c-1.94,1.53-3.77,3.6-7.2,3.81,2.07-3.86,3.93-7,5.46-10.29,4.16-8.94,10.28-14.48,20-15.92,7.43-1.1,14.75-3,22.28-3.32,12.18-.58,23.61,2.24,33.45,10.1,9.23,7.37,18.69,14.57,25.59,24.75a34.87,34.87,0,0,0,4.26,5.17c3.49,3.48,6.54,2.9,7.95-1.76s2-9.56.07-14.28c-9.47-23.36-26.21-38-48.63-45.55a36.91,36.91,0,0,0-12.77-1.45,88.69,88.69,0,0,0-21.42,3.56c-1.88.52-3.87,2.22-6,.39,4.42-6.82,5.05-7.5,10.72-9.81,11-4.51,21.89-4.52,32.78,1,7.81,4,14.69,9.52,22.06,14.21a27.72,27.72,0,0,0,14.45,4.78c6.19.11,8.31-3.35,5.84-9.33-4-9.7-10.49-17.21-18.4-23.48-7.7-6.11-16.45-9.12-26.06-9.93,1-2.36,2.81-2.14,4.27-2.44a162,162,0,0,1,64.84-.6c1.85.37,3.67.91,5.53,1.11a3.42,3.42,0,0,0,3.86-2.36,3.57,3.57,0,0,0-1-3.87c-.76-.81-1.63-1.49-2.43-2.26-21.84-20.79-55.14-22.1-76.85-9.15-2,1.18-3.84,2.86-6.1,2.88-4.68-20.26-16.34-33.86-33.6-43.13A178.63,178.63,0,0,0,893.29,986.49Zm29.54-46.07c.73-10.28,4.42-20,3.79-30.45-.18-3,1.92-3,3.87-2.86a37.81,37.81,0,0,1,15.36,4.77,54.81,54.81,0,0,1,17.45,14.91,108.23,108.23,0,0,1,13.55,24.27c5.85,14.6,6.11,29.43,1.29,44.4-3.08,9.54-8.28,17.87-13,26.48-1.6,2.92-3.49,3.16-5.82,1-3-2.85-6.08-5.65-9.12-8.47C930.36,994.21,920.71,970,922.83,940.42Zm51.88-48c-4.26,3.08-5.51,2.24-6.15-3.43-.27-2.43.21-3.87,2.72-3.85,3.35,0,6.69.08,10.86.13C980,889.81,977.05,890.77,974.71,892.45Zm2.13-52.1c9.15,7.29,16.46,15.46,20.46,26.84,2.58,7.34,1,10.16-6.55,10.24-11.79.12-23.62.23-35.39-.59-13.63-1-27.22-2.92-40.82-4.48-1.56-.18-3.26-.12-4.45-1.6C916.07,830,956.15,823.83,976.84,840.35ZM509,904.52c-5.1-1.47-8.48-4.95-13.7-8.11,6-1.83,10.38-1.59,14.84-1.28C510.64,898.23,510.16,901,509,904.52Zm56.34-25.13A463.46,463.46,0,0,1,488.82,888a21.44,21.44,0,0,1-4-.11c-4.49-.77-5.9-3-4.8-7.72,1.7-7.32,4.67-14.28,9.35-19.66,14.47-16.61,34-28,59.65-13.09,9.09,5.27,15.78,16.23,18.91,30.43C567.45,879.15,566.31,879.19,565.33,879.39Zm-42.79,191.28c13.23-10.71,39.86-10.52,55,.56A220.31,220.31,0,0,0,522.54,1070.67Zm22.53,47.17c2-17.68,25.42-31.33,44.09-25.81C572,1095.36,560.42,1109.66,545.07,1117.84Zm54.32-42.76c-7.53-9.14-7.56-15.44-.27-25.75a4.66,4.66,0,0,1,.62.07C599.65,1057.85,599.52,1066.29,599.39,1075.08ZM709,1250.42c3-3.91,6.64-6.58,11.72-5.75,4.62.76,6.6,4.39,8,8.57,1.06,3.19,2.23,6.38,2,11.24-6.54-4.31-13.14-4-19.26-5.8C706.16,1257.11,705.51,1255,709,1250.42Zm-7.83-30.87a86.32,86.32,0,0,0,24-24.45c-.09,13.65-15.64,30.88-30,34.25C696.16,1225.34,698,1221.76,701.15,1219.55Zm-6.06,31.15c-4,3.13-7,1.81-9.69,1.32-20-3.64-38.23,1.31-55.23,12.44-6.57,4.31-13.38,7.87-21.71,8.82,1-8,3.75-14.1,10.35-17.56a44.39,44.39,0,0,1,8.1-3.64c9.29-2.71,18.2-6.64,27.33-9.71C668.59,1237.54,681.77,1242.43,695.09,1250.7Zm90.76,5.45a47.12,47.12,0,0,1-5.29,1.81,65.09,65.09,0,0,1-8.57,1.84c-2.67.31-4.3,3.43-7.71,2.79-.37-4.64,1-8.81,2.66-12.88,1.89-4.72,5.64-7,10-6.32,4.11.62,9.89,5.83,10.53,9.41C787.77,1254.42,787.28,1255.59,785.85,1256.15ZM767,1196.1c2-.31,2.53,1.68,3.55,2.77,6.07,6.48,12.07,13,19.62,17.64,3.72,2.29,6.65,5.64,8.47,11.26C783.89,1222.67,766.81,1208.15,767,1196.1Zm195.4-135.27a213.44,213.44,0,0,0-55.66,4.6C921.22,1053.05,947.32,1051.07,962.42,1060.83Zm-18.24,47.54c-4.21.34-6.88-1.79-9.5-3.61-11.55-8-22.8-16.63-37.84-18.82C911.52,1077.59,934.83,1087.61,944.18,1108.37ZM886,1069.9c.21-9.63.61-17.7-.58-26.34C894.25,1051.5,894.57,1060.93,886,1069.9ZM844.37,901.16c-8.39-3.08-15.54-8-19.81-16.47a71.3,71.3,0,0,0-26.46-29.07c-10-6.27-18-15.22-25.16-25-3.48-4.79-3.36-5.47,2.41-7.24,15-4.6,29.77-2.64,44.08,3.07a68.83,68.83,0,0,1,24.34,16.27c10.58,9.8,13.45,22.23,11.18,36.46-1.08,6.8-3.69,13.07-5.76,19.54C848.28,901.52,846.93,902.1,844.37,901.16Zm5,34.43c-1.33,13.58-3.29,26.84-3,40.36.09,3.95-2.85,6.67-4.79,9.65-8.57,13.11-17.35,26.07-26,39.13-3.09,4.66-6,9.47-9,14.18-1.63,2.55-3.22,5.17-6,6.66C818.24,1009.62,835.52,973.52,849.33,935.59ZM846,1003.51c-12.47,18.48-25,36.88-38.52,54.53a102.33,102.33,0,0,1-16.35,17.11l55.27-83.35C849,997.14,848.36,1000,846,1003.51Zm-95.35-22.17c5.93-10,10-20.76,14-31.68,2.13-5.86,4.68-11.56,8.19-15.17,10.29-11.56,21.48-13.58,31.86-6.48,6.33,4.32,7,6.61,4.27,14.16-1.81,4.94-1.41,5.74,3.41,6.78,9.16,2,11.71,6.71,8,15.69-9.75,23.35-40.69,39.66-67.58,24.43C748.08,986.4,747.89,986,750.66,981.34Zm-83.33-29.26c6.73-1.77,7-1.9,3.91-8.67-2-4.48-.87-7.47,2.16-10.58,9.48-9.72,23.36-8.92,33.78,2.07a61.15,61.15,0,0,1,9.51,15.81c4.44,10.71,8.81,21.44,15.47,30.93,2.83,4,2.23,5.75-2.68,8.52-11.34,6.39-23.34,8-35.79,4.37a50.44,50.44,0,0,1-30.85-24.37,24.12,24.12,0,0,1-2.36-5.41C658.58,957.93,660.89,953.77,667.33,952.08ZM686,1048.44c-2.42.88-3.11-1.23-4-2.51q-21.6-30-43.11-60c-1.14-1.58-2.6-2.95-2.63-5.15-.13-14.38-3.07-28.36-5.2-42.35C646.55,976.89,665.71,1013,686,1048.44Zm11.2,31.59c-11.79-10.89-21.39-22.42-30.64-34.26-9.81-12.52-19.11-25.5-29-38-2.67-3.39-3-6.35-1.5-10C641.25,1001.26,675.57,1047.44,697.17,1080ZM622.52,878.65c-1.68-15.08,3.9-26.77,14.55-36,14.82-12.87,31.79-19.6,51-19.56a45.58,45.58,0,0,1,18,4c-7.93,13.66-17.47,24.39-29.11,32.71-9.6,6.88-17.11,15.38-22,26.53-4.19,9.61-11.18,15.73-20.4,19.31-2.21.86-3.44.59-4.4-1.8C627,895.66,623.52,887.62,622.52,878.65Zm-82.11,136.52c-5.44,7-11.2,13.62-18.35,19.25-6.88-9.65-13.06-19.26-17.07-30.29-7.86-21.65-3.09-41.45,7.47-60.46,7.21-13,16.8-22.78,30.65-27.16,3.06-1,6.11-2.18,9.8-1,.07,12.5,4.85,24.22,5.74,36.83C560.34,976.11,554.59,996.93,540.41,1015.17Zm60.39-21c-13.21-15.18-24-32.28-33.27-50.44-3.75-7.34-6.42-15.16-6.9-23.61-.26-4.68.33-9,3.85-12.54,5.82-5.8,11.59-6.31,18.09-1.28,5.18,4,5.25,4.08,10.19-.71a7.66,7.66,0,0,1,8.13-2.1,17.63,17.63,0,0,1,9.38,6.29A48.94,48.94,0,0,1,617.7,923c8.6,24.47,12.94,49.59,10.41,75.75-.77,8-1.34,9.72-4.56,15.5C614.53,1009.43,607.51,1001.91,600.8,994.21Zm-19.56,134.54c-15.69,6.73-26.28,20.21-39.3,33.44,10.3-33.47,46.64-59.1,88.73-35.2C612.92,1124.44,596.87,1122,581.24,1128.75Zm56.46-9.67c-5.16-5.32-5.16-5.32,3.35-14.08Zm-1.85-23.82a11.29,11.29,0,0,1-2.41,6.26c-1.58,2.16-2.46,5.86-5.6,5.27-2.66-.5-4-3.62-5.34-6.11a8.4,8.4,0,0,1-.63-1.58c-3.85-13.7,8.51-34.18,23.81-36.69C638.57,1073.25,636.22,1084,635.85,1095.26Zm7.09,6.6c.24-12.09,1.12-23.13,7.37-32.88,1.51-2.35,2.86-4.83,4.37-7.18,1.3-2,2.08-4.07.85-6.36s-3.52-2.1-5.71-2c-15.26.53-25.79,8.38-31.65,23.31-1.63,4.18-2.83,8.55-4.24,12.86-3.56-1.16-4.51-4-4.82-7.3-.69-7.41-1.6-14.8-2-22.22-.6-10.55,3.38-19.49,9.22-27.65,1.28-1.79,3.48-3.09,3.58-5.52.15-3.44,1.25-3.68,4.39-3.39,4.74.45,5.66-5.23,9.36-8.74,8.08,10.85,15.52,21.35,23.47,31.39s16.42,19.65,25.38,30.31c-8.08,1.91-16.15,1.84-22.94,6.76C653,1088,649.58,1095.87,642.94,1101.86Zm23.41-13.7c10.29-5,23-3.35,30.64,4.81-10.14,1.06-19.84.63-28.71,5.21s-15.35,12.17-21.42,20.42C646.16,1109.07,656.6,1092.91,666.35,1088.16ZM639,1168.51c-3.84-2-7.5-4.48-11.39-6.4-19.61-9.65-42.81-4-56.72,13.65a68.14,68.14,0,0,0-11.22,20.63c-.76,2.27-.9,5-3.9,7.28a41.42,41.42,0,0,1,2.26-24c14.21-35.47,49-39.37,69.5-26.31,7.38,4.7,14.91,9.09,21.79,14.62,2.76,2.22,5.36,4.67,8,7C650.18,1175.05,644.68,1171.52,639,1168.51Zm27.93-3.44c-3.73-1.63-4.61-4.57-5.07-7.55-3.11-19.84,16.92-40.88,37.7-37.36C680.13,1129,670.44,1144.46,666.93,1165.07Zm-2.32,44c-13-6.28-26-5.83-39.07-.4-3.73,1.55-7.5,3-11.3,4.42-12.19,4.42-20.21,13.47-25.22,25.83-1.87,4.6-3.54,9.3-5.79,15.25-2.13-31.39,14.24-50.27,32.59-59.58,23.95-4.29,46.75-3.79,58.7,17.33C670.69,1212.32,667.59,1210.51,664.61,1209.08Zm20.93-9.87c-.46,1.09-1.52,1.89-2.48,1.17a2.24,2.24,0,0,1-.34-3.05c2-2.44,2.72-6,5.79-8C688.5,1193.24,686.83,1196.16,685.54,1199.21Zm5.86-17.28c2.08-11.32,3.09-22.86,8.72-33,6.22-11.15,14.72-15.14,26.29-11.62C707.72,1146.57,700.28,1164.77,691.4,1181.93Zm70.85-45.77c8.54-2.67,15-1.8,20.76,3.23,4.86,4.22,8.77,9.25,10.73,15.67,2.55,8.36,4.87,16.8,7.3,25.21C790.74,1162.89,782,1145.11,762.25,1136.16Zm77.36,102.34c9.79,2.74,19.44,6.28,29.3,8.94,8.59,2.32,15,7.37,17.56,16.94a7.4,7.4,0,0,1,.23,1.69c0,.22-.27.45-.77,1.21-7.35-.23-14.12-3.45-20.55-7.39a82.63,82.63,0,0,0-29.31-11.21,66.12,66.12,0,0,0-25.54.49c-3.21.69-6.56,2.18-9.91.56.06-.73,0-1.14.13-1.26C812.24,1238.72,825.48,1234.55,839.61,1238.5Zm-30.1-39.64c-4.18-2.42-4.64-6.23-5.29-10C806.88,1191.17,810.16,1193.34,809.51,1198.86Zm26.07-7c13.1-5,27.2-6.67,40.3-2.29,15.71,5.25,26.79,17.53,32.45,34.53,2.07,6.23,2.38,12.81,3.34,19.25l-1.66.7c-1.32-3-2.7-6-3.93-9.07-5.78-14.24-15.14-24.11-29.5-28.12-3.89-1.08-7.67-2.6-11.51-3.89-12.27-4.14-24.27-3.93-36,2.18a32.35,32.35,0,0,1-11,4C822.86,1201.11,828,1194.76,835.58,1191.88Zm-11.22-30.38c-3.49-9.29-6.24-18.48-11.78-26.16-5.68-7.89-13.9-12.11-22.57-17.12,12.4-2.82,26.4,4.24,33.11,15.84C829.35,1144.82,830,1153.92,824.36,1161.5Zm44.74-16.67c16.29-8.21,43.77-5.84,59.12,18.12,4.81,7.5,8.11,15.42,8.67,24.53.16,2.74.4,5.49-1.27,9.32-1.88-4.59-3.22-8.22-4.82-11.71-8.17-17.82-21-29.18-39.54-33-8.77-1.82-17.11-.94-25,3.37-6.64,3.64-13,7.82-19.57,11.63-4.13,2.4-8.19,5.11-13.19,5.23C844.07,1161,855.74,1151.57,869.1,1144.83Zm-33.74-3.31c-2.05-1-2.2-3.51-3-5.39-8.4-20.44-29.79-32.67-53.91-24.55-2.14.72-4.12,1.69-4.2,4.48s1.86,3.85,3.88,4.89c4.83,2.49,9.59,5.14,14.44,7.61,10.23,5.23,17.15,13.62,21,24.9,1.93,5.65,3.94,11.31,5.3,17.13,1.41,6.06-2.81,10.32-5,15.92-4.39-3.64-5.69-8.31-7.08-12.8-1.77-5.71-3.21-11.54-4.79-17.31a52,52,0,0,0-7.15-15.32c-10.93-16.25-29.9-19.34-48.55-6.44a5.21,5.21,0,0,1-2.54,1.37c-12.63-13.19-36.83-10.47-47.64,5.26-5.54,8.06-7.92,17.36-9.9,26.9-1.5,7.22-2.79,14.55-7.16,20.69-6.13-5.75-7.77-11.47-5.9-19.07,1.76-7.2,3.3-14.47,6.44-21.16,3.32-7.06,8-12.78,14.64-16.58,5.65-3.26,11.26-6.58,16.9-9.85,2-1.17,3.54-2.65,3.2-5.37-.35-2.91-2.58-3.29-4.68-3.89-25.42-7.25-46.88,7.6-53.08,28.79-.32,1.08-.83,2.09-1.26,3.17-6.08-4.94-6.6-6.4-4.83-13.19,4.66-17.9,17.87-29.1,35.82-30.17,7.49-.45,15.08,0,21.83-4.48,2.28-1.51,3.45.54,4.55,2.07,1.79,2.51,3.25,5.29,5.14,7.7s4,2.55,5.91-.29c5.45-8.09,5.45-10.1-1.2-18.43-24.73-31-43.66-65.93-61.31-101.75-.65-1.32-1.89-2.73-1-5,4.37,4.24,6.84,9.72,10,14.6,8.42,12.94,16.64,26,25,39a49.75,49.75,0,0,1,4.51,8.09c1.74,4.29,5,6.06,7.33,4.17,3-2.46,1.18-5.25-.27-7.56-5-8.11-10.31-16.08-15.45-24.13-3.17-5-6.28-10-9.37-14.86,1.64-2,3.1-.84,4.55-.35,18.79,6.37,36.57,5.25,52.52-8.18,2.78-2.34,4.41-.52,6.32.87,14.36,10.46,29.91,11.68,46.21,7,1.8-.53,3.52-1.38,5.3-2,1.48-.5,2.82-1.72,4.9-1-4.58,10.42-11.07,19.49-16.56,29.18-2.36,4.15-4.65,8.34-7,12.5-1.32,2.35-2.37,5,.17,6.85,2.88,2.1,5.53.16,6.6-2.56,5.12-13,13.65-23.84,20.19-35.93,5.58-10.32,11-20.81,18.07-30.73.5,2.67-.55,4.35-1.27,6-14.54,33.15-30.33,65.55-50.39,95.36-3.28,4.87-6.76,9.59-9.89,14.56-2.31,3.66.58,13.5,4.32,15.16,2,.87,3.62.06,4.78-1.9,2-3.37,3.36-7.93,6.23-9.71,3.05-1.88,6.67,2.26,10.39,2.76,5.11.67,10.19.35,15.28.56,16.51.69,29.55,10.7,35.36,26.53C840.23,1131.6,840.26,1136.66,835.36,1141.52Zm-15.8-46.5c-9.07-4.3-18.82-3.36-29.68-4.12,10.4-10.33,27.33-11,36.33-2.18A139.11,139.11,0,0,1,838,1101.66c2.55,3.21,4.33,7.1,4.42,13.39C835.37,1105.94,828.4,1099.21,819.56,1095Zm31.93,19c-2.46-3.21-2.46-7-3.83-11.22C855.83,1108.49,855.83,1108.49,851.49,1114Zm2.69-17.41c-1.58-1.69-2.13-3.95-2.49-6.21-.87-5.62-1.31-11.3-3.07-16.78-1.67-5.17-5-9.43-7.14-15.23a17.5,17.5,0,0,1,14.39,6.64,42.45,42.45,0,0,1,10.18,25.51,10.62,10.62,0,0,1-.14,3.39c-1,3.31-2.65,6.78-5.75,7.61C857.33,1102.3,856,1098.55,854.18,1096.61Zm56.51,17.49c17,7.14,30.84,18.93,37.13,38.44-8.09-7.34-15.93-14.91-24.42-21.71-12-9.59-25.44-13.11-40.11-12.31a223,223,0,0,0-23.84,3.09C875.73,1113,892.69,1106.56,910.69,1114.1Zm-40.78-85c5.38,7.12,9,15.1,9,24.33,0,7.72-.61,15.44-1,23.15-.17,3.33-1.11,6.17-4.73,7.42-2-5.61-3.67-11.34-6.58-16.52-7.23-12.89-18.12-18.24-31.77-17.92-4.5.1-6.13,3.17-4.23,7.49a6,6,0,0,0,.92,1.4c9.21,11,13,24.13,13.55,40.53-10.5-14.58-21.32-26.45-41.5-23.7,17.22-22.32,32.61-43.16,47.1-65.6,3.59,4.86,5.54,10.88,12.16,8.87.6-.18,1.53.24,1.53,1.45C864.38,1024.24,867.77,1026.22,869.91,1029.06Zm-2.08-25.21c-2.2,2.1-4.35,4.21-7.84,5.37-2.73-3.93-3.54-8.16-4.23-12.37-4.46-27.47-1.21-54.17,7.09-80.31a35.5,35.5,0,0,1,8.43-14.42c6.09-6.19,10.47-6.33,17.1-.24,2.81,2.58,4.7,1.38,6.86-.83,4.62-4.72,9.68-6.78,16-3.35,5.1,2.75,7.7,6.86,8,12.86.3,7-1.34,13.6-3.52,20.1-4.19,12.49-11.23,23.31-17.57,34.55A167.13,167.13,0,0,1,867.83,1003.85Z" transform="translate(-19.63 -123.74)"/><path class="cls-1" d="M462.46,849.12c1.88-6,3.33-12.22,6.12-17.75,1.51-3,.34-5.56-2.51-5.47-3.84.12-7.05-1.76-10.42-3.63a17,17,0,0,0-12.41-1.62c-1.46.34-2.89.79-4.6,1.25a35.29,35.29,0,0,0-6.48-18.19,34.53,34.53,0,0,1-3.89-8.48c-1.64-4.82-5.23-5.56-7.1-1.37a43,43,0,0,1-7.35,10.91c-3,3.45-3.81,8.54-5.61,13.13-6.87-4.83-13.44-5.76-20.16-3-1.7.7-3.5.38-5.33.05-4.92-.86-5.6.42-3.78,6.39a63.48,63.48,0,0,1,2.37,8.44c1.46,9.14,3.5,17.84,11.1,23.29-5.19,5.34-5.81,11.95-5,19a59.65,59.65,0,0,1,.23,12.38c-.53,5.84,1.37,7.73,6.06,6a88.16,88.16,0,0,1,9.71-3.07c6.91-1.67,13.31-4.46,18.05-12.25,3.21,5.64,6.23,10.13,10.56,12.83,5.66,3.53,11.32,7.06,17.08,10.31,3.64,2,6,.13,5.53-4.75a39,39,0,0,1,.86-11.5c1.45-7.29,1.38-14.31-3.14-21.2A18.79,18.79,0,0,0,462.46,849.12Zm-16,5.38a15.7,15.7,0,0,0-1.81-.11c-1.22.08-2.42.34-2.81,2a4.26,4.26,0,0,0,1.54,4.44c1,.87,2.07,1.67,3,2.63a14.28,14.28,0,0,1,4.29,13.74c-3.17,15.36.71,14.29-12.46,7.56-6.83-3.49-11.71-9.33-13.39-18.39-.38-2.06-.9-4-2.9-4.19s-2.59,1.78-3.09,3.65c-2.14,8-7,12.29-13.54,14.11-3.63,1-7.28,1.93-11.13,2.94a121.67,121.67,0,0,1-1.5-14.38c-.38-5.63,1.72-9.19,5.44-11.64,1-.67,2.16-1.13,3.2-1.77a3.51,3.51,0,0,0,1.81-3.39,3.17,3.17,0,0,0-2.94-3.2c-8.63-.86-11.83-7.79-13-16.94-.36-2.88-1.63-5.61-1.32-8.91,3.67-1.44,7.45-3.34,11.42-2.84,5.5.68,10,4.25,12.58,10.7.78,1.9,1.72,3.68,3.66,3.1s1.7-2.87,1.53-4.81c-.1-1.22-.4-2.42-.6-3.63-1-6.26.21-11.6,3.69-16,1.88-2.37,3.81-4.66,5.92-7.25a55.31,55.31,0,0,1,7.17,11.67c2.52,5.73,1.88,11.42.15,17-.57,1.81-1,3.82.78,5.28s2.94.09,4-1.36c7-9.25,10.72-10,20.39-4.49,1.46.84,3.1,1.28,4.37,3.2-1.09,3.93-2.14,8-3.34,12C455.82,851.48,452.27,855,446.47,854.5Z" transform="translate(-19.63 -123.74)"/><path class="cls-1" d="M1405.07,457.82c-8.94-7.89-18.85-14.24-30.41-17.78-16.29-5-32-3.3-47.1,4.34-10.67,5.39-19.53,13-27.33,21.87-10.08,11.46-17.86,24.35-24.32,38.05a266,266,0,0,0-18.45,55c-.27,1.19-.55,2.37-.83,3.55,0,.06-.11.11-.19.19-.47,0-.25-.43-.24-.64q.65-22.89,1.29-45.78a6.07,6.07,0,0,1,1.43-3.92c9.38-11.57,16-24.46,19.1-39,4.79-22.93.44-44.16-12.53-63.74-1.77-2.67-3.93-5.06-5.59-7.82a3.76,3.76,0,0,0-4-1.71,3.93,3.93,0,0,0-3.21,2.63,10,10,0,0,0-.49,3.59c-.49,18.53-.93,37.05-1.47,55.58q-1.53,52.38-3.15,104.76a2,2,0,0,1-.27,1.36,5,5,0,0,1-1-2.22,231.35,231.35,0,0,0-47.76-81.78c-14.12-15.71-30.19-29.12-49-39.24-1.35-.73-2.72-1.45-4.13-2.07a5.07,5.07,0,0,0-7.38,4.5,21.18,21.18,0,0,0,1,6.73,48.72,48.72,0,0,0,7,14.3,126.15,126.15,0,0,0,46.41,41,51.74,51.74,0,0,0,13.44,4.82,17.88,17.88,0,0,0,3.91.38,3.33,3.33,0,0,1,3.13,1.83,231.13,231.13,0,0,1,15.62,27.9c1.48,3.17,2.87,6.38,4.26,9.6.2.44.61.91.27,1.62-1.47-1.73-2.88-3.42-4.32-5.08a97.2,97.2,0,0,0-40.74-28.37,78.55,78.55,0,0,0-31.32-4.94c-20.46,1.06-36.22,10.31-47.12,27.23a81.64,81.64,0,0,0-12.27,30.74,92.75,92.75,0,0,0-1,22,167.21,167.21,0,0,0,3.81,25,34.48,34.48,0,0,0,2.68,8c1.55,3.09,4.67,3.63,7.17,1.2,1-1,2.09-2,3.21-2.95,9.77-8.07,17.34-18,23.64-28.72,11.83-20.25,21.94-41.28,28.91-63.68a57,57,0,0,0,2-8.17c.32-2,.42-2.07,2.59-1.71a83.93,83.93,0,0,1,18.39,5.22c13.77,5.68,25.07,14.51,34.6,25.69a91.12,91.12,0,0,1,16.24,28.69,133.23,133.23,0,0,1,4.24,13.94,45.8,45.8,0,0,1,1.28,11.06c0,2.23,0,2.24-2.42,2.19q-10.2-.24-20.39-.48l-26.65-.71a23.91,23.91,0,0,1-2.54-.19c-3.22-.39-5.19,1.07-5.62,4.24a70.79,70.79,0,0,0-.41,13.18c.85,16,4.18,31.57,8.95,46.85a140.72,140.72,0,0,0,11,26.28,5.41,5.41,0,0,0,5.13,3.15c24.57.44,49.14.86,73.7,1.45,3.93.09,6.29-1.33,8.1-4.68a175.68,175.68,0,0,0,13.22-32,182.61,182.61,0,0,0,6.66-29.29,76.74,76.74,0,0,0,.62-20c0-.31,0-.61-.08-.91-.65-4.33-1.87-5.36-6.37-5.46l-47.74-1.07c-.31,0-.62,0-.93,0-1,.07-1.38-.33-1.27-1.34.23-2,.38-3.92.55-5.89.52-6.05,1.27-12.08,2.1-18.09a18.55,18.55,0,0,1,1.49-5c10-22.51,27.32-36.84,51.17-43.69a77,77,0,0,1,23.12-2.66c2,0,2,.09,2.36,2,3.39,21.07,11.62,40.36,22.41,58.69a168.94,168.94,0,0,0,25.46,33.49,10.63,10.63,0,0,1,1.29,1.31c2.3,3.18,5.48,3.24,8.9,2.48a4.66,4.66,0,0,0,3.15-2.79,71.76,71.76,0,0,0,5.06-12.94c5.88-21.18,3.1-41.12-9.49-59.38-10-14.54-24.1-23.68-41.24-28.34a76.75,76.75,0,0,0-24.73-2.7A87.64,87.64,0,0,0,1277.33,549a122.63,122.63,0,0,0-11.15,11,144.64,144.64,0,0,1,3.63-15A259.24,259.24,0,0,1,1280.74,514a9.53,9.53,0,0,1,2.69-3.62c11.19-9.63,23.81-17.06,37.23-23.24a210.65,210.65,0,0,1,53.69-16.52,159.42,159.42,0,0,1,20.24-2.11c3.4-.13,6.79-.13,10.19-.07a9.22,9.22,0,0,0,1.39,0,4.2,4.2,0,0,0,3.6-2.5,3.82,3.82,0,0,0-.86-4.42C1407.67,460.21,1406.39,459,1405.07,457.82Zm-144.46-39.47a69.6,69.6,0,0,1,10.84,35.38c.5,16.37-4.07,31.39-13.19,45.11C1259,472,1259.49,445.17,1260.61,418.35Zm-57,86.8a56.3,56.3,0,0,1-10.72-4.79,122.34,122.34,0,0,1-36.66-32,59.29,59.29,0,0,1-7.39-12.07,3.74,3.74,0,0,1-.58-2.55c22.9,13.13,41.13,30.79,56.75,51.42A1.5,1.5,0,0,1,1203.56,505.15Zm-97.65,99.64a4.14,4.14,0,0,1-.39-.8c-.17-1.2-.31-2.41-.44-3.61a87,87,0,0,1,.54-23.58c1.5-9.34,5.35-17.84,10-26a49.85,49.85,0,0,1,11-13.35,30.88,30.88,0,0,1,5.56-4C1118.61,555.69,1111.3,579.75,1105.91,604.79Zm53.16-75.87a206,206,0,0,1-9,25.8,363.75,363.75,0,0,1-18.54,37.64A127.25,127.25,0,0,1,1115.34,615a10,10,0,0,1-2.95,2.7c0-.58,0-1,.11-1.32,1.07-6.82,2.38-13.59,4-20.31a235.26,235.26,0,0,1,14-41.83c3.26-7.22,6.92-14.24,12-20.47a22.61,22.61,0,0,1,4.41-4.33c1.29-.92,2.9-1.45,3.74-2.94.27-.47.8-.4,1.25-.45l6.9-.65a.7.7,0,0,1,.78.41A17.86,17.86,0,0,1,1159.07,528.92Zm128.76,93.24q8.22.18,16.45.41c2,.06,2,.09,2.12,2.08a57,57,0,0,1-.13,7.73,153.82,153.82,0,0,1-5.27,28.86,175.24,175.24,0,0,1-13.12,34.46c-1,1.93-2.07,2.71-4.37,2.64-11.66-.36-23.33-.53-35-.73q-16.33-.27-32.68-.44a2.68,2.68,0,0,1-2.85-1.72c-.81-1.88-1.82-3.68-2.66-5.55a177.93,177.93,0,0,1-10.83-33.8c-2.44-10.92-4.12-21.93-4-33.15,0-2.89,0-2.89,2.89-2.82l52.38,1.16v0ZM1397.2,615c-2.16-21.92-8.83-42.46-18.88-62C1396.63,567.82,1403.67,593.14,1397.2,615Zm-47.89-76.62a86,86,0,0,1,9.94,3,5.9,5.9,0,0,1,3,2.33c1.32,2,2.8,3.83,4,5.84a151,151,0,0,1,22.32,66.83,12.6,12.6,0,0,1,0,3.78c-.29-.07-.46-.06-.54-.14-.49-.49-1-1-1.42-1.5A183.87,183.87,0,0,1,1356.82,570a139.75,139.75,0,0,1-9.19-30C1347.3,538.13,1347.49,537.92,1349.31,538.34Zm-58.5-44.25c.38-.77.49-1,.64-1.3a133.2,133.2,0,0,1,17.17-23.4c6.78-7.26,14.35-13.56,23.38-18,10.2-5,20.94-7.1,32.29-5.28,11.07,1.76,20.77,6.55,29.54,13.28.1.08.14.25.35.66A216.66,216.66,0,0,0,1290.81,494.09Z" transform="translate(-19.63 -123.74)"/><path class="cls-1" d="M942.85,422.94c6.29,7.27,13,14.19,18.71,21.9a40,40,0,0,1,5.21,8.41c-1.47-.48-2.47-.76-3.43-1.12a97.78,97.78,0,0,0-24.54-5.81c-.5-.05-1-.14-1.49-.15-2.32-.08-3.9.74-4.5,2.33s-.06,3.15,1.94,4.42c3.59,2.27,7.26,4.44,10.79,6.81,8.41,5.69,15.36,12.73,22.09,20a22.63,22.63,0,0,1,1.4,2,117.22,117.22,0,0,0-23.46.86,28.35,28.35,0,0,0-3.29.59,3.42,3.42,0,0,0-2.78,2.9,3.59,3.59,0,0,0,2,3.79,14.48,14.48,0,0,0,3.83,1.32c13,3.69,25.91,7.46,38,13.42a149.84,149.84,0,0,1,21.65,12.82c1,.75,2.12,1.19,1.26,3-5.13,10.68-1.61,20.82,9.24,27,8.14,4.64,17.14,7.37,26.34,9.5a98.15,98.15,0,0,0,15.86,2.33,16.52,16.52,0,0,0,13.61-4.94c8.42-8.41,17.18-16.55,25.93-24.67a13.63,13.63,0,0,0,4.77-11.37c-.71-13.89-6-26.08-15.37-36.92a63.21,63.21,0,0,0-7.87-7.82c-7.46-6.1-16.68-6.49-24.54-1-2.27,1.59-2.35,1.65-4.1-.2a20.54,20.54,0,0,1-3-3.91c-8.19-14.42-16.23-28.9-23.19-43.87-.93-2-1.67-4.07-2.43-6.13-1-2.6-2.61-3.87-4.7-3.55-2.35.37-3.43,2-3.12,5.05a99.07,99.07,0,0,0,3.35,17.59c1.29,4.41,2.53,8.83,3.85,13.45a3.3,3.3,0,0,1-2.58-1.42c-5.48-5.17-11-10.35-16.37-15.59S991,423.42,986,417.87c-1.2-1.32-2.28-2.73-3.51-4-1.76-1.86-3.4-2.21-5.23-1.26s-2.45,2.69-1.34,5.07c4.17,9,9.05,17.6,14.06,26.18.57,1,1.45,1.83,1.44,3.6-2.59-1.72-4.89-3.17-7.1-4.73-6.83-4.81-13.66-9.62-20.43-14.5-4.42-3.17-8.75-6.46-13.13-9.69-1.36-1-2.71-2-4.16-2.92-2.15-1.31-4-1.19-5.41.18s-1.55,3-.15,5A25,25,0,0,0,942.85,422.94Zm14.67,36.38c-.57-.48-1.41-.81-1.58-1.78,19.95,4.21,55.4,25.06,64.33,37.93a3.48,3.48,0,0,1-3-.91,12.66,12.66,0,0,0-4.13-2.29A133.83,133.83,0,0,0,983,483.35a7.14,7.14,0,0,1-4.83-2.78A160.55,160.55,0,0,0,957.52,459.32Zm52.33,52.58c-8-6.06-16.93-10.84-26.14-15.17-6.29-3-12.87-5.31-19.36-8,.49,0,1,0,1.46,0a121.89,121.89,0,0,1,43.21,9.73,49.59,49.59,0,0,1,10.51,5.85c1.21.9,1.49,1.63.28,2.72-1.6,1.43-3.08,3-4.62,4.47C1012.63,513.92,1012.58,514,1009.85,511.9Zm78.61-13.68a4.68,4.68,0,0,1,.82.87,48.25,48.25,0,0,1,4.91,21,4,4,0,0,1-1.42,3q-13.68,13.15-27.31,26.33a8.86,8.86,0,0,1-7.35,2.59,105.64,105.64,0,0,1-19.07-3.28c-.88-.24-1.93-.26-2.5-1.24,1.1-1,2.17-1.92,3.26-2.85a15.09,15.09,0,0,0,5.38-8.43c.68-3.21,2.75-5.29,5.81-6.68,1.33-.61,2.62-1.33,4-1.81,6.82-2.33,10.63-6.95,12-13.36.55-2.67,2.15-4.23,4.79-5.18,1.73-.62,3.43-1.36,5.08-2.14C1081.39,505,1085.76,502.6,1088.46,498.22Zm-9.3-13.32c6.16,4.25,3.88,8,.58,11.8a9.77,9.77,0,0,1-3.49,2.52c-1.9.83-3.67,2-5.64,2.61-6.36,2.06-10.54,5.66-11.57,12.11-.51,3.23-2.89,5.46-6.15,6.86-2.36,1-4.7,2.07-7,3.21-4.13,2.07-6.94,5.16-7.91,9.45-1.12,5-4.71,7.68-9.63,9.56-3.27,1.24-5.55.45-8-1.6a10.65,10.65,0,0,1,1.22-1.06c5.14-3.23,9.26-7.34,11.64-12.62a17.33,17.33,0,0,1,10.44-9.57c6.15-2.3,10.46-6.44,12.38-12.45a12.08,12.08,0,0,1,6.75-7.37c1.21-.57,2.38-1.24,3.62-1.76C1072.17,494.2,1076.73,490.7,1079.16,484.9Zm-18.85-6.54a8.81,8.81,0,0,1,11.59-.74,1.76,1.76,0,0,1,.87,2.07c-1,3.19-2.18,6.25-5.5,8.24-2.61,1.56-5.43,2.74-8.14,4.12-5,2.54-8.71,6.06-10.31,11.18-1.29,4.17-4.29,6.83-8.45,8.55l-3,1.27a18,18,0,0,0-9.55,8.73c-.61,1.25-1.25,2.49-1.93,3.7a22,22,0,0,1-10.45,9.87c-.78.34-1.52.83-2.26-.11-2.32-2.92-1.77-10,1.08-12.5,8.09-7.27,15.64-15,23.62-22.4Q1049.08,489.36,1060.31,478.36Zm-29.67-23.49c2.47,4.41,4.82,8.64,7.21,12.84a45.71,45.71,0,0,0,6.54,9.53c3.27,3.37,3.25,3.38-.21,6.54-2.64,2.41-2.82,2.39-4.42-.87a50.06,50.06,0,0,1-2.08-4.76c-2.59-7-5-14.11-7-21.29A2.27,2.27,0,0,1,1030.64,454.87ZM998,440.57c8.45,8.28,17,16.44,26,24.26a7.07,7.07,0,0,1,2,3.22c1.71,4.9,3.16,9.89,5.27,14.67q1.15,2.64,2.33,5.26c-16.38-13.31-26.37-30.62-36.64-47.76A1.56,1.56,0,0,1,998,440.57Zm-29,.49c.31.19.63.36.92.57,8.18,5.6,15.89,11.86,24.77,16.48a26.88,26.88,0,0,1,10.93,10.3c1.41,2.3,3.12,4.44,4.77,6.76a2.33,2.33,0,0,1-2.33-.69A122.14,122.14,0,0,0,984.29,461a14.89,14.89,0,0,1-8-7.1c-2.23-4.31-5-8.35-7.62-12.5Z" transform="translate(-19.63 -123.74)"/><path class="cls-1" d="M1178.61,926.1c-4.45-2.16-9.37-3-14.38-3.56a66.44,66.44,0,0,0-35,5.81,71.27,71.27,0,0,0-26.72,20.48,36.92,36.92,0,0,0-5.41,9.48c-.89,2.23-.91,2.22-4.39,3.86,0-2.57,0-4.91-.05-7.25,0-1.12.88-1.81,1.69-2.55,12.59-11.47,16.74-25.47,16.15-40.78-.45-11.69-4.54-22.61-10.62-33a22.27,22.27,0,0,0-5.88-7.09c-4.65-3.42-8.88-2.28-9.87,2.79a12.37,12.37,0,0,1-2.33,4.81c-8.91,12.5-14.44,26-14.25,40.77.15,11.63,3.72,22.48,12.14,31.93,2.66,3,4.91,6,3.25,10.3-3.36-2.15-6.1-4.64-7.2-8.16-2.14-6.81-7.08-12.2-12.17-17.49-5.93-6.16-13.65-10-22.53-12.22-12.47-3.11-25-3.71-37.55-.66a21.91,21.91,0,0,0-5.73,2c-2.36,1.35-2.84,3.09-1.49,5.23a11.12,11.12,0,0,0,1.52,1.87c4.45,4.42,8.8,8.91,13.41,13.2a55.11,55.11,0,0,0,17.11,10.72,132.88,132.88,0,0,0,31,8.83c3.79.54,7.65.95,11.44.1a3.59,3.59,0,0,1,3.86,1.05,34.66,34.66,0,0,1,4.91,5.78c-.92,1.18-2.2.69-3.27.69-5,0-10-.37-15,.29-4.51.6-7.27,2.66-7.87,6.54-.65,4.24-.36,8.39,4,11.43a1.67,1.67,0,0,1,.61,2.33,7.31,7.31,0,0,1-2.29,3.19,29.39,29.39,0,0,1-3,2.19c-10.8,6.6-15.43,15.86-16,26.95a182.48,182.48,0,0,0,.75,24.63q.32,3.78.36,7.57c.08,6.93,4.37,11.2,12.41,12a128.35,128.35,0,0,0,15.46.6c13.13-.21,26.28-.25,39.42.58a71.66,71.66,0,0,0,15.9-.27c5-.8,8.58-2.94,10.4-7.2,3.1-7.32,4.24-14.92,4.78-22.63a68.88,68.88,0,0,0-2.53-24.46c-1.23-4.16-4.29-7.74-7.56-11-1.44-1.44-3.06-2.76-4.61-4.12a22.06,22.06,0,0,1-3.9-4.14c-1.72-2.54-1.64-3,1.2-4.84a7.47,7.47,0,0,0,3.76-5.34,23.19,23.19,0,0,0,.23-6c-.45-3.4-2.53-5.83-6.61-6.87a28.15,28.15,0,0,0-5.23-.73c-5.3-.31-10.6-.59-16.73-.92a61.27,61.27,0,0,1,9.71-7.33,4,4,0,0,1,2.88-.53c11.75,1.49,22.9-.58,33.76-4.16,14.66-4.83,27.71-11.71,37.89-22.13a25.78,25.78,0,0,0,3.2-3.61C1184.14,931,1183.26,928.35,1178.61,926.1Zm-84.78-39.36c10.79,18.26,9.15,42.53-.59,53.12C1092.37,935.74,1092.89,888.84,1093.83,886.74Zm-36.2,56.53c-9.47-4.83-19.22-9.07-29.16-13C1040.22,931.32,1050.66,934.51,1057.63,943.27Zm-44.36-8.55a142.18,142.18,0,0,1,49.2,22.25C1046,957.57,1018.43,945.08,1013.27,934.72Zm69.24,5.51c-7.92-10.85-7.55-33.08.82-45.13C1084.25,899.63,1083.55,938,1082.51,940.23Zm43.31,83.86c.1.75.32,1.5.43,2.25a73.14,73.14,0,0,1-.72,24.91,37.61,37.61,0,0,1-2.64,9.17,4.44,4.44,0,0,1-4.12,2.93,93,93,0,0,1-11.06.25c-9.14-.73-18.29-1-27.46-1-6.79,0-13.58.22-20.37.23a44.8,44.8,0,0,1-8.82-.57c-3.24-.65-3.48-.94-3.7-3.84-.53-7.19-1.16-14.37-1.52-21.56-.25-5-.45-10.08.78-15.05a6.49,6.49,0,0,1,1.1,0c21.46,5.17,43.15,5.36,65,2.57,3.49-.44,6.92-1.21,10.36-1.88C1124.67,1022.24,1125.62,1022.59,1125.82,1024.09Zm-8.51-14.86c1.72,1.56,3.52,3.06,4.65,5.57-24.4,4.72-48.41,4.94-72.92-.75a27,27,0,0,1,8.8-8.61c4.16-2.58,7.57-5.59,9.07-9.92.44-1.28,1.3-1.78,2.9-1.71,10.78.46,21.55-.48,32.34.09,4.15.22,4.14.13,5.42,3.73a18.51,18.51,0,0,0,3.21,5.39A61,61,0,0,0,1117.31,1009.23Zm-11-27.86c1.76.1,3.52.36,5.29.46,1.59.08,1.93.83,1.86,2-.13,2.12-.61,2.61-3.26,2.49-7.24-.31-14.47-.51-21.71-.22L1081,986c-5.17-.1-10.35,0-15.49-.52-2.54-.28-3.19-1.08-3.11-2.93.1-2,1.87-1.65,3.23-1.62C1079.21,981.14,1092.79,980.65,1106.36,981.37Zm13.46-24.56c13.17-7.87,27.81-13,43.2-16.67C1150.44,949.12,1136.31,955.19,1119.82,956.81Zm-6.61-6.28c10.86-14.58,38-23.83,50.67-19.34C1146.11,935.7,1129.41,941.66,1113.21,950.53Z" transform="translate(-19.63 -123.74)"/><path class="cls-1" d="M1325.93,749.39a5.09,5.09,0,0,0-4.5-2.06,51.9,51.9,0,0,1-7.84-.84c-3.55-.44-7.1-.85-10.67-1.28-.05-.69.62-.67,1-.82,2.85-1.07,5.7-2.14,8.58-3.14,3.08-1.06,4-3.34,2.36-6a8.42,8.42,0,0,0-.6-.87c-8.23-10.47-18.17-19-31.37-23.74a25.43,25.43,0,0,0-15.25-1.11c-7.56,1.91-11.66,6.91-13.89,13.57a30.3,30.3,0,0,0-.68,3,3.29,3.29,0,0,1-1.83-.64c-8.66-4.3-16.94-3.31-24.93,1.53a39.3,39.3,0,0,0-6.74,5.25c-1.27,1.21-1.27,1.29-2.41-.07a48.45,48.45,0,0,0-13.75-11.43c-9.12-5.06-18.89-6.91-29.35-4.61a28.49,28.49,0,0,0-9.49,4.14,5.13,5.13,0,0,1-1.74,1,49.33,49.33,0,0,0-3.35-8.07,22.52,22.52,0,0,0-5.86-6.87,16.36,16.36,0,0,0-14.54-3.27,28.38,28.38,0,0,0-15,9.14,40.26,40.26,0,0,0-5.52,8.12,65.54,65.54,0,0,0-6.47,17.83,11.31,11.31,0,0,0-.23,1.83c-.08,2.27,1.28,3.75,3.68,4.11,3,.46,5.72,1.89,9.11,2.84l-12.76,3.38a10,10,0,0,1-1.72.29,3.88,3.88,0,0,0-3.92,3.24,27.51,27.51,0,0,0-.46,5.11,45.16,45.16,0,0,0,1.92,16.68,27.76,27.76,0,0,0,8.56,13.2,25.69,25.69,0,0,0,14.24,5.85c7.16.73,13.81-.88,20.24-3.55,2.07-.86,4.06-1.86,6.25-2.88.12,1.54-.44,2.88-.62,4.25a97.19,97.19,0,0,0-.46,14.37c0,3,2.51,4.9,5.68,4.81,1.83-.06,3.65-.25,5.47-.43a5,5,0,0,1,2.32.07c-.62.62-1.12,1.18-1.68,1.68-2.67,2.35-5.36,4.67-8,7a17.81,17.81,0,0,0-2,2.13,3.45,3.45,0,0,0-.26,4.41,7.2,7.2,0,0,1,1,2.28,72.67,72.67,0,0,0,5.55,14.92,3.52,3.52,0,0,1,.26,2.56,78.41,78.41,0,0,0-1.69,9.72c-.93,10.07.38,20,2.75,29.77,4,16.75,12.41,31.55,23.38,45.19.88,1.09,1.72,2.22,2.61,3.31,1.3,1.61,2.92,2.49,5.14,1.82a7.29,7.29,0,0,1,2.18-.12c13.21.29,26.41.49,39.61.92,5.64.19,4.78,0,8.29-3.27,10.69-9.87,17.51-22,23-34.86a91.76,91.76,0,0,0,6.33-23c.15-1,.4-2,.64-3.18,2.35.95,4.56,1.83,6.84,2.52a17,17,0,0,0,8,.53,15.23,15.23,0,0,0,9.19-5.57,23,23,0,0,0,4.87-9.34,8.18,8.18,0,0,0-1.15-6.48c-2.87-4.48-6-8.76-9.18-13.08-.45-.62-.88-1.25-1.4-2a2.4,2.4,0,0,1,1.68.44c2.78,1.24,5.54,2.52,8.33,3.74,3.17,1.38,5.66.29,6.42-2.94a57.51,57.51,0,0,0,1.41-17.35,67,67,0,0,0-4.07-19.28,48.43,48.43,0,0,0-6.18-11.56c-.24-.33-.61-.61-.55-1.16,1.37-.64,2.95-.53,4.43-.81,6.61-1.25,12.88-3.23,18.27-7.12s8.67-8.84,9.25-15.24a21,21,0,0,0-1.1-8.52A32.42,32.42,0,0,0,1325.93,749.39Zm-102.55-9.95a34.06,34.06,0,0,1,7.49-6.28,17.83,17.83,0,0,1,8.12-2.88,18.64,18.64,0,0,1,13.64,5.17,1.33,1.33,0,0,1,.56.86,5.34,5.34,0,0,1-1.85.54,31.66,31.66,0,0,0-14.54,6.79c-4,3.37-6.58,7.49-6.74,12.66,0,1.45-1,1.89-2.26,2.49-.48-6.19-2.68-11.79-4.94-17.36A1.65,1.65,0,0,1,1223.38,739.44ZM1243,776.33a41.58,41.58,0,0,0,13.16,5c1.39.27,2.18.79,2.44,2.16.35,1.88,1,3.72,1.36,5.6a28.41,28.41,0,0,1,.8,6.41,2.36,2.36,0,0,1-1.37-.37,44.73,44.73,0,0,0-14.79-4.31c-1-.09-2.32.31-2.89-.47s-.36-1.85-.48-2.8c-.53-4.14-1.69-8-4.68-11.31a19.73,19.73,0,0,0-7-5.18c-1-.39-1-.8-.5-1.53a19.49,19.49,0,0,1,3.23-3.85A29.23,29.23,0,0,0,1243,776.33Zm-3.33-14.23c.34-.54.91-.23,1.39-.19a11.27,11.27,0,0,1,4.51,1.51c3.86,2.08,6.1,5.42,8.3,9.42a27,27,0,0,1-9.1-4.54,18.66,18.66,0,0,1-4.73-5.1C1239.87,762.87,1239.44,762.52,1239.7,762.1Zm-22.59-12.67c.19.19.32.27.36.37,2.67,6.06,2.59,12.4,2.19,18.77a1,1,0,0,1-.85,1c-2.19.3-4.29,1.07-6.61,1.19A46.23,46.23,0,0,1,1217.11,749.43Zm-31.23-26.58c11.55,1.27,19.78,7.32,26.41,15.75a2.15,2.15,0,0,1,.15,2.79,54.84,54.84,0,0,0-8.23,31.66,2.22,2.22,0,0,1-1.1,2.23c-2.55,1.71-1.95,1.62-3.48-.56a24.08,24.08,0,0,0-11.88-9.39,4.41,4.41,0,0,1-.79-.52c.63-.65,1.22-1.25,1.79-1.86,5.23-5.63,9.13-11.85,10.1-19.44,1.21-9.54-5-17.68-15-19.72-1.84-.37-3.71-.42-5.55-.75A32.35,32.35,0,0,1,1185.88,722.85Zm-24.51,53.52a9.79,9.79,0,0,0-2.38,1.45,60.62,60.62,0,0,1-12.07,6.68,34.18,34.18,0,0,1-13.54,2.81,17.44,17.44,0,0,1-14.23-6.69,21.51,21.51,0,0,1-3.23-5.83,38.17,38.17,0,0,1-2.14-14.77c.07-2.46.08-2.48,2.65-3.15,7.33-1.91,14.66-3.77,22-5.69,2.62-.69,3.85-2,3.92-3.85s-1.07-3.17-3.66-4l-1-.35c-3.48-1.06-7-2.11-10.44-3.19-1.87-.58-3.73-1.21-5.6-1.82-.8-.26-1.12-.66-.86-1.54.47-1.65.91-3.31,1.53-4.92,1.88-4.83,3.94-9.59,7.34-13.71a21.19,21.19,0,0,1,8.34-6.5c5.45-2.22,8.84-1.49,12.65,2.74a10.08,10.08,0,0,1,1,1.34,32.83,32.83,0,0,1,4.64,13.82,5.59,5.59,0,0,0,7.62,4.5c1.37-.48,2.71-1,4.1-1.45,4.59-1.33,9.23-2.1,14-1.1,4.63,1,7.88,3.73,8.66,7.75a14,14,0,0,1-.19,5.93,25.88,25.88,0,0,1-4.51,9.29,40.85,40.85,0,0,1-13.32,11.74c-4.25,2.34-7.92,5.16-10.11,9.41A2.11,2.11,0,0,1,1161.37,776.37Zm5.41,47.64c4.29-3.64,8.5-7.34,12.74-11a29.76,29.76,0,0,0,3.56-3.35c1.18-1.4,1.62-2.91.69-4.58a4.35,4.35,0,0,0-4.42-2.15c-2.48.21-5,0-7.45.37-2.17.29-4.38.33-6.56.6-1.12.15-1.46-.17-1.4-1.16.07-1.23.06-2.47.08-3.36-.12-7.29,2.09-13.68,5.21-19.88a16.48,16.48,0,0,1,7.55-7.18,8.31,8.31,0,0,1,6.13-.6c5.75,1.39,9.18,5.14,11.64,9.88a4.38,4.38,0,0,1,.35,2.78c-.36,2.33,1.58,4.1,4.1,4a4.66,4.66,0,0,0,3.58-2.11,21.22,21.22,0,0,1,4.17-4.19,27.58,27.58,0,0,1,13.73-5,10.09,10.09,0,0,1,5.76.76,11.52,11.52,0,0,1,6.3,7,28.55,28.55,0,0,1,.33,13.44c-.75,4.13-2.33,8.05-3.73,12a9.75,9.75,0,0,1-2.11,4,2.05,2.05,0,0,0-.58,1.31,7.19,7.19,0,0,1-1.15,2.86c-1.16,2-2.3,4-3.51,5.92a34,34,0,0,1-4.63,6c-2,2-1.65,1.73-3.7.48-1.79-1.08-3.5-2.26-5.24-3.41-2.34-1.54-4.6-3.19-7-4.61a4.45,4.45,0,0,0-6.91,2.79,5.2,5.2,0,0,0-.06,2c.18,1,.34,2,.57,3,1.08,4.62,2.42,9.17,3.84,13.71a18.11,18.11,0,0,1,.56,2.61,1.36,1.36,0,0,1-.59,1.43,23.05,23.05,0,0,1-8.92,4.66,11.87,11.87,0,0,1-9.24-1.43,20.8,20.8,0,0,1-4.66-4.05c-2.28-2.54-3.69-5.57-5.24-8.49a63.33,63.33,0,0,1-4.56-12.63A2.15,2.15,0,0,1,1166.78,824Zm102.09,45.25c-.3,1.62-.71,3.22-.93,4.85a92.31,92.31,0,0,1-9.17,29c-4.55,9.19-10,17.8-17.75,25a4.41,4.41,0,0,1-3.43,1.35q-19.47-.53-38.93-.88a3.67,3.67,0,0,1-3.11-1.46c-12.16-14.91-20.76-31.27-24-49.92a89.46,89.46,0,0,1-1-21.3,2.3,2.3,0,0,1,.54-1.73c1,.8,1.83,1.54,2.72,2.24A20.07,20.07,0,0,0,1186.7,861c8.32-.16,14.65-4.24,20.21-9.56a3.38,3.38,0,0,0,1-3.61q-1.71-5.62-3.26-11.29c-.2-.74-.69-1.49-.41-2.35a4.8,4.8,0,0,1,1.76.95c2.21,1.35,4.42,2.69,6.61,4.07a5.09,5.09,0,0,0,5.19.27,15.19,15.19,0,0,0,4-2.78,43.29,43.29,0,0,0,7.14-8.81c.39-.62.61-1.39,1.39-1.82a3.41,3.41,0,0,1,.43.5c4,7.48,9.73,13.85,15.6,20.09,6.84,7.27,13.72,14.49,21.8,20.61A1.78,1.78,0,0,1,1268.87,869.26Zm34.67-40.33c0,1.83-.33,3.66-.5,5.47a1.53,1.53,0,0,1-1.34-.19c-5.29-2.52-10.73-4.77-15.94-7.43-.64-.33-1.32-.59-2-.86a4,4,0,0,0-4.44.85,3.58,3.58,0,0,0-1,4,8.76,8.76,0,0,0,1.41,2.55c2.44,3.42,4.88,6.85,7.34,10.26,3.33,4.61,6.77,9.14,9.84,13.91.36.56.86,1.06.57,1.87a16.35,16.35,0,0,1-4.77,7.49,6.51,6.51,0,0,1-6.12,1.35,34,34,0,0,1-7.49-2.91,60.21,60.21,0,0,1-10.94-7.92A248.18,248.18,0,0,1,1245,833.41a62.2,62.2,0,0,1-9.35-14.85,2.64,2.64,0,0,1-.32-2.34,89.86,89.86,0,0,0,5.58-17,1,1,0,0,1,1.15-.93,22.18,22.18,0,0,1,4.15.3,42.07,42.07,0,0,1,13.5,5.31,34.94,34.94,0,0,0,3.59,2,4,4,0,0,0,5.72-2.72,24.44,24.44,0,0,1,5-9.92,14,14,0,0,1,2.62-2.48,9.54,9.54,0,0,1,10.08-1.11,13.94,13.94,0,0,1,3.31,2,30.48,30.48,0,0,1,8.44,11.41A58.22,58.22,0,0,1,1303.54,828.93Zm16.66-53.17a25.34,25.34,0,0,1-8.12,4.79c-5.83,2.26-12,3-18.22,3.28a6.29,6.29,0,0,1-3.14-.71,17.69,17.69,0,0,0-11.48-1.66,19,19,0,0,0-8.81,4.37c-.73.64-1.37,1.36-2.2,2.18a9.6,9.6,0,0,1-1-3,56.1,56.1,0,0,0-10.49-22,22.72,22.72,0,0,0-13.88-8.45c-1.37-.27-2.76-.13-4.2-.39a5.25,5.25,0,0,1,1.51-2.94,21.53,21.53,0,0,1,12.37-6.92c2.46-.5,5-1.31,7.55-.34a3,3,0,0,0,2.13-.29c2.51-1.08,3.41-3.41,2-5.84a23.33,23.33,0,0,1-2.62-7.16,11.27,11.27,0,0,1-.25-5.1c1.85-7,7.48-10.54,15.19-8.9,6,1.28,11.26,4.24,16.24,7.56,4.76,3.17,8.6,7.22,12.37,11.49a8.68,8.68,0,0,1-1.07.53c-4.66,1.64-9.11,3.73-13.62,5.68a14.6,14.6,0,0,0-2,.94c-2.82,1.75-2.74,5.1.15,6.78a14.34,14.34,0,0,0,3.26,1.21c4.86,1.39,9.89,1.83,14.91,2.43a96.88,96.88,0,0,1,12.57,1.83,2.46,2.46,0,0,1,1.7,1.1,22.26,22.26,0,0,1,3,6.79A12.51,12.51,0,0,1,1320.2,775.76Z" transform="translate(-19.63 -123.74)"/><path class="cls-1" d="M1074.77,630.94a5,5,0,0,0-4.13-2.24c-2-.06-4-.12-6.05-.13a2.43,2.43,0,0,1-2.08-1c-5.18-6.5-10.4-13-15.66-19.51.4-1,1.24-1.37,1.92-1.89a110.75,110.75,0,0,1,33.15-17.53,14.78,14.78,0,0,0,1.84-.63,4.53,4.53,0,0,0,2.82-4.36,4.35,4.35,0,0,0-3-4.2,44.84,44.84,0,0,0-8.89-2.29c-14.11-2.06-27.74.42-41.14,5-1.61.55-3.21,1.13-4.78,1.8a1.21,1.21,0,0,1-1.66-.44c-2-2.55-4-5.07-6.05-7.57.18-.88.86-1.08,1.36-1.42a61.07,61.07,0,0,1,9.93-5.81c2.23-1,3.24-2.56,3.1-4.66s-1.45-3.43-3.36-4.16c-5-1.9-10.1-1.91-15.26-1.6a39.45,39.45,0,0,0-7.41,1,2.41,2.41,0,0,1-2.68-1.16q-14.62-18.31-29.33-36.58l-8-9.93a20.56,20.56,0,0,1-2-2.85,5.1,5.1,0,0,0-4.41-2.68,3.7,3.7,0,0,0-4.06,2.54,10.33,10.33,0,0,1-2.32,3.52q-14.52,16.49-29,33c-1.35,1.53-1.37,1.53-3.22.71a86.63,86.63,0,0,0-23.46-6.63,66.91,66.91,0,0,0-15.43-.49,6.4,6.4,0,0,0-4.38,2.44,4.56,4.56,0,0,0,.81,6.52,10.3,10.3,0,0,0,2.61,1.31,84.35,84.35,0,0,1,23.86,15.2c.24.22.5.43.73.66a4.72,4.72,0,0,1,.38.62c-.56.69-1.14,1.47-1.78,2.19-3.9,4.44-7.85,8.83-11.69,13.33-1,1.19-1.82,1.17-3.09.6a92.43,92.43,0,0,0-40.91-8.29c-3.21.08-6.42.47-9.63.79a4.36,4.36,0,0,0-4,3.51,4.51,4.51,0,0,0,2.32,5.11c2.62,1.48,5.29,2.86,8,4.2a136.49,136.49,0,0,1,24.12,15.39c.76.61,1.51,1.24,2.45,2-1.21,1.42-2.32,2.74-3.46,4-4.06,4.62-8.16,9.22-12.19,13.88a3.26,3.26,0,0,1-2.95,1.3c-2-.15-4,0-6-.22a4.36,4.36,0,0,0-4,1.78A75.9,75.9,0,0,0,833.55,647a117,117,0,0,0-7.6,31.3,141.06,141.06,0,0,0,3.81,52.33,109.25,109.25,0,0,0,6.5,17.81,5.88,5.88,0,0,0,4.79,3.75c3.59.46,6-1.84,5.64-5.65-.25-2.71-.69-5.4-.93-8.1a108.59,108.59,0,0,1-.5-12.49c0-.56.08-1.12.13-1.76.89.27,1.06,1,1.41,1.51q31.34,47.28,84.44,61.13A128.09,128.09,0,0,0,950,790.13a118,118,0,0,0,17.62.65c26.74-1.15,51.25-9.5,73.13-26a129.64,129.64,0,0,0,30.81-33.33c.35-.55.74-1.08,1.4-2a45.16,45.16,0,0,1,.19,10.66,103.9,103.9,0,0,1-.92,10.42,9.38,9.38,0,0,0,0,2.8,4.36,4.36,0,0,0,3.16,3.77,3.85,3.85,0,0,0,4.49-1.7c3.54-6,7.33-11.81,9.58-18.56a104.51,104.51,0,0,0,5-23.35,134.24,134.24,0,0,0-8.41-61.74A99.86,99.86,0,0,0,1074.77,630.94Zm-24.18-3.83c.19.24.49.45.37.85-.13.08-.26.24-.38.23-6.6-.12-13.19-.23-19.78-.42-1.59,0-2.08-1.19-1.1-2.55a90.9,90.9,0,0,1,9.15-10.52c1-1,1.47-.45,2.11.35C1044.16,619.09,1047.39,623.09,1050.59,627.11Zm-64-12.74c-.16-.15-.39-.3-.29-.61s.39-.25.61-.24c7,.21,14,.44,21,.62a5.67,5.67,0,0,1,4,2c4.62,4.67,7.55,10.55,10.1,16.56,5.58,13.14,7.63,27.14,8.12,41.44a161.25,161.25,0,0,1-.74,21.41,151,151,0,0,1-6.3,30.87c-.21.67-.16,1.56-1.16,2.07a251.11,251.11,0,0,0-3.52-45.14,168.73,168.73,0,0,0-10.67-37.75C1002.76,633.64,996.29,622.78,986.62,614.37Zm15,39.79-9.25-.2c1.08-4.27,2.1-8.33,3.12-12.38l.54-.12A88.51,88.51,0,0,1,1001.66,654.16ZM988.85,632c-1.7,6.65-3.35,13.32-5,20-.5,2-.53,2-2.44,2l-34.58-.41-2.55-.06a14.92,14.92,0,0,1,.51-4.58,121.27,121.27,0,0,1,11-32.57,2.78,2.78,0,0,1,2.83-1.89,16.81,16.81,0,0,0,3.62-.17,14.43,14.43,0,0,1,7.14.65c7.94,2.55,13.91,8,19.13,14.5A2.6,2.6,0,0,1,988.85,632Zm75.24-46a119.57,119.57,0,0,0-39.77,31.43,56.11,56.11,0,0,0-7.18-8.88c-1.69-1.68-3.24-3.55-6-3.57C1020.47,595.08,1050.19,584.42,1064.09,586Zm-44.83,2.09a6.69,6.69,0,0,1-2.37,1.63,72.09,72.09,0,0,0-16.71,12.86c-.87.92-1.52,2.28-3.13,2-1.27-.26-2.63.2-4.09-.42a132,132,0,0,1,20.85-22.85Zm-3.49-20.55c-.27.55-.3.75-.41.84-12.6,9.85-24,20.93-32.4,35.11-.21.36-.46.72-.94.62-3.53-.76-7.07.23-10.6-.07a21.81,21.81,0,0,0-7,.48c-.48.12-1,.57-1.7-.14C976.14,585.35,992.38,571.08,1015.77,567.52ZM935.34,550q13.38-15.16,26.75-30.32c1.17-1.33,1.2-1.33,2.32.07q16.49,20.5,33,41a3.43,3.43,0,0,1,1,1.78c-12.62,5.09-23.3,13.29-32.83,23.73a80.64,80.64,0,0,0-30.89-35A2,2,0,0,1,935.34,550Zm-30.49-.22a1.05,1.05,0,0,1,1.24-.27,75.75,75.75,0,0,1,37.07,20.07,66.84,66.84,0,0,1,15.25,22.68c.41,1,.85,1.9,0,3-3.15,3.88-5.33,8.52-8.46,12.43a6,6,0,0,0-.8,1.84,32.72,32.72,0,0,1-3.55,6.94,90.87,90.87,0,0,0-13.43-37.93A99.5,99.5,0,0,0,904.85,549.75Zm-9.22,167.81c0,.5,0,1,0,1.86-.41-.5-.55-.61-.6-.75-.22-.64-.43-1.29-.61-1.94a135.71,135.71,0,0,1-5.23-30.53c-.66-12-.28-23.84,2.42-35.52,2.06-8.91,4.76-17.54,11.63-23.9a3.87,3.87,0,0,1,3-1.28c6.36.23,12.73.36,19.09.55.6,0,1.28-.18,1.79.27.1.63-.34.8-.64,1a55.5,55.5,0,0,0-8.85,8.69c-7,8.58-11.79,18.49-15.13,29.17A160.69,160.69,0,0,0,895.63,717.56Zm44.5-87.74c.11.35.23.53.19.66a138.23,138.23,0,0,0-5,21.51c-.15,1.1-.74,1.3-1.67,1.27-3.54-.11-7.09-.16-10.63-.24l-6-.13C922.73,642.52,929.69,634.29,940.13,629.82ZM915.94,572a22.56,22.56,0,0,1,3.47,4,81,81,0,0,1,16.33,35.63c.25,1.33.44,2.68.61,4,.06.48.22,1.12-.32,1.37a1.42,1.42,0,0,1-1.6-.16,9,9,0,0,1-1.21-1.57,93.61,93.61,0,0,0-15.9-18,105.25,105.25,0,0,0-14.38-10.5Zm-41.7,19.92c-4-3-8.16-5.71-12.63-8.49a3.28,3.28,0,0,1,2.42-.29,74.74,74.74,0,0,1,16.51,3.51,87,87,0,0,1,40.85,27.74c.52.64,1.35,1.17,1.27,2.32-5.74-.13-11.38-.24-17-.39-1.31,0-2.62-.08-3.68.87s-1.77.53-2.56-.51A122.7,122.7,0,0,0,874.24,591.91Zm-.84,28.29c2.58-2.93,5.18-5.85,7.75-8.78.5-.57.91-.9,1.58-.22a90.23,90.23,0,0,1,10.08,11.63c.79,1.12.61,1.51-.67,1.51-2.18,0-4.35-.07-6.52-.12l-14.72-.32c-.07-.19-.15-.37-.22-.55C871.58,622.3,872.48,621.24,873.4,620.2Zm12.59,18a89.1,89.1,0,0,0-3.48,12.74c-.25,1.23-.85,1.43-1.85,1.41-2.57,0-5.14,0-7.71,0-1.33,0-2.66-.06-4.11-.09C871.23,647.55,881.73,639,886,638.16ZM846.1,673.33a143.58,143.58,0,0,0-9.51,45.88c-.27-.32-.43-.42-.47-.56-.13-.49-.24-1-.33-1.48a134,134,0,0,1-1.13-37.58,105.8,105.8,0,0,1,8-31.39,63.33,63.33,0,0,1,8.53-14.48c.52-.65,1-1.24,2-1.16,6.59.53,13.2.52,19.79.75.51,0,1.13-.2,1.52.43-.31.68-.93.94-1.43,1.32a67.16,67.16,0,0,0-8.39,7.71C856.5,651.63,850.57,662,846.1,673.33ZM1071,714.59a119.69,119.69,0,0,1-20.83,29.67c-25.32,26.08-55.92,37.91-91,37.23a110.22,110.22,0,0,1-27.2-4q-55.74-15.4-84.43-68.12a6.88,6.88,0,0,1-.7-4.87c.7-3.59,1.29-7.2,2.12-10.75a113.63,113.63,0,0,1,11.81-30.64,2.79,2.79,0,0,1,2.84-1.76c5,.2,10,.21,15,.31,2.11,0,2.11.06,2,2.28,0,.26,0,.51,0,.77a149.38,149.38,0,0,0-.14,23.46,147.37,147.37,0,0,0,4.76,28.57A91.84,91.84,0,0,0,896,742.22a16.55,16.55,0,0,0,2.24,3,4.37,4.37,0,0,0,5.15,1c2-.86,2.73-2.54,2.67-4.7,0-.77-.08-1.53-.17-2.29-.88-7.26-1.31-14.55-1.49-21.88A167.15,167.15,0,0,1,907.86,679a116.85,116.85,0,0,1,4.32-15.15c.42-1.17,1-1.88,2.29-1.71a15.5,15.5,0,0,0,1.93,0l42.55.94c14.59,0,29.18.53,43.77.44,2.15,0,2.15,0,2.79,2.22.08.24.17.47.24.72a223.06,223.06,0,0,1,7.44,53.6c.21,8.43-.1,16.85-.53,25.27a52.25,52.25,0,0,0,.05,5.87,4.19,4.19,0,0,0,2.68,3.89,4.09,4.09,0,0,0,4.52-.89,10.12,10.12,0,0,0,1.74-2.44,104.34,104.34,0,0,0,8.27-17.88c7.79-21.82,10.22-44.39,8.72-67.52-.14-2.16-.16-2.17,2-2.14,4.43.06,8.87.24,13.3.16a3.7,3.7,0,0,1,3.79,2.32c7.39,13.78,11.71,28.63,14,44.23A5.75,5.75,0,0,1,1071,714.59Zm-36-71.65c4.45,1.54,11.81,7.64,14.47,12.13L1038,655a.85.85,0,0,1-.84-.77Zm51.21,62.57a97.13,97.13,0,0,1-3.33,22.62c-.13.44,0,1.08-.85,1.14a156.83,156.83,0,0,0-1.69-20c-2.16-14.88-6.09-29.18-12.67-42.56-5.5-11.22-12.44-21.21-22.41-28.53a8.22,8.22,0,0,1-.74-.89c7.72.17,15,.36,22.36.46a3.39,3.39,0,0,1,2.94,1.81,81.22,81.22,0,0,1,7.41,14A124.12,124.12,0,0,1,1086.19,705.51Z" transform="translate(-19.63 -123.74)"/><path class="cls-1" d="M1017.78,330.81c-2.32,1.44-4.64,2.87-7,4.26-20.29,12-40.63,23.91-60.84,36-3.21,1.92-8.49,3.22-6.18,8.44,1.43,3.23,5.07,2.92,11.82-1,19.47-11.38,38.87-22.87,58.3-34.31a64.94,64.94,0,0,1,6.22-3.57c2.28-1,4.46-4.24,7.22-1.68,1.86,1.72.24,4.26-.62,6.33-1,2.4-2.15,4.74-3.13,7.14-12.27,29.88,3,62.36,35,75,28.05,11,55.5,7.16,82.78-2.22a13.44,13.44,0,0,0,2.74-1.42c4.89-3.14,4.91-5.78-.38-8.56a184.81,184.81,0,0,1-24.54-14.84,100.24,100.24,0,0,1-29.43-34.11c4.18-1.24,5.32,1.3,7,2.63,18.22,14.1,36.84,27.67,56.76,39.76,5.43,3.3,9.21,3.24,14-.11a95.17,95.17,0,0,0,18.9-17.9A171.15,171.15,0,0,0,1209.36,354a38,38,0,0,0,2.44-6.35c1.41-5.53.29-6.23-6.11-6.57-20-1.05-37.8-7.63-53.89-18.66a375.14,375.14,0,0,0,44.91,6.61c1,.08,2.09.28,3.13.36,23.94,1.85,21.74-1.33,29.32-15.79,7.2-13.73,11-28.35,13.17-43.39,1.44-10.28-.41-11.86-11-9-10,2.66-19.85,2.21-30.22-.57,2.84-3.44,6.72-3.05,9.9-3.79a257.85,257.85,0,0,0,25.84-7.91c6.33-2.18,9.72-5.89,10-12.08.49-9.69-.23-19.26-3.29-28.59-.6-1.8-1.34-3.86-2.75-5.11a82.51,82.51,0,0,0-33.31-17.68c-4.29-1.19-7.49,1-10.49,3.19A113,113,0,0,0,1179.4,205c-3.07,3.43-6.1,6.9-9.44,10.67-.55-7.93,3.56-18.68,9.51-25.31,1.11-1.23,2.67-2.13,3.69-3.4,3.51-4.33,2.55-7.71-3.23-9.5-11-3.4-22.21-6.15-33.76-7.12-9.05-.76-18.19-.47-27.28-.91-8.35-.41-13.21,3.7-15.82,10.23-3.6,9-7,18.16-9.86,27.39-2.37,7.55-3.88,15.31-6.55,22.94a63.26,63.26,0,0,1-2.06-27.36c1.45-9.06,1.24-18.55,7.21-26.71,1.92-2.62.12-5-3.24-5.72a38.74,38.74,0,0,0-7.27-.89c-23.29-.5-46.17,1.47-67.93,9.74-1.94.74-3.84,1.54-5.75,2.33-5.66,2.35-6.75,5.94-5.72,11.68a478.76,478.76,0,0,0,15,60c1,3.22,3.3,6.39,1.72,11.67a96.65,96.65,0,0,1-16.55-23.56c-6.26-12.73-9.11-26.24-10.6-40-.29-2.69,1-6.23-3.13-7.37-3.51-1-5.88,1.45-8.26,3.29a87,87,0,0,0-16,16.45c-12.27,16.06-20.52,33.31-20.22,53.58.41,28.63,25.68,54.58,56.73,57.34,5.22.47,10.48.66,15.71,1.06a3.58,3.58,0,0,1,3.19,2.17C1020,329.1,1019,330.07,1017.78,330.81Zm-4.54-14.48c-3.84-.21-7.7-.23-11.54-.55-23.75-2-44.86-20.28-47.75-42.07-3.43-25.88,8.85-46.35,26.83-65,3.61,2.68,2.94,5.87,3.44,8.52,5.12,27.47,20,49.69,42.88,67.71,3.47,2.74,7,5.4,11.3,6.93,2.41.85,4.86.8,6.29-1.76a3.7,3.7,0,0,0-1.16-5.19c-7.74-5.5-10.09-13.76-13.06-21.56a402.69,402.69,0,0,1-14.27-47.28c-1.69-6.88-2.74-13.89-4.32-20.8-1-4.19.66-6.7,4.88-8.21,19.81-7.1,40.37-9.41,61.84-9,.5,5-1.19,9-1.92,13-4.36,24-2.09,47.33,8.81,69.7,1.56,3.19,2.67,8.48,8.12,7.2s3.51-6.26,3.16-9.88c-2.51-26,5-50.24,14.53-74.21,1.71-4.31,4.8-5.72,9.59-5.76,14.42-.14,28.73.53,42.69,4.2,2.5.66,5.55.4,7.47,3.3-9.59,13.13-13,28.14-15,43.53-.54,4.19-2.93,9.84,3.68,11.51,5.63,1.43,7.21-3.8,9.48-7.32a165,165,0,0,1,31.2-36c3.27-2.8,6-3.46,10.25-2,20.78,7.22,26.71,14.84,26.86,35.28,0,.33,0,.65,0,1,.74,5.66-2,8.78-7.89,10.67-15.9,5.11-32,9.28-48.9,10.39-4,.26-8.48.65-9.33,4.72-1.05,5.08,4.18,5.9,8,7.33,1.29.48,2.66.8,4,1.16,15.55,4.14,31.24,7.3,48.8,4.68-1.59,17.63-7.85,32.45-15.52,46.92-2,3.69-5.08,4-8.68,3.71-27.78-1.91-55.06-5.67-79.84-18.57a56.53,56.53,0,0,0-6.59-2.95,4.48,4.48,0,0,0-4.76,1.19,3.23,3.23,0,0,0-.39,4.44,63.82,63.82,0,0,0,7,8.38c18.34,17.25,40.45,28.41,65.92,34.12,3.55.8,7.69.49,10.72,3.87-8.14,16.49-17.81,32-32,44.75-6.9,6.24-7,6.09-14.78,1.39a440.39,440.39,0,0,1-54.47-39.25c-7.68-6.39-16.31-12.38-19.26-22.33a4.53,4.53,0,0,0-5.54-3.34c-2.81.52-3.89,2.71-3.66,5.15a46.76,46.76,0,0,0,1.55,9.49c8.22,26.46,23.4,48.59,48.41,64.55,3,1.93,6.59,3.36,9,6.44-1.18.88-1.85,1.73-2.74,2A112.68,112.68,0,0,1,1077.9,424c-35.67-5.38-62-40.92-43.84-72.33a26.68,26.68,0,0,0,2.64-6.27c.59-2.14,1.54-4.72.77-6.56-2.8-6.73,1.32-9.45,6.74-12.59,31.92-18.53,63.66-37.32,95.44-56.06a35.4,35.4,0,0,0,6.55-4.7,3.84,3.84,0,0,0,.35-5.33,4.56,4.56,0,0,0-5.53-1.57,63.51,63.51,0,0,0-8.21,4.21q-47.19,27.9-94.3,55.9c-4.8,2.85-9,6-14.37.42C1021.58,316.49,1017.11,316.55,1013.24,316.33Z" transform="translate(-19.63 -123.74)"/><path class="cls-1" d="M765.47,539.25c2.33,0,3.9-1.75,4.09-4.78.41-6.31.66-12.63.92-19,.92-22.11,3.36-43.85,11.24-64,3.47-8.87,7.39-17.55,14.37-23.47a13.1,13.1,0,0,1,.51,2.81c-.34,2.95-.91,5.86-1.17,8.81-2.64,29.38-4.77,58.75,3.41,87.24,4.48,15.61,6.65,31.49,4.14,48.16-.45,2.93-1,6.21,1.37,8.18,2.75,2.33,4.76-.39,7-2.1,5.17-3.86,8.37-10.38,13.07-14.92,16-15.43,34.23-25.74,51.62-38a116.24,116.24,0,0,0,33-36.27c9.74-16.45,17-34.87,23.17-54a145.35,145.35,0,0,0,6-61.4c-1.68-15.21-6.46-28.36-16.54-37.71-8.83-8.19-18.15-7.61-25.91,2.42a81.17,81.17,0,0,0-9.33,16.28c-1,2.13-1.5,4.84-3.83,5.52-1.35-1.53-.73-3.48-.64-5.22,1.23-23.48-7.56-39.87-22.44-51.48-14.38-11.22-32.68-9.13-43.75,4.79a124.12,124.12,0,0,0-17.5,29.4A70.37,70.37,0,0,0,792.8,374c.62,7.77,1.62,15.48,2.27,23.25.73,8.63-.09,16.47-5.35,23.34a104.53,104.53,0,0,0-13.78,23.17c-11.89,28.42-13.16,59.27-14,90.26C761.87,536.94,762.91,539.26,765.47,539.25Zm45.87-86.09c12.23-14.1,26.61-22.33,43.9-24.29-5.85,16.74-11.56,32.14-27.17,36-8.65,2.13-14.87,9.9-21.21,17.12-1.45,1.65-2.45,4-4.75,4.91C798.76,472.6,803.68,462,811.34,453.16Zm-3.65-27.66c7.29-13.51,13-28.4,23.63-38.75,9.48-9.26,25.85-9.54,35.13-.24,2.1,2.1,1.84,4.33,1.26,6.88-3.07,13.63-7.86,24.64-20.53,26.79-15.15,2.57-28.32,11.31-39.84,24.24-1.08,1.21-2.33,2.3-4.29,2.06C803.33,439,804.17,432,807.69,425.5Zm-1.37-43.09c5.92-13,12-25.63,20.18-36.55,3.5-4.68,7.45-8.47,12.15-10.76,7.48-3.63,13.83-1.08,18.08,7.55a142.94,142.94,0,0,1,11.06,31.2c-3.92.71-6.39-1.66-9.16-2.6-13.35-4.5-25.22-1.94-35.4,11.28-4.73,6.15-9.59,12-12.91,19.68-1,2.41-2.09,5.33-5.19,6.52C803.05,399.69,802.08,391.71,806.32,382.41Zm3,147.07c-8.25-17.65-7.9-24.64,1.8-38.4,6.79-9.64,14.83-16.66,26.24-18.77-1.92,13.24-4.73,24.15-13.33,32.11C817.44,510.49,812.7,519.26,809.28,529.48ZM814.84,561c.16-19.18.82-36.88,15.24-49.36C829.9,531,824.45,548.6,814.84,561Zm34.3-26c-4.78,3.53-9.7,6.73-16.38,11.34a223.37,223.37,0,0,0,6.71-40.23c6.56,4.46,11.78,8,13.7,16.24C854.74,529.05,854.11,531.31,849.14,535Zm21.21-14.33c-2.27,1.64-4.67,3-8.06,5.13-2.11-11.68-6.54-19.6-14.09-25.21-6.29-4.68-6.88-8.79-4.48-17.9,2.18-8.34,4-17,9.51-25,3.61,15.16,10.91,25.62,18.1,36.2a36.55,36.55,0,0,1,3.86,7.34C878.54,510,877,515.86,870.35,520.65Zm26.34-52.75c-2.56,6.92-2.59,14.39-2,21.88.45,6.1-3.09,13.71-7.21,16.14-1.28.75-2.41.41-2.73-1.26-2.64-13.65-11.31-22-17.28-32.7-3.58-6.41-5.48-13.53-6.48-21.44-1.55-12.22,3.53-21.3,7.93-32.1,7.68,6.93,14.7,12.73,21.25,19.28C897.91,445.46,901.41,455.16,896.69,467.9Zm4-118.21c5.58-7.88,11.07-8.34,17.54-1.8a30,30,0,0,1,6.73,10c9.33,23.61,7.45,47.58-.29,71.77-.54-5.71-1-11.43-1.64-17.13-.69-6.61-1.4-13.24-3.15-19.55-4.42-15.95-14.77-22.66-27.57-17.93-1.38.5-2.74,1.08-5.74,2.28C891.25,366.46,895.26,357.44,900.74,349.69ZM878.93,393c5.07-2.85,10.18-5.63,15.39-8,8.11-3.68,14.42-.08,17.67,10,2.24,6.92,2.8,14.37,3.48,21.75.85,9.21,1.12,18.55,3.47,27.42a11.41,11.41,0,0,1-.1,7.52,280.36,280.36,0,0,1-15.22,33.06c-2.38-5.07-1-9.56.4-13.33,6.84-18.56,1.34-32-12.62-45.61-4.81-4.71-10.08-8.66-14.87-13.4C871.17,407.09,872.54,396.61,878.93,393Zm-77.16-36.73a104,104,0,0,1,17-34.95c12.61-17.16,29.24-13.4,39.75-3.82s16.92,22.05,13.59,40.24c-2.06-5.17-4-10.41-6.19-15.51-8.83-20.78-23.79-24.89-38.64-10.48-8.26,8-14.9,18-20.23,29.36-1.45,3.09-2.71,6.26-5.66,9.07A26.55,26.55,0,0,1,801.77,356.28Z" transform="translate(-19.63 -123.74)"/><path class="cls-1" d="M1239.89,362.19c-3.47,2.23-2.83,5.42,1.29,6.82,7.66,2.59,14.27,6.84,21.22,10.59,6.45,3.48,13.49,4,21.26,2.17,0,9.69,5.45,15.9,12.9,21.11a39.44,39.44,0,0,1,10,9.37c3.29,4.65,7.59,4.43,10.31-.3,4.31-7.5,8.28-15.17,12.25-22.84,3-5.86,3.1-12.24,2.5-19.78,11.75,3,21.57.26,31.11-3.86,4.55-2,9.23-3.59,14-5.16,6.92-2.3,7.69-5.49,2.49-10.18a57.5,57.5,0,0,1-9.45-11c-4.57-6.88-10.5-12.17-20.87-12.66,4.78-10.92.37-20.18-5.06-29.37-1.7-2.88-2.63-6.17-3.81-9.3-2.5-6.71-4.33-7.28-9.5-2.55-1.93,1.76-3.82,3.51-6.39,4.27a32.57,32.57,0,0,0-21.65,18.91c-5.75-2.56-10.68-6.38-17-7a61.93,61.93,0,0,1-17.31-3.62c-5.52-2.15-9.21,1.4-7.38,6.95a31.64,31.64,0,0,1,2,10.57,32.2,32.2,0,0,0,6.57,21.17c-2.4,1-4.46,1.74-6.46,2.63-5.73,2.55-10.47,6.23-13.51,11.45C1246.89,355,1244.56,359.19,1239.89,362.19Zm14.44-4c7.15-12.68,12.19-15,27.81-12.55,2.46.38,4.9.72,5.88-2.07s-1.1-4.14-3.21-5.27c-6.43-3.47-11.66-7.94-13.16-15a53.47,53.47,0,0,1-.62-16c4.55.55,8.65,1,12.74,1.56,7.59,1,13.24,4.71,16.94,11,.71,1.22,1.29,2.52,2.12,3.67,1.33,1.83,2.68,4.1,5.6,3,2.76-1.07,2.49-3.38,1.92-5.68-1.93-7.76.58-14.5,6.59-19.55,4.34-3.64,10.33-5,15.82-6.74,3,2.64,3.59,6.06,5.42,8.87,5.83,8.94,7.45,17.6-2.14,25.33-1.63,1.31-2.45,3.22-1,5.18,1.14,1.53,3,1.8,4.8,1.5s3.45-.79,5.21-1c6.34-.87,11.64.56,15.61,5.8a112.13,112.13,0,0,1,9.49,13.81c-5.37,2.22-10.43,4.37-15.55,6.42-9.24,3.7-18.35,3.89-27.2-1.42-2.06-1.23-4.34-2.4-6.55-.69s-1.32,3.89-.15,6c5.1,9.3,3.87,18.35-1.52,26.93-10.39,16.54-4.94,14.34-20.76,3.45-5.77-4-7.18-9.31-5.68-15.5.39-1.61,1-3.17,1.54-4.75a4,4,0,0,0-1.65-5.14c-1.76-1.14-3.4-.41-4.92.52a23.71,23.71,0,0,0-2.06,1.56c-6.56,5.09-13.51,4.91-20.62,1-4.58-2.54-9-5.27-13.4-7.83C1251.65,361.83,1253.25,360.12,1254.33,358.2Z" transform="translate(-19.63 -123.74)"/><path class="cls-1" d="M730.34,611.87c-1.45-.67-1.93-2.12-2.74-3.25-5.82-8.14-11.62-16.29-19.26-22.81a51.48,51.48,0,0,0-4.79-3.67,4.25,4.25,0,0,0-5.2,0c-1.63,1.2-2.05,3.19-1.25,5.54a7.44,7.44,0,0,0,.53,1.19c6.09,10.82,6.9,23.05,8.84,35a4.68,4.68,0,0,1-.4,3.2c-1.45-.12-2.39-1.31-3.5-2.09a108.73,108.73,0,0,0-33.78-16.5,69.58,69.58,0,0,0-8-1.58,4.65,4.65,0,0,0-5.33,2.73c-.86,1.81-.27,4,1.7,5.87a24.41,24.41,0,0,0,3.43,2.61c16.26,10.83,28.25,25.73,38.47,42.32a6.53,6.53,0,0,1,.47,1.26c-1.31.43-2.17-.51-3.13-1A99.46,99.46,0,0,0,671,652.15a15.19,15.19,0,0,0-2.12-.28c-2.54-.13-4.52,1-5.21,3s0,3.83,2.3,5.55a101.25,101.25,0,0,1,23.78,24.38c3,4.43,5.65,9.09,6.86,15-2.9,0-5.54,0-8.17,0-1.57,0-3.14-.08-4.71-.07-5.15,0-6.57,1.52-6.72,6.7-.12,4.39-.4,8.77-.59,13.15-.17,3.88,1.28,5.6,5.08,6.06.28,0,.57,0,.86,0,2.23.27,5.05-.9,6.55.83,1.26,1.45,1.25,4.1,1.71,6.23q6.75,31.89,13.46,63.79c.18.86.39,1.71.61,2.56,1,4,2.3,5,6.28,5.16q12.42.36,24.84.68,15.63.4,31.27.76c1,0,2,.07,3,0,3.93-.31,5.31-1.34,6.42-5.25,2-7,3.89-14.06,5.83-21.09q6.69-24.25,13.38-48.51c1.13-4.08,1.16-4.07,5.16-4,1.72,0,3.44.14,5.15,0,3.16-.19,5.27-1.89,5.39-5.1.2-5.54.14-11.11-.19-16.64-.19-3.16-2.12-4.53-5.26-4.48-3.85.07-7.71.26-11.56.33-.94,0-2,.28-2.89-.5-.12-1.39.7-2.46,1.29-3.59,6.3-12.06,14.66-22.29,25.67-30.15.71-.5,1.42-1,2.1-1.53a4.77,4.77,0,0,0,2.07-4.94,5.13,5.13,0,0,0-4.16-4,11.85,11.85,0,0,0-4.67,0,83.17,83.17,0,0,0-24.7,7.78c-.14-1.63.75-2.43,1.33-3.29,10.65-15.65,23.34-29.18,39.1-39.54.24-.16.5-.29.73-.45,2.76-2,3.67-3.93,2.87-6.17s-2.46-2.77-6.11-2.56c-12.27.7-23.28,5.4-34,11.16-3.64,2-7.13,4.23-11.28,6.72a39,39,0,0,1,1.16-9.24A169,169,0,0,1,790.13,596c.33-.81.62-1.64.9-2.47,1.13-3.36.78-5.19-1.25-6.65s-3.84-1.14-6.57,1.16a137.69,137.69,0,0,0-20.45,21.81c-.87,1.13-1.49,2.5-2.77,3.35-1.29-.37-1.07-1.55-1.22-2.45q-2.65-15.76-5.23-31.53c-.46-2.82-.89-5.7-4.27-6.28-3.16-.53-4.49,2.14-5.92,4.25a19.31,19.31,0,0,0-1.91,4.38c-3.1,8.79-6.14,17.6-9.27,26.39C731.7,609.3,731.64,610.87,730.34,611.87Zm-14.56-4.27c9.91,13.12,17.3,27.66,23.37,43,1.77,4.45.94,8.32-.11,12.45-1.32-.14-1.58-1.08-2-1.77A133.25,133.25,0,0,0,717.75,638a7.08,7.08,0,0,1-2.39-6.12,60.18,60.18,0,0,0-1.16-16.93c-.7-3.39-1.09-6.84-1.65-10.46C714.33,605.09,714.94,606.49,715.78,607.6Zm-30.13,20a10.66,10.66,0,0,1-2.66-3.4c24.91,10.35,55.34,45.39,61.6,75.95-6.45.08-12.84.07-19.21.28-2.47.08-3.15-1.06-3.27-3.32-.45-8.61-3.36-16.55-6.66-24.33C708.25,655.82,697.91,641,685.65,627.59Zm2,39.66c4.32,1,8,3.22,11.63,5.45,9.5,5.81,10.61,7.41,13.07,18.46a34.12,34.12,0,0,1,.86,6.92c0,1.51-.56,2.13-2,2a15.65,15.65,0,0,0-2.56,0c-2.08.21-3-.65-3.41-2.81-1.2-6.09-4.12-11.43-7.39-16.59A151.42,151.42,0,0,0,687.6,667.25ZM769,794c-.6,2.25-2,2.44-3.83,2.39q-24.39-.65-48.79-1.22c-3.46-.09-3.5-.14-4.3-3.86q-4.4-20.52-8.71-41a7.15,7.15,0,0,1-.17-3.92c25.8.74,51.71,1.22,78.1,2.86C777.1,764.48,773,779.21,769,794Zm17.91-65.14c-.48,1.83-1,3.66-1.5,5.48-1.51,5.38-1.51,5.37-7.11,5.25l-34.37-.77c-12.51-1.15-23.49-1.37-34.47-1.64-2.13,0-4.27-.21-6.41-.17-1.92,0-2.92-.76-3-2.76a14.74,14.74,0,0,0-.49-2.12c-1.39-6.52-1.39-6.51,5.31-6.44,26.24.26,52.47,1.27,78.72.9.57,0,1.14,0,1.71,0C786.79,726.59,787.31,727.38,786.92,728.83ZM799.7,710c2.06,0,2.67.86,2.84,2.83.42,4.8.29,5-4.25,5-1.43,0-2.85-.06-4.28-.07-20.56-.12-41.11-.87-61.68-.66-14.56.14-29.13-.37-43.69-.63-2.93-.06-2.93-.16-2.91-2.94,0-3.91.26-4.34,3-4.33,6.85,0,13.7-.07,20.54-.05,14.42.05,28.84.56,43.26.88,6.29-.24,12.57-.23,18.85-.31C780.85,709.61,790.28,710,799.7,710Zm1.43-40.77c-7.84,9-14.54,18.5-19.13,29.51-.77,1.86-6.24,2.87-7.89,1.6a1.46,1.46,0,0,1-.42-1.56,60.59,60.59,0,0,1,5.35-17,4.48,4.48,0,0,1,1.41-1.62C786.81,675.53,793.5,671.5,801.13,669.24Zm-19.34-27.81a116.14,116.14,0,0,1,25.67-15.08,13.93,13.93,0,0,1-1,1.57c-.6.63-1.22,1.23-1.83,1.85-19.21,19.46-34.68,41.19-40.2,69-.14.73-.21,1.57-1.07,1.64a34.77,34.77,0,0,1-8.53-.2c-1-.17-.92-1.37-1.17-2.15-.94-2.91-1.67-5.89-2.72-8.75a13.52,13.52,0,0,1-.25-8.57c1.73-6.31,5-11.79,8.75-17A110,110,0,0,1,781.79,641.43Zm-5.47-34a4.64,4.64,0,0,1-.21,3.26,117.79,117.79,0,0,0-4.05,24.15,6.81,6.81,0,0,1-2.64,5.13,105.7,105.7,0,0,0-19.12,21.24c-.4.61-.65,1.6-2,1.29C752.29,641.49,762.31,623.8,776.32,607.44ZM737.39,620c2.71-7.54,5.33-15.12,8-22.68a3.93,3.93,0,0,1,1.66-2.52c1.65,10.06,3.27,19.84,4.85,29.63a3.83,3.83,0,0,1-.09,2.13c-2.14,4.56-4.37,9.08-6.79,14.09-2.6-5.31-4.82-10.17-7.34-14.85A6.52,6.52,0,0,1,737.39,620Z" transform="translate(-19.63 -123.74)"/><path class="cls-1" d="M1114.08,807.66a64.54,64.54,0,0,1,2.36-8.44c1.83-6,1.14-7.26-3.77-6.39-1.83.32-3.64.65-5.34-.05-6.72-2.77-13.29-1.84-20.15,3-1.81-4.58-2.59-9.68-5.62-13.13a42.71,42.71,0,0,1-7.34-10.9c-1.88-4.2-5.47-3.45-7.11,1.37a34,34,0,0,1-3.89,8.48,35.29,35.29,0,0,0-6.47,18.19c-1.71-.47-3.14-.92-4.6-1.25a17,17,0,0,0-12.42,1.62c-3.37,1.87-6.57,3.75-10.41,3.63-2.86-.09-4,2.48-2.52,5.46,2.79,5.53,4.25,11.74,6.13,17.75A18.74,18.74,0,0,0,1043,838.76c-4.53,6.89-4.59,13.92-3.14,21.21a39.26,39.26,0,0,1,.86,11.49c-.46,4.89,1.89,6.81,5.52,4.76,5.76-3.25,11.43-6.78,17.09-10.31,4.32-2.7,7.34-7.19,10.56-12.84,4.73,7.8,11.14,10.59,18,12.26a91,91,0,0,1,9.71,3.06c4.69,1.71,6.58-.19,6.06-6A59.74,59.74,0,0,1,1108,850c.84-7.08.22-13.69-5-19C1110.58,825.49,1112.62,816.8,1114.08,807.66Zm-18.9,18.71a3.17,3.17,0,0,0-2.94,3.21A3.49,3.49,0,0,0,1094,833c1,.65,2.18,1.11,3.21,1.78,3.72,2.44,5.82,6,5.44,11.64a119.75,119.75,0,0,1-1.51,14.37c-3.84-1-7.49-1.92-11.12-2.93-6.56-1.83-11.41-6.09-13.55-14.12-.5-1.87-1.14-3.8-3.09-3.64s-2.51,2.12-2.89,4.19c-1.69,9-6.57,14.89-13.39,18.38-13.17,6.74-9.29,7.8-12.46-7.55-1.16-5.61.6-10.07,4.29-13.75,1-1,2-1.76,3-2.63a4.21,4.21,0,0,0,1.54-4.44c-.38-1.66-1.58-1.93-2.81-2a13.69,13.69,0,0,0-1.8.11c-5.81.45-9.36-3-11.23-9.25-1.2-4-2.25-8.09-3.33-12,1.26-1.92,2.9-2.36,4.36-3.2,9.67-5.56,13.38-4.75,20.4,4.49,1.11,1.46,2.22,2.88,4,1.37s1.36-3.47.79-5.29c-1.74-5.56-2.38-11.25.15-17a55.87,55.87,0,0,1,7.16-11.66c2.12,2.58,4,4.88,5.93,7.24q5.22,6.59,3.69,16c-.2,1.21-.51,2.41-.61,3.62-.16,1.94-.52,4.2,1.53,4.81s2.89-1.19,3.66-3.1c2.62-6.44,7.09-10,12.59-10.7,4-.49,7.75,1.41,11.42,2.84.31,3.3-1,6-1.32,8.91C1107,818.59,1103.8,825.51,1095.18,826.37Z" transform="translate(-19.63 -123.74)"/><path class="cls-1" d="M1466.44,455.14c-5.25-38.11-15.76-74.8-32.47-109.63-41.09-85.7-105.67-149.07-194.3-188.64-67.67-30.21-138.7-40-212.37-28.36-62.23,9.85-117.9,34.6-167.62,72.08C819.58,230.82,786.2,267,758,307.85c-4.34,6.27-8.4,12.72-12.75,19.34-1.39-2.08-2.65-3.92-3.87-5.8-28.84-44.3-63.1-84-105.49-116.82-59.24-45.81-126.15-73.46-202.13-79.44a365.77,365.77,0,0,0-104.22,6.47c-70.05,14.69-131.28,46.11-183.85,93.19a373.57,373.57,0,0,0-72.48,88.68C41.5,367.15,24.38,425.14,20.53,486.76a493.79,493.79,0,0,0,5.45,108c7.39,46.79,21,91.94,39.29,135.76,23.1,55.27,52.67,107.2,86.44,157,50.9,75,110,143.59,173.36,208.85,66.07,68.05,136.59,131.57,209.28,192.85,49.18,41.46,99.44,81.67,150.33,121.14,19.19,14.88,38.57,29.54,57.79,44.39,2,1.59,3.35,1.79,5.43,0,3.88-3.41,8.07-6.5,12.19-9.65C834.64,1388,908.22,1329.72,979.5,1268.8c81-69.26,158.85-141.7,230.54-220.16a1513.16,1513.16,0,0,0,107.53-131c40-55,75.12-112.63,102.27-174.67,25.88-59.13,43.72-120.27,49-184.57A470.77,470.77,0,0,0,1466.44,455.14Zm-19.59,76.4c-1.06,21.46-2.78,42.81-6.25,64-6.3,38.58-17.13,76-31.34,112.46-22,56.62-51.38,109.61-85.33,160.28-37,55.26-78.86,107-123.64,156.48-73.31,81.07-153.45,155.46-236.66,226.83-70.12,60.14-142.63,117.47-215.82,174-2,1.54-3.16,1.56-5.15,0-82.21-63.13-163.08-127.8-241.08-195.79-48.77-42.51-96.39-86.17-141.91-132-51.05-51.33-99.77-104.62-144-161.69C175.21,884,138.77,829.2,109.06,770.42,84.65,722.12,65.55,672,54.36,619.17A494.09,494.09,0,0,1,43.9,536.55c-.8-19.74-1.14-39.43.63-59.14a358.8,358.8,0,0,1,20.64-92A363.75,363.75,0,0,1,128.26,276.6Q183.63,210.46,264,176.12a361.68,361.68,0,0,1,98-26.44,346.86,346.86,0,0,1,90,.16,340.11,340.11,0,0,1,85.45,23.25C573,187.94,605,208.21,634.11,232.87c39.51,33.4,70.77,73.23,97.54,116.61,4.27,6.92,8.74,13.72,13.13,20.57.12.18.36.28.71.55,8-12.7,16-25.44,24.14-38,32.73-50.49,73.08-94.1,124.12-127.85,41.56-27.49,87-45.85,136.86-53.61,70.07-10.9,137.13-.88,201.38,27.53,63.86,28.22,114.49,71.51,153,128.25a361.67,361.67,0,0,1,55.1,130.24C1446.61,468.27,1448.43,499.77,1446.85,531.54Z" transform="translate(-19.63 -123.74)"/></svg>