<svg xmlns="http://www.w3.org/2000/svg" width="370" height="190" version="1"><path style="marker:none" d="M210 80l9 43h6" fill="none" stroke="#4e9a06" stroke-width="2" overflow="visible"/><path fill="#c00" fill-rule="evenodd" stroke="#000" stroke-width="2" d="M115.053 125.053h29.974v29.974h-29.974z"/><path opacity=".3" fill="#729fcf" fill-rule="evenodd" d="M0 0h370v25H0z"/><path opacity=".3" fill="#729fcf" fill-rule="evenodd" d="M0 0h370v45H0z"/><text style="text-align:start;line-height:100%;-inkscape-font-specification:DejaVu Sans Bold" x="138.991" y="15" font-size="14.461" font-weight="700" font-family="DejaVu Sans"><tspan x="138.991" y="15">Clock Cycle</tspan></text><text style="text-align:start;line-height:100%;-inkscape-font-specification:DejaVu Sans Bold" x="15.548" y="40" font-size="12" font-weight="700" font-family="DejaVu Sans"><tspan x="15.548" y="40">1</tspan></text><text style="text-align:start;line-height:100%;-inkscape-font-specification:DejaVu Sans Bold" x="70" y="38.81" font-size="12" font-weight="700" font-family="DejaVu Sans"><tspan x="70" y="38.81">2</tspan></text><text style="text-align:start;line-height:100%;-inkscape-font-specification:DejaVu Sans Bold" x="124.069" y="38.81" font-size="12" font-weight="700" font-family="DejaVu Sans"><tspan x="124.069" y="38.81">3</tspan></text><text style="text-align:start;line-height:100%;-inkscape-font-specification:DejaVu Sans Bold" x="180" y="38.81" font-size="12" font-weight="700" font-family="DejaVu Sans"><tspan x="180" y="38.81">4</tspan></text><text style="text-align:start;line-height:100%;-inkscape-font-specification:DejaVu Sans Bold" x="235" y="38.81" font-size="12" font-weight="700" font-family="DejaVu Sans"><tspan x="235" y="38.81">5</tspan></text><text style="text-align:start;line-height:100%;-inkscape-font-specification:DejaVu Sans Bold" x="290.837" y="38.81" font-size="12" font-weight="700" font-family="DejaVu Sans"><tspan x="290.837" y="38.81">6</tspan></text><path style="marker:none" d="M1.05 25h368.977" fill="none" stroke="#000" stroke-width="2" overflow="visible"/><text style="text-align:start;line-height:100%;-inkscape-font-specification:DejaVu Sans" x="14.339" y="84.33" font-size="12" font-weight="400" font-family="DejaVu Sans"><tspan x="14.339" y="84.33">IF</tspan></text><text style="text-align:start;line-height:100%;-inkscape-font-specification:DejaVu Sans" x="68.176" y="84.33" font-size="12" font-weight="400" font-family="DejaVu Sans"><tspan x="68.176" y="84.33">ID</tspan></text><text style="text-align:start;line-height:100%;-inkscape-font-specification:DejaVu Sans" x="170.655" y="84.33" font-size="12" font-weight="400" font-family="DejaVu Sans"><tspan x="170.655" y="84.33">MEM</tspan></text><text style="text-align:start;line-height:100%;-inkscape-font-specification:DejaVu Sans" x="230.38" y="84.33" font-size="12" font-weight="400" font-family="DejaVu Sans"><tspan x="230.38" y="84.33">WB</tspan></text><path fill="none" stroke="#000" stroke-width="2" d="M5 65.156h29.974V95.13H5zm55 0h29.974V95.13H60zm165.026.026H255v29.974h-29.974z"/><path style="marker:none" d="M90 73.156h5l10-10h10m-25 24h5l10 10h10m-80.25-17h25m85.003 0h25.25m40.387 0h15.252" fill="none" stroke="#000" stroke-width="2" overflow="visible"/><text style="text-align:start;line-height:100%;-inkscape-font-specification:DejaVu Sans" x="69.392" y="144.227" font-size="12" font-weight="400" font-family="DejaVu Sans"><tspan x="69.392" y="144.227">IF</tspan></text><text style="text-align:start;line-height:100%;-inkscape-font-specification:DejaVu Sans" x="123.229" y="144.227" font-size="12" font-weight="400" font-family="DejaVu Sans"><tspan x="123.229" y="144.227">ID</tspan></text><text style="text-align:start;line-height:100%;-inkscape-font-specification:DejaVu Sans" x="280.682" y="144.2" font-size="12" font-weight="400" font-family="DejaVu Sans"><tspan x="280.682" y="144.2">MEM</tspan></text><text style="text-align:start;line-height:100%;-inkscape-font-specification:DejaVu Sans" x="340.406" y="144.2" font-size="12" font-weight="400" font-family="DejaVu Sans"><tspan x="340.406" y="144.2">WB</tspan></text><path fill="none" stroke="#000" stroke-width="2" d="M60.053 125.053h29.974v29.974H60.053zm219.925-.027H310V155h-30.022zm55.075.027h29.974v29.974h-29.974z"/><path style="marker:none" d="M145.026 133.053l60-.027 10-10h3.989m-73.989 24.027l60-.027 10 10h10M89.803 140.053h25m140.473-.027h25m29.975 0h25.027" fill="none" stroke="#000" stroke-width="2" overflow="visible"/><path style="marker:none" d="M212.5 80a2.5 2.5 0 1 1-5 0 2.5 2.5 0 1 1 5 0zm9.228 43.026a2.5 2.5 0 1 1-5 0 2.5 2.5 0 1 1 5 0z" fill="#4e9a06" overflow="visible"/><path style="marker:none" d="M115 52.656l30 15v25l-30 15v-22.25l10-5-10-5v-22.75z" fill="#729fcf" stroke="#000" stroke-width="2" overflow="visible"/><text style="text-align:start;line-height:100%;-inkscape-font-specification:DejaVu Sans" x="127.5" y="84.656" font-size="12" font-weight="400" font-family="DejaVu Sans"><tspan x="127.5" y="84.656">EX</tspan></text><path style="marker:none" d="M225.026 112.526l30 15v25l-30 15v-22.25l10-5-10-5v-22.75z" fill="#729fcf" stroke="#000" stroke-width="2" overflow="visible"/><text style="text-align:start;line-height:100%;-inkscape-font-specification:DejaVu Sans" x="237.526" y="144.526" font-size="12" font-weight="400" font-family="DejaVu Sans"><tspan x="237.526" y="144.526">EX</tspan></text><text style="text-align:center;line-height:100%;-inkscape-font-specification:DejaVu Sans" x="129.668" y="175" font-size="12" font-weight="400" text-anchor="middle" fill="#c00" font-family="DejaVu Sans"><tspan x="129.668" y="175">fetches</tspan><tspan x="129.668" y="187">old data</tspan></text><path style="marker:none" d="M48 25v20m55-20v20m55-20v20m55-20v20m55-20v20" fill="#4e9a06" stroke="#000" stroke-width="2" overflow="visible"/><path style="marker:none" d="M200 80h10" fill="none" stroke="#4e9a06" stroke-width="2" overflow="visible"/><path fill="none" stroke="#000" stroke-width="2" d="M169.952 65.156h30.022V95.13h-30.022z"/><text style="text-align:center;line-height:100%;-inkscape-font-specification:DejaVu Sans" x="185.59" y="175" font-size="12" font-weight="400" text-anchor="middle" fill="#204a87" font-family="DejaVu Sans"><tspan x="185.59" y="175">bubble</tspan><tspan x="185.59" y="187">inserted</tspan></text><path d="M215.967 99.008l-3.912.833 3.623 7.408.29-8.241" style="marker:none" stroke-width="2" overflow="visible" fill="#4e9a06" stroke="#4e9a06"/><path style="marker:none" d="M205 140a20 20 0 1 1-40 0 20 20 0 1 1 40 0z" fill="#204a87" fill-opacity=".468" stroke="#204a87" stroke-width="2" overflow="visible"/><text style="text-align:end;line-height:100%;-inkscape-font-specification:DejaVu Sans" x="307.945" y="107.269" font-size="12" font-weight="400" text-anchor="end" fill="#4e9a06" font-family="DejaVu Sans"><tspan x="307.945" y="107.269">data bypassed</tspan><tspan x="307.945" y="119.269">forwards</tspan></text><path style="marker:none" d="M105 140v-10h10M50 80V70h10" fill="none" stroke="#000" stroke-width="2" overflow="visible"/><path style="marker:none" d="M323 25v20" fill="#4e9a06" stroke="#000" stroke-width="2" overflow="visible"/><text style="text-align:start;line-height:100%;-inkscape-font-specification:DejaVu Sans Bold" x="345.941" y="38.25" font-size="12" font-weight="700" font-family="DejaVu Sans"><tspan x="345.941" y="38.25">7</tspan></text></svg>