<svg xmlns="http://www.w3.org/2000/svg" width="320" height="190" version="1"><path style="marker:none" d="M212 80v25l-45 15v18.25h5" fill="none" stroke="#4e9a06" stroke-width="2" overflow="visible"/><path fill="#c00" fill-rule="evenodd" stroke="#000" stroke-width="2" d="M117.048 139.974h29.974v29.974h-29.974z"/><path opacity=".3" fill="#729fcf" fill-rule="evenodd" d="M0 0h319.984v25H0z"/><path opacity=".3" fill="#729fcf" fill-rule="evenodd" d="M0 0h320v45H0z"/><text style="text-align:start;line-height:100%;-inkscape-font-specification:DejaVu Sans Bold" x="110" y="15" font-size="14.461" font-weight="700" font-family="DejaVu Sans"><tspan x="110" y="15">Clock Cycle</tspan></text><text style="text-align:start;line-height:100%;-inkscape-font-specification:DejaVu Sans Bold" x="17.548" y="40" font-size="12" font-weight="700" font-family="DejaVu Sans"><tspan x="17.548" y="40">1</tspan></text><text style="text-align:start;line-height:100%;-inkscape-font-specification:DejaVu Sans Bold" x="72" y="38.81" font-size="12" font-weight="700" font-family="DejaVu Sans"><tspan x="72" y="38.81">2</tspan></text><text style="text-align:start;line-height:100%;-inkscape-font-specification:DejaVu Sans Bold" x="126.069" y="38.81" font-size="12" font-weight="700" font-family="DejaVu Sans"><tspan x="126.069" y="38.81">3</tspan></text><text style="text-align:start;line-height:100%;-inkscape-font-specification:DejaVu Sans Bold" x="182" y="38.81" font-size="12" font-weight="700" font-family="DejaVu Sans"><tspan x="182" y="38.81">4</tspan></text><text style="text-align:start;line-height:100%;-inkscape-font-specification:DejaVu Sans Bold" x="237" y="38.81" font-size="12" font-weight="700" font-family="DejaVu Sans"><tspan x="237" y="38.81">5</tspan></text><text style="text-align:start;line-height:100%;-inkscape-font-specification:DejaVu Sans Bold" x="292.837" y="38.81" font-size="12" font-weight="700" font-family="DejaVu Sans"><tspan x="292.837" y="38.81">6</tspan></text><path style="marker:none" d="M.897 25H320" fill="none" stroke="#000" stroke-width="2" overflow="visible"/><text style="text-align:start;line-height:100%;-inkscape-font-specification:DejaVu Sans" x="16.339" y="84.33" font-size="12" font-weight="400" font-family="DejaVu Sans"><tspan x="16.339" y="84.33">IF</tspan></text><text style="text-align:start;line-height:100%;-inkscape-font-specification:DejaVu Sans" x="70.176" y="84.33" font-size="12" font-weight="400" font-family="DejaVu Sans"><tspan x="70.176" y="84.33">ID</tspan></text><text style="text-align:start;line-height:100%;-inkscape-font-specification:DejaVu Sans" x="172.655" y="84.33" font-size="12" font-weight="400" font-family="DejaVu Sans"><tspan x="172.655" y="84.33">MEM</tspan></text><text style="text-align:start;line-height:100%;-inkscape-font-specification:DejaVu Sans" x="232.38" y="84.33" font-size="12" font-weight="400" font-family="DejaVu Sans"><tspan x="232.38" y="84.33">WB</tspan></text><path fill="none" stroke="#000" stroke-width="2" d="M7 65.156h29.974V95.13H7zm55 0h29.974V95.13H62zm165.026.026H257v29.974h-29.974z"/><path style="marker:none" d="M92 73.156h5l10-10h10m-25 24h5l10 10h10m-80.25-17h25m85.003 0h25.25m40.387 0h15.252" fill="none" stroke="#000" stroke-width="2" overflow="visible"/><text style="text-align:start;line-height:100%;-inkscape-font-specification:DejaVu Sans" x="71.387" y="159.148" font-size="12" font-weight="400" font-family="DejaVu Sans"><tspan x="71.387" y="159.148">IF</tspan></text><text style="text-align:start;line-height:100%;-inkscape-font-specification:DejaVu Sans" x="125.224" y="159.148" font-size="12" font-weight="400" font-family="DejaVu Sans"><tspan x="125.224" y="159.148">ID</tspan></text><text style="text-align:start;line-height:100%;-inkscape-font-specification:DejaVu Sans" x="227.704" y="159.148" font-size="12" font-weight="400" font-family="DejaVu Sans"><tspan x="227.704" y="159.148">MEM</tspan></text><text style="text-align:start;line-height:100%;-inkscape-font-specification:DejaVu Sans" x="287.428" y="159.148" font-size="12" font-weight="400" font-family="DejaVu Sans"><tspan x="287.428" y="159.148">WB</tspan></text><path fill="none" stroke="#000" stroke-width="2" d="M62.048 139.974h29.974v29.974H62.048zm164.952 0h30.022v29.974H227zm55.075.027h29.974v29.974h-29.974z"/><path style="marker:none" d="M147.048 147.974h5l10-10h3.989m-18.989 24h5l10 10h10m-80.25-17h25m85.5 0h25m29.975 0H282.3" fill="none" stroke="#000" stroke-width="2" overflow="visible"/><path style="marker:none" d="M214.5 80a2.5 2.5 0 1 1-5 0 2.5 2.5 0 1 1 5 0zm-45.75 57.974a2.5 2.5 0 1 1-5 0 2.5 2.5 0 1 1 5 0z" fill="#4e9a06" overflow="visible"/><path style="marker:none" d="M117 52.656l30 15v25l-30 15v-22.25l10-5-10-5v-22.75z" fill="#729fcf" stroke="#000" stroke-width="2" overflow="visible"/><text style="text-align:start;line-height:100%;-inkscape-font-specification:DejaVu Sans" x="129.5" y="84.656" font-size="12" font-weight="400" font-family="DejaVu Sans"><tspan x="129.5" y="84.656">EX</tspan></text><path style="marker:none" d="M172.048 127.474l30 15v25l-30 15v-22.25l10-5-10-5v-22.75z" fill="#729fcf" stroke="#000" stroke-width="2" overflow="visible"/><text style="text-align:start;line-height:100%;-inkscape-font-specification:DejaVu Sans" x="184.548" y="159.474" font-size="12" font-weight="400" font-family="DejaVu Sans"><tspan x="184.548" y="159.474">EX</tspan></text><text style="text-align:center;line-height:100%;-inkscape-font-specification:DejaVu Sans" x="131.34" y="125" font-size="12" font-weight="400" text-anchor="middle" fill="#c00" font-family="DejaVu Sans"><tspan x="131.34" y="125">fetches</tspan><tspan x="131.34" y="137">old data</tspan></text><text style="text-align:start;line-height:100%;-inkscape-font-specification:DejaVu Sans" x="212" y="115" font-size="12" font-weight="400" fill="#4e9a06" font-family="DejaVu Sans"><tspan x="212" y="115">cannot bypass</tspan><tspan x="212" y="127">backwards</tspan></text><path style="marker:none" d="M50 25v20m55-20v20m55-20v20m55-20v20m55-20v20" fill="#4e9a06" stroke="#000" stroke-width="2" overflow="visible"/><path style="marker:none" d="M179 102.75l20 20m0-20l-20 20" fill="none" stroke="#c00" stroke-width="4" overflow="visible"/><path style="marker:none" d="M202 80h10" fill="none" stroke="#4e9a06" stroke-width="2" overflow="visible"/><path fill="none" stroke="#000" stroke-width="2" d="M171.952 65.156h30.022V95.13h-30.022z"/><path style="marker:none" d="M107 155v-10h10M52 80V70h10" fill="none" stroke="#000" stroke-width="2" overflow="visible"/></svg>